<svg width="50" height="50" viewBox="0 0 50 50" fill="none" xmlns="http://www.w3.org/2000/svg">
<path d="M5 30.7812C5.45844 30.7812 5.83008 30.4096 5.83008 29.9512C5.83008 29.4927 5.45844 29.1211 5 29.1211C4.54156 29.1211 4.16992 29.4927 4.16992 29.9512C4.16992 30.4096 4.54156 30.7812 5 30.7812Z" fill="#9DA6B6"/>
<path d="M45.8301 32.793V3.33008C45.8301 1.48437 44.3359 0 42.5 0H7.5C5.6543 0 4.16992 1.49414 4.16992 3.33008V26.6113C4.16992 27.0703 4.54102 27.4414 5 27.4414C5.45898 27.4414 5.83008 27.0703 5.83008 26.6113V8.33008H15.4687C13.1152 10.2051 11.5332 12.8711 11.0059 15.8301H10C8.62305 15.8301 7.5 16.9531 7.5 18.3301V22.5C7.5 23.877 8.62305 25 10 25H10.8301V31.6699H8.33008C3.73047 31.6699 0.00976562 35.4004 0 40V47.5C0 48.877 1.12305 50 2.5 50H47.5C48.877 50 50 48.877 50 47.5V40C50 37.0312 48.4082 34.2773 45.8301 32.793ZM41.6699 31.6699H39.1699V25H40C41.377 25 42.5 23.877 42.5 22.5V18.3301C42.5 16.9531 41.377 15.8301 40 15.8301H38.9941C38.4668 12.8711 36.8848 10.2051 34.5312 8.33008H44.1699V32.0508C43.3594 31.7969 42.5195 31.6699 41.6699 31.6699ZM39.1699 17.7051V17.5H40C40.459 17.5 40.8301 17.8711 40.8301 18.3301V22.5C40.8301 22.959 40.459 23.3301 40 23.3301H39.1699V17.7051ZM5.83008 6.66992V3.33008C5.83008 2.41211 6.57227 1.66016 7.5 1.66016H42.5C43.418 1.66016 44.1699 2.40234 44.1699 3.33008V6.66016H31.9824C27.5879 4.43359 22.4023 4.43359 18.0078 6.66016H5.83008V6.66992ZM25 6.66992C31.8945 6.66992 37.5 11.6211 37.5 17.7148V32.5098C37.5 33.75 32.6465 36.6797 25 36.6797C17.3535 36.6797 12.5 33.75 12.5 32.5098V17.7051C12.5 11.6211 18.1055 6.66992 25 6.66992ZM10 23.3301C9.54102 23.3301 9.16992 22.959 9.16992 22.5V18.3301C9.16992 17.8711 9.54102 17.5 10 17.5H10.8301V23.3301H10ZM10 40.8301C9.54102 40.8301 9.16992 41.2012 9.16992 41.6602V48.3301H2.5C2.04102 48.3301 1.66992 47.959 1.66992 47.5V40C1.66992 36.3184 4.6582 33.3398 8.33984 33.3301H11.0254C12.0605 35.9277 17.7734 38.1348 24.1699 38.3105V48.3301H10.8301V41.6602C10.8301 41.2109 10.459 40.8301 10 40.8301ZM48.3301 44.1699H44.1602V41.6699H48.3301V44.1699ZM44.1699 40C43.252 40 42.5 40.7422 42.5 41.6699V44.1699C42.5 45.0879 43.2422 45.8398 44.1699 45.8398H48.3398V47.5098C48.3398 47.9688 47.9688 48.3398 47.5098 48.3398H40.8398V41.6699C40.8398 41.2109 40.4688 40.8398 40.0098 40.8398C39.5508 40.8398 39.1797 41.2109 39.1797 41.6699V48.3398H25.8301V38.3105C32.2266 38.1348 37.9395 35.9277 38.9746 33.3301H41.6602C45.3418 33.3301 48.3203 36.3184 48.3301 40H44.1699Z" fill="#9DA6B6"/>
<path d="M13.4375 21.4258C13.4473 21.4648 13.4473 21.5137 13.4668 21.5527C14.2773 26.7969 19.1309 30.8398 25 30.8398C30.8789 30.8398 35.752 26.7773 36.543 21.5137C36.5527 21.4844 36.5527 21.4551 36.5625 21.4258V21.416C36.6309 20.9473 36.6699 20.4785 36.6699 20.0098C36.6699 14.0332 31.4355 9.17969 25 9.17969C18.5645 9.17969 13.3301 14.043 13.3301 20.0098C13.3301 20.4785 13.3691 20.9473 13.4375 21.416V21.4258ZM25 29.1699C20.0098 29.1699 15.8691 25.791 15.127 21.4062C15.8887 17.2754 20.0977 14.1699 25 14.1699C29.9023 14.1699 34.1113 17.2656 34.873 21.4062C34.1309 25.791 29.9902 29.1699 25 29.1699ZM25 10.8301C28.9355 10.752 32.5488 12.9785 34.248 16.5234C31.8848 13.9258 28.5156 12.4609 25 12.5C21.4844 12.4609 18.1152 13.9258 15.752 16.5332C17.4512 12.9883 21.0645 10.7617 25 10.8301Z" fill="#9DA6B6"/>
<path d="M35 39.1699H31.6699C30.293 39.1699 29.1699 40.293 29.1699 41.6699C29.1699 43.0469 30.293 44.1699 31.6699 44.1699H35C36.3769 44.1699 37.5 43.0469 37.5 41.6699C37.5 40.293 36.3769 39.1699 35 39.1699ZM35 42.5H31.6699C31.2109 42.5 30.8398 42.1289 30.8398 41.6699C30.8398 41.2109 31.2109 40.8398 31.6699 40.8398H35C35.459 40.8398 35.8301 41.2109 35.8301 41.6699C35.8301 42.1289 35.459 42.5 35 42.5Z" fill="#9DA6B6"/>
<path d="M15.8301 45.8301C17.6758 45.8301 19.1602 44.3359 19.1602 42.5C19.1602 40.6543 17.666 39.1699 15.8301 39.1699C13.9941 39.1699 12.5 40.6543 12.5 42.5C12.5 44.3457 13.9941 45.8301 15.8301 45.8301ZM15.8301 40.8301C16.748 40.8301 17.5 41.5723 17.5 42.5C17.5 43.418 16.7578 44.1699 15.8301 44.1699C14.9121 44.1699 14.1602 43.4277 14.1602 42.5C14.1699 41.582 14.9121 40.8301 15.8301 40.8301Z" fill="#9DA6B6"/>
<path d="M19.022 21.2988L20.6919 18.7988C20.8579 18.5547 20.8774 18.2324 20.7505 17.9688C20.6138 17.7051 20.3501 17.5293 20.0571 17.5098C19.7642 17.4902 19.4712 17.627 19.3052 17.8809L17.6353 20.3809C17.4692 20.625 17.4497 20.9473 17.5767 21.2109C17.7134 21.4746 17.9771 21.6504 18.27 21.6699C18.5728 21.6797 18.856 21.543 19.022 21.2988Z" fill="#9DA6B6"/>
<path d="M23.4764 17.041L18.4764 24.541C18.2225 24.9219 18.3201 25.4395 18.7107 25.6934C19.1014 25.9473 19.6092 25.8496 19.8631 25.459L24.8631 17.959C25.0291 17.7149 25.0486 17.3926 24.9217 17.1289C24.7947 16.8652 24.5213 16.6895 24.2283 16.6699C23.9353 16.6504 23.6424 16.7871 23.4764 17.041Z" fill="#9DA6B6"/>
<path d="M15 32.5C15.4584 32.5 15.8301 32.1284 15.8301 31.6699C15.8301 31.2115 15.4584 30.8398 15 30.8398C14.5416 30.8398 14.1699 31.2115 14.1699 31.6699C14.1699 32.1284 14.5416 32.5 15 32.5Z" fill="#9DA6B6"/>
<path d="M17.5 33.3301C17.9584 33.3301 18.3301 32.9584 18.3301 32.5C18.3301 32.0416 17.9584 31.6699 17.5 31.6699C17.0416 31.6699 16.6699 32.0416 16.6699 32.5C16.6699 32.9584 17.0416 33.3301 17.5 33.3301Z" fill="#9DA6B6"/>
</svg>
