<svg width="55" height="50" viewBox="0 0 55 50" fill="none" xmlns="http://www.w3.org/2000/svg">
<path d="M35.1397 16.1182H19.3604V28.0737H19.4088V33.882H21.3933V17.8123H33.1068V25.2663L35.1397 25.944V17.8607V16.1182Z" fill="#9DA6B6"/>
<path d="M54.5015 12.6332L33.1074 0V7.40564H9.09961V33.882H9.53524L12.4394 32.1395H11.1325V9.14815H35.1404V3.2914L50.9681 12.6332L44.9662 16.1666H45.4018V18.0059L54.5015 12.6332Z" fill="#9DA6B6"/>
<path d="M44.9663 16.1663L42.0621 17.8604L37.7543 20.4258L36.883 20.9098L35.1405 21.9747L33.156 22.9427V32.1877H21.3941V24.782H21.3457L17.3282 27.1538L11.1327 30.8324L10.0194 31.4616L9.09974 31.9941L0 37.4152L10.0194 43.3204L17.3282 47.6282L21.3941 50V42.6427H45.4019V15.9243L44.9663 16.1663ZM43.369 40.9002H19.4096V46.757L17.3766 45.5469L16.5054 45.0629L3.53341 37.4152L9.53537 33.8818L12.4395 32.1877L16.5054 29.7675L17.3766 29.2835L19.3612 28.0734H19.4096V33.9302H35.1889V24.056L36.9314 22.9911L37.8027 22.5071L43.4174 19.2157V40.9002H43.369Z" fill="#121026"/>
</svg>
