<?xml version="1.0" encoding="utf-8"?>
<!-- Generator: Adobe Illustrator 24.2.0, SVG Export Plug-In . SVG Version: 6.00 Build 0)  -->
<svg version="1.1" id="Слой_1" xmlns="http://www.w3.org/2000/svg" xmlns:xlink="http://www.w3.org/1999/xlink" x="0px" y="0px"
	 width="512px" height="512px" viewBox="0 0 512 512" style="enable-background:new 0 0 512 512;" xml:space="preserve">
<path d="M441,78.8C392.6,28.3,325.8-0.1,255.9,0C114.8-0.2,0.2,114.1,0,255.3c-0.1,69.8,28.4,136.6,78.8,184.9
	c0.1,0.1,0.2,0.4,0.3,0.5c1.5,1.4,3.1,2.6,4.6,4c4.1,3.7,8.2,7.4,12.6,11c2.3,1.8,4.7,3.7,7.1,5.3c4.1,3.1,8.2,6.1,12.5,8.9
	c2.9,1.8,5.9,3.7,8.9,5.5c3.9,2.4,7.9,4.8,12,6.9c3.5,1.8,7,3.4,10.5,5.1c3.8,1.8,7.6,3.7,11.6,5.3c3.9,1.6,7.9,2.9,11.9,4.3
	c4,1.4,7.4,2.7,11.2,3.9c4.3,1.3,8.7,2.3,13.1,3.4c3.7,0.9,7.2,1.9,11,2.7c5,1,10.2,1.6,15.3,2.3c3.2,0.4,6.3,1.1,9.5,1.4
	c8.4,0.8,16.8,1.3,25.3,1.3c8.5,0,17-0.5,25.3-1.3c3.2-0.3,6.3-0.9,9.4-1.4c5.1-0.7,10.2-1.3,15.3-2.3c3.7-0.7,7.3-1.8,11-2.7
	c4.4-1.1,8.8-2.1,13.1-3.4c3.8-1.2,7.5-2.6,11.2-3.9c3.7-1.3,8-2.7,11.9-4.3c3.9-1.6,7.7-3.5,11.6-5.3c3.5-1.7,7-3.2,10.5-5.1
	c4.1-2.2,8-4.6,12-6.9c3-1.8,6-3.5,8.9-5.5c4.3-2.8,8.4-5.9,12.5-8.9c2.4-1.8,4.8-3.5,7.1-5.3c4.3-3.5,8.4-7.2,12.6-11
	c1.5-1.4,3.1-2.6,4.6-4c0.1-0.1,0.2-0.3,0.3-0.5C535.2,342.5,538.6,180.7,441,78.8z M399.9,421c-3.3,2.9-6.8,5.7-10.2,8.4
	c-2,1.6-4.1,3.1-6.2,4.6c-3.3,2.4-6.7,4.7-10.1,6.8c-2.5,1.6-5,3.1-7.6,4.6c-3.2,1.8-6.5,3.7-9.8,5.5c-2.9,1.5-5.9,2.9-8.9,4.3
	c-3,1.4-6.3,2.9-9.5,4.2c-3.2,1.3-6.7,2.5-10.1,3.7c-3.1,1.1-6.2,2.2-9.3,3.1c-3.7,1.1-7.5,2-11.3,2.9c-3,0.7-5.9,1.5-8.9,2.1
	c-4.3,0.8-8.8,1.4-13.2,2c-2.5,0.3-5,0.8-7.6,1c-7,0.7-14.1,1.1-21.3,1.1c-7.2,0-14.3-0.4-21.3-1.1c-2.5-0.3-5-0.7-7.6-1
	c-4.4-0.6-8.9-1.2-13.2-2c-3-0.6-5.9-1.4-8.9-2.1c-3.8-0.9-7.5-1.8-11.3-2.9c-3.1-0.9-6.2-2-9.3-3.1c-3.4-1.2-6.8-2.4-10.1-3.7
	c-3.3-1.3-6.4-2.7-9.5-4.2c-3.1-1.4-6-2.8-8.9-4.3c-3.3-1.7-6.6-3.5-9.8-5.5c-2.6-1.5-5.1-3-7.6-4.6c-3.4-2.2-6.8-4.4-10.1-6.8
	c-2.1-1.5-4.1-3.1-6.2-4.6c-3.5-2.7-6.9-5.5-10.2-8.4c-0.8-0.6-1.5-1.4-2.3-2.1c0.8-62.2,40.8-117.1,99.7-137
	c29.5,14,63.7,14,93.1,0c58.9,19.9,98.9,74.8,99.7,137C401.4,419.7,400.7,420.4,399.9,421z M192.2,146.6
	c19.8-35.2,64.4-47.7,99.6-27.9s47.7,64.4,27.9,99.6c-6.6,11.7-16.2,21.3-27.9,27.9c-0.1,0-0.2,0-0.3,0.1c-4.8,2.7-10,4.9-15.3,6.5
	c-0.9,0.3-1.8,0.6-2.8,0.9c-1.8,0.5-3.7,0.8-5.6,1.1c-3.5,0.6-7.1,1-10.7,1.1h-2.1c-3.6-0.1-7.2-0.5-10.7-1.1
	c-1.8-0.3-3.8-0.7-5.6-1.1c-1-0.2-1.8-0.6-2.8-0.9c-5.3-1.6-10.4-3.8-15.3-6.5l-0.3-0.1C184.9,226.4,172.4,181.8,192.2,146.6z
	 M434.6,382.7c-11.7-54.7-47.8-101.1-97.9-126c41-44.6,38-114-6.6-155c-44.6-41-114-38-155,6.6c-38.5,41.9-38.5,106.4,0,148.3
	C125,281.6,89,328,77.3,382.7C7.2,284,30.4,147.1,129.1,77c98.7-70.1,235.6-46.9,305.7,51.9c26.4,37.1,40.5,81.5,40.5,127
	C475.3,301.4,461.1,345.7,434.6,382.7z"/>
</svg>
