<svg width="19" height="19" viewBox="0 0 19 19" fill="none" xmlns="http://www.w3.org/2000/svg">
<g clip-path="url(#clip0)">
<path d="M18.2083 8.70831H10.2917V0.791681C10.2917 0.35444 9.93723 0 9.49999 0C9.06275 0 8.7083 0.35444 8.7083 0.791681V8.70835H0.791681C0.35444 8.70831 0 9.06275 0 9.49999C0 9.93723 0.35444 10.2917 0.791681 10.2917H8.70835V18.2083C8.70835 18.6456 9.06279 19 9.50003 19C9.93727 19 10.2917 18.6456 10.2917 18.2083V10.2917H18.2084C18.6456 10.2917 19.0001 9.93723 19.0001 9.49999C19.0001 9.06275 18.6455 8.70831 18.2083 8.70831Z" fill="#909090"/>
</g>
<defs>
<clipPath id="clip0">
<rect width="19" height="19" fill="white"/>
</clipPath>
</defs>
</svg>
