<svg width="20" height="20" viewBox="0 0 20 20" fill="none" xmlns="http://www.w3.org/2000/svg">
<path d="M19.2857 12.8571H18.0764C17.9765 13.1411 17.8616 13.4196 17.7321 13.6914L18.5893 14.5486C18.8681 14.8275 18.8681 15.2796 18.5893 15.5586L15.5557 18.5864C15.2768 18.8653 14.8246 18.8653 14.5457 18.5864L13.6886 17.7293C13.4177 17.8594 13.1401 17.9753 12.8571 18.0764V19.2857C12.8571 19.6802 12.5373 20 12.1428 20H7.85712C7.46262 20 7.14282 19.6802 7.14282 19.2857V18.0764C6.85869 17.9763 6.57995 17.8614 6.30782 17.7321L5.45068 18.5893C5.17173 18.8681 4.7196 18.8681 4.44069 18.5893L1.41353 15.5557C1.13467 15.2768 1.13467 14.8246 1.41353 14.5457L2.27067 13.6886C2.1403 13.4178 2.02445 13.1402 1.92355 12.8571H0.714299C0.319796 12.8571 0 12.5373 0 12.1429V7.85717C0 7.46266 0.319796 7.14287 0.714299 7.14287H1.92359C2.02349 6.85885 2.13838 6.58037 2.26787 6.30858L1.41073 5.45143C1.1319 5.17248 1.1319 4.72035 1.41073 4.44145L4.44144 1.41073C4.72039 1.1319 5.17253 1.1319 5.45143 1.41073L6.30858 2.26787C6.58049 2.13867 6.85898 2.02374 7.14287 1.92359V0.7143C7.14287 0.319798 7.46266 0 7.85716 0H12.1429C12.5374 0 12.8572 0.319798 12.8572 0.7143V1.92359C13.1413 2.0237 13.4201 2.13863 13.6922 2.26787L14.5493 1.41073C14.8283 1.1319 15.2804 1.1319 15.5593 1.41073L18.59 4.44145C18.8688 4.72035 18.8688 5.17253 18.59 5.45143L17.7329 6.30858C17.8621 6.58037 17.9768 6.85885 18.0765 7.14287H19.2857C19.6802 7.14287 20 7.46266 20 7.85717V12.1429C20 12.5373 19.6802 12.8571 19.2857 12.8571ZM18.5714 8.57142H17.5535C17.2342 8.57142 16.9536 8.3594 16.8664 8.05216C16.7164 7.51879 16.5045 7.00484 16.235 6.52073C16.0772 6.24086 16.1258 5.89013 16.3535 5.66358L17.0678 4.94573L15.0507 2.9286L14.3329 3.6429C14.1063 3.87066 13.7556 3.91921 13.4757 3.76147C12.9918 3.49218 12.478 3.28028 11.945 3.13004C11.6375 3.04311 11.4251 2.76249 11.425 2.4429V1.4286H8.57142V2.44646C8.57134 2.76604 8.35898 3.04666 8.0514 3.13359C7.51837 3.28384 7.00467 3.49574 6.52068 3.76502C6.24082 3.92277 5.89009 3.87422 5.66354 3.64645L4.94924 2.93215L2.92851 4.94929L3.64285 5.66714C3.87062 5.89369 3.91917 6.24442 3.76142 6.52428C3.49189 7.00835 3.27999 7.52234 3.12999 8.05571C3.04185 8.36028 2.76349 8.57029 2.44641 8.57142H1.42856V11.4286H2.44641C2.76579 11.4286 3.04637 11.6406 3.13355 11.9478C3.28355 12.4812 3.49545 12.9952 3.76498 13.4793C3.92272 13.7591 3.87417 14.1099 3.64641 14.3364L2.93211 15.0507L4.94924 17.0714L5.66354 16.3571C5.89009 16.1294 6.24082 16.0808 6.52068 16.2386C7.00463 16.5079 7.51837 16.7198 8.0514 16.87C8.35768 16.9566 8.56971 17.2353 8.57142 17.5536V18.5714H11.4286V17.5536C11.4287 17.234 11.641 16.9534 11.9486 16.8665C12.4816 16.7162 12.9953 16.5043 13.4793 16.235C13.7592 16.0773 14.1099 16.1258 14.3365 16.3536L15.0543 17.0679L17.0714 15.0508L16.3571 14.3365C16.1294 14.1099 16.0808 13.7592 16.2386 13.4793C16.5081 12.9952 16.72 12.4813 16.87 11.9479C16.9572 11.6406 17.2378 11.4286 17.5571 11.4286H18.5714V8.57142H18.5714Z" fill="#727272"/>
<path d="M8.65504 9.3384V14.6641C8.65504 15.0184 8.79783 15.3582 9.05198 15.6087C9.30614 15.8593 9.65085 16 10.0103 16C10.3697 16 10.7144 15.8593 10.9686 15.6087C11.2227 15.3582 11.3655 15.0184 11.3655 14.6641V9.3384C12.3142 8.83905 13 7.81677 13 6.70005C13.0009 6.1492 12.8453 5.60911 12.5508 5.141C12.2562 4.67289 11.8345 4.29548 11.3335 4.05155C11.2588 4.01593 11.1762 3.99917 11.0933 4.00278C11.0104 4.00638 10.9298 4.03023 10.8585 4.07219C10.7881 4.11337 10.7294 4.17138 10.6877 4.24085C10.646 4.31032 10.6228 4.38902 10.6201 4.46967V5.64791L9.99226 6.06765L9.33158 5.60804L9.33836 4.46981C9.33902 4.39009 9.31893 4.31154 9.28001 4.24167C9.24108 4.1718 9.18462 4.11293 9.11602 4.07072C9.04742 4.0285 8.96898 4.00433 8.8882 4.00053C8.80742 3.99673 8.727 4.01342 8.65464 4.04901C8.15725 4.2953 7.73911 4.67304 7.44692 5.14004C7.15473 5.60703 7 6.1449 7 6.69357C7 7.24224 7.15473 7.78011 7.44692 8.2471C7.73911 8.7141 8.15725 9.09184 8.65464 9.33813L8.65504 9.3384ZM8.38928 5.43037L8.38786 5.84943C8.3876 5.92489 8.40588 5.99929 8.44112 6.06627C8.47637 6.13326 8.52754 6.19084 8.59026 6.2341L9.72521 7.01678C9.80339 7.07071 9.89626 7.10014 9.99168 7.10122C10.0871 7.10231 10.1806 7.075 10.26 7.02286L11.3688 6.28753C11.4324 6.2442 11.484 6.18591 11.5189 6.11794C11.5538 6.04997 11.571 5.97448 11.5688 5.89832V5.43117C11.9076 5.78337 12.0316 6.22708 12.0316 6.70025C12.0333 7.11116 11.9078 7.5128 11.6719 7.85159C11.436 8.19038 11.1009 8.4502 10.7113 8.59639C10.6224 8.63045 10.5464 8.6908 10.4936 8.76918C10.4409 8.84755 10.4141 8.94009 10.4169 9.03409V14.6641C10.4169 14.7704 10.374 14.8724 10.2978 14.9475C10.2215 15.0227 10.1181 15.0649 10.0103 15.0649C9.90245 15.0649 9.79904 15.0227 9.72279 14.9475C9.64654 14.8724 9.60371 14.7704 9.60371 14.6641V9.03409C9.60129 8.93779 9.56943 8.84445 9.5123 8.76629C9.45517 8.68814 9.37544 8.6288 9.28353 8.59605C8.8917 8.45087 8.55381 8.19186 8.31454 7.85329C8.07527 7.51472 7.94591 7.11253 7.94355 6.69991C7.94008 6.23888 8.09745 5.79067 8.38928 5.43037Z" fill="#727272"/>
</svg>
