<?xml version="1.0" encoding="utf-8"?>
<!-- Generator: Adobe Illustrator 25.2.0, SVG Export Plug-In . SVG Version: 6.00 Build 0)  -->
<svg version="1.1" id="Capa_1" xmlns="http://www.w3.org/2000/svg" xmlns:xlink="http://www.w3.org/1999/xlink" x="0px" y="0px"
	 viewBox="0 0 52.2 52.2" style="enable-background:new 0 0 52.2 52.2;" xml:space="preserve">
<g>
	<path d="M37,1.7l-0.1-1.5l-1.5,0.2C35.3,0.3,25,1.6,24.3,13l-0.1,1.7l1.7-0.1C26,14.5,37.7,13.6,37,1.7z M34.1,3.6
		c-0.4,5.2-4.2,7-6.6,7.7C28.4,6.2,31.9,4.3,34.1,3.6z"/>
	<path d="M46.5,36.9l-0.9-0.3c-3.6-1.2-6-4.4-6-8.1c0-3.3,1.9-6.3,4.9-7.7l1.4-0.7l-0.8-1.4c-0.2-0.4-2.5-4-7.1-5.2
		c-3.6-0.9-7.6-0.2-12,2.3c-1.9-1.1-8.1-4.2-13-1c-1.2,0.6-11.3,6.8-6,23.3c0.2,0.4,3.8,9,8.2,12.2c1.3,1.3,4.5,2.7,8,0.3
		c0.4-0.2,4.2-1.7,6.6,0c1,0.7,2.7,1.4,4.5,1.4c1.6,0,3-0.6,4.1-1.7c0.6-0.5,5.5-4.9,8-11.8l0.1-0.3L46.5,36.9z M9.9,37.1
		c-4.7-14.8,4.3-19.6,4.7-19.8l0.1-0.1c4.2-2.8,10.3,1.2,10.6,1.4l0.8,0.5l0.8-0.5c3.9-2.4,7.5-3.2,10.5-2.4
		c2.1,0.5,3.5,1.7,4.4,2.7c-3.1,2.1-5,5.7-5,9.5c0,4.4,2.6,8.5,6.6,10.4c-2.5,5.7-6.7,9.3-6.7,9.4l-0.1,0.1c-1.8,1.9-4.7,0-4.9,0
		c-1.2-0.9-2.7-1.3-4.4-1.3c-2.7,0-5.1,1.1-5.1,1.1l-0.2,0.1c-2.6,1.8-4.4,0.3-4.6,0.1l-0.1-0.1C13.6,45.5,10.2,38,9.9,37.1z"/>
</g>
</svg>
