<svg width="12" height="11" viewBox="0 0 12 11" fill="none" xmlns="http://www.w3.org/2000/svg">
<path d="M4.85916 9.72917L5.42542 10.2438C5.66519 10.4617 6.05291 10.4617 6.29012 10.2438L11.2488 5.73966C11.4885 5.52176 11.4885 5.1694 11.2488 4.95382L6.29012 0.447364C6.05035 0.22946 5.66264 0.22946 5.42542 0.447364L4.85916 0.961989C4.61684 1.18221 4.62194 1.54152 4.86936 1.75711L7.943 4.41833H0.612177C0.272929 4.41833 0 4.66637 0 4.97468V5.71648C0 6.02479 0.272929 6.27283 0.612177 6.27283H7.943L4.86936 8.93405C4.61939 9.14964 4.61429 9.50895 4.85916 9.72917Z" fill="#909090"/>
</svg>
