<svg width="12" height="11" viewBox="0 0 12 11" fill="none" xmlns="http://www.w3.org/2000/svg">
<path d="M6.56955 0.962234L6.00329 0.447608C5.76352 0.229704 5.37581 0.229704 5.13859 0.447608L0.179949 4.95174C-0.0598202 5.16965 -0.0598202 5.522 0.179949 5.73759L5.13859 10.244C5.37836 10.4619 5.76607 10.4619 6.00329 10.244L6.56955 9.72942C6.81187 9.50919 6.80677 9.14988 6.55935 8.9343L3.48571 6.27308L10.8165 6.27308C11.1558 6.27308 11.4287 6.02504 11.4287 5.71673V4.97492C11.4287 4.66661 11.1558 4.41857 10.8165 4.41857L3.48571 4.41857L6.55935 1.75735C6.80932 1.54177 6.81442 1.18246 6.56955 0.962234Z" fill="#909090"/>
</svg>
