<svg width="12" height="13" viewBox="0 0 12 13" fill="none" xmlns="http://www.w3.org/2000/svg">
<path d="M11.1962 5.52729L11.8063 6.17141C12.0646 6.44415 12.0646 6.88517 11.8063 7.15501L6.46714 12.7954C6.20884 13.0682 5.79116 13.0682 5.53561 12.7954L0.193726 7.155C-0.0645752 6.88227 -0.0645751 6.44125 0.193726 6.17141L0.803756 5.52729C1.0648 5.25165 1.49073 5.25745 1.74628 5.53889L4.90085 9.03515L4.90085 0.696351C4.90085 0.310456 5.19487 6.19482e-08 5.56034 6.63064e-08L6.43966 7.67922e-08C6.80513 8.11504e-08 7.09915 0.310456 7.09915 0.696351L7.09915 9.03515L10.2537 5.53889C10.5093 5.25455 10.9352 5.24875 11.1962 5.52729Z" fill="#909090"/>
</svg>
