<svg width="12" height="13" viewBox="0 0 12 13" fill="none" xmlns="http://www.w3.org/2000/svg">
<path d="M0.803754 7.47271L0.193725 6.82859C-0.0645755 6.55585 -0.0645755 6.11483 0.193725 5.84499L5.53286 0.204553C5.79116 -0.0681846 6.20884 -0.0681846 6.46439 0.204553L11.8063 5.845C12.0646 6.11773 12.0646 6.55875 11.8063 6.82859L11.1962 7.47271C10.9352 7.74835 10.5093 7.74255 10.2537 7.46111L7.09915 3.96485L7.09915 12.3036C7.09915 12.6895 6.80513 13 6.43966 13L5.56034 13C5.19487 13 4.90085 12.6895 4.90085 12.3036L4.90085 3.96485L1.74628 7.46111C1.49073 7.74545 1.0648 7.75125 0.803754 7.47271Z" fill="#909090"/>
</svg>
