<svg width="22" height="23" viewBox="0 0 22 23" fill="none" xmlns="http://www.w3.org/2000/svg">
<path d="M21.3479 12.2174H8.73909C8.37909 12.2174 8.08691 11.9252 8.08691 11.5653C8.08691 11.2053 8.37909 10.9131 8.73909 10.9131H21.3479C21.7079 10.9131 22.0001 11.2053 22.0001 11.5653C22.0001 11.9252 21.7079 12.2174 21.3479 12.2174Z" fill="#727272"/>
<path d="M12.2171 15.6957C12.0501 15.6957 11.8832 15.6324 11.7562 15.5045L8.27798 12.0263C8.02323 11.7714 8.02323 11.3584 8.27798 11.1036L11.7562 7.62539C12.0109 7.37064 12.424 7.37064 12.6789 7.62539C12.9336 7.88015 12.9336 8.29317 12.6789 8.54793L9.66146 11.5653L12.6789 14.5828C12.9336 14.8375 12.9336 15.2505 12.6789 15.5053C12.551 15.6324 12.384 15.6957 12.2171 15.6957Z" fill="#727272"/>
<path d="M20.5719 8.6341L20.5722 8.63398C20.9594 8.47768 21.1499 8.03352 20.9974 7.64093C19.4223 3.57658 15.6295 0.95 11.3333 0.95C5.60758 0.95 0.95 5.68385 0.95 11.5C0.95 17.3161 5.60758 22.05 11.3333 22.05C15.6294 22.05 19.4222 19.4234 20.9974 15.3602C21.1499 14.9675 20.9595 14.5223 20.5721 14.3669L20.5718 14.3668C20.1832 14.2133 19.7455 14.4049 19.5928 14.8C18.2464 18.2738 15.0041 20.5182 11.3333 20.5182C6.44109 20.5182 2.45908 16.4729 2.45908 11.5C2.45908 6.52706 6.44109 2.48181 11.3333 2.48181C15.0041 2.48181 18.2464 4.72622 19.5928 8.20106L19.5928 8.20112C19.7463 8.59593 20.184 8.78778 20.5719 8.6341Z" fill="#727272" stroke="#727272" stroke-width="0.1"/>
</svg>
