<?xml version="1.0" encoding="utf-8"?>
<!-- Generator: Adobe Illustrator 25.2.0, SVG Export Plug-In . SVG Version: 6.00 Build 0)  -->
<svg version="1.1" id="Layer_3" xmlns="http://www.w3.org/2000/svg" xmlns:xlink="http://www.w3.org/1999/xlink" x="0px" y="0px"
	 viewBox="0 0 512 512" style="enable-background:new 0 0 512 512;" xml:space="preserve">
<g>
	<path d="M496,187c6.1,0,11-4.9,11-11V48c0-6.1-4.9-11-11-11h-5V16c0-6.1-4.9-11-11-11H32c-6.1,0-11,4.9-11,11v21h-5
		C9.9,37,5,41.9,5,48v128c0,6.1,4.9,11,11,11h5v266h-5c-6.1,0-11,4.9-11,11v32c0,6.1,4.9,11,11,11h480c6.1,0,11-4.9,11-11v-32
		c0-6.1-4.9-11-11-11h-5V187H496z M43,37V27h426v10H43z M437,315v138h-90V315H437z M245,347v106h-58V347H245z M165,347v106h-58V347
		H165z M256,325H96c-6.1,0-11,4.9-11,11v117H75V315h202v138h-10V336C267,329.9,262.1,325,256,325z M43,261v-42h90v42H43z M155,261
		v-42h90v42H155z M267,261v-42h90v42H267z M448,293H336c-6.1,0-11,4.9-11,11v149h-26V304c0-6.1-4.9-11-11-11H64c-6.1,0-11,4.9-11,11
		v149H43V283h426v170h-10V304C459,297.9,454.1,293,448,293z M469,219v42h-90v-42H469z M469,187v10H43v-10H469z M27,165V59h458v106
		H27z M485,475v10H27v-10H485z"/>
	<path d="M152,69h-32c-6.1,0-11,4.9-11,11v64c0,6.1,4.9,11,11,11h32c14.9,0,27-12.1,27-27c0-5.8-1.9-11.4-5.3-16
		c3.4-4.6,5.3-10.2,5.3-16C179,81.1,166.9,69,152,69z M152,101h-21V91h21c2.8,0,5,2.2,5,5S154.8,101,152,101z M152,133h-21v-10h21
		c2.8,0,5,2.2,5,5S154.8,133,152,133z"/>
	<path d="M224,69c-19.3,0-35,15.7-35,35v51h22v-24h26v24h22v-51C259,84.7,243.3,69,224,69z M211,104c0-7.2,5.8-13,13-13
		s13,5.8,13,13v5h-26V104z"/>
	<path d="M317,111l-28.2-37.6c-2.8-3.8-7.8-5.3-12.3-3.8C272,71.1,269,75.3,269,80v75h22v-42l28.2,37.6c2.1,2.8,5.4,4.4,8.8,4.4
		c1.2,0,2.3-0.2,3.5-0.6c4.5-1.5,7.5-5.7,7.5-10.4V69h-22V111z"/>
	<path d="M381,72c0,8.3-3.7,16.1-10,21.3V69h-22v86h22v-24.3c6.3,5.2,10,13,10,21.3v3h22v-3c0-16-7.5-30.6-20.3-40
		c12.8-9.4,20.3-24,20.3-40v-3h-22V72z"/>
	<path d="M368,395h48c6.1,0,11-4.9,11-11v-48c0-6.1-4.9-11-11-11h-48c-6.1,0-11,4.9-11,11v48C357,390.1,361.9,395,368,395z M379,373
		v-26h26v26H379z"/>
</g>
</svg>
