<svg width="20" height="24" viewBox="0 0 20 24" fill="none" xmlns="http://www.w3.org/2000/svg">
<path d="M17.086 0.133057H3.44779C2.03551 0.133057 0.890625 1.27794 0.890625 2.69022V21.4428C0.890625 22.8551 2.03551 23.9999 3.44779 23.9999H17.086C18.4983 23.9999 19.6432 22.8551 19.6432 21.4428V2.69022C19.6432 1.27794 18.4983 0.133057 17.086 0.133057ZM17.9384 21.4428C17.9384 21.9136 17.5567 22.2952 17.086 22.2952H3.44779C2.97701 22.2952 2.59538 21.9136 2.59538 21.4428V2.69022C2.59538 2.21944 2.97701 1.83782 3.44779 1.83782H17.086C17.5568 1.83782 17.9384 2.21944 17.9384 2.69022V21.4428H17.9384Z" fill="#727272"/>
<path d="M15.3809 4.39502H5.15221C4.68143 4.39502 4.2998 4.77665 4.2998 5.24742V8.65699C4.2998 9.12777 4.68143 9.5094 5.15221 9.5094H15.3809C15.8516 9.5094 16.2333 9.12777 16.2333 8.65699V5.24742C16.2333 4.77665 15.8516 4.39502 15.3809 4.39502ZM14.5285 7.80459H6.00461V6.09983H14.5285V7.80459Z" fill="#727272"/>
<path d="M6.85697 11.2141H5.15221C4.68143 11.2141 4.2998 11.5957 4.2998 12.0665C4.2998 12.5373 4.68143 12.9189 5.15216 12.9189H6.85692C7.3277 12.9189 7.70932 12.5372 7.70932 12.0665C7.70932 11.5957 7.3277 11.2141 6.85697 11.2141Z" fill="#727272"/>
<path d="M11.1187 11.2141H9.41393C8.94315 11.2141 8.56152 11.5957 8.56152 12.0665C8.56152 12.5373 8.94315 12.9189 9.41393 12.9189H11.1187C11.5895 12.9189 11.9711 12.5372 11.9711 12.0665C11.9711 11.5957 11.5895 11.2141 11.1187 11.2141Z" fill="#727272"/>
<path d="M15.3814 11.2141H13.6766C13.2058 11.2141 12.8242 11.5957 12.8242 12.0665C12.8242 12.5373 13.2058 12.9189 13.6766 12.9189H15.3814C15.8522 12.9189 16.2338 12.5372 16.2338 12.0665C16.2338 11.5957 15.8522 11.2141 15.3814 11.2141Z" fill="#727272"/>
<path d="M6.85697 14.6237H5.15221C4.68143 14.6237 4.2998 15.0053 4.2998 15.4761C4.2998 15.9468 4.68143 16.3285 5.15221 16.3285H6.85697C7.32775 16.3285 7.70937 15.9468 7.70937 15.4761C7.70937 15.0053 7.3277 14.6237 6.85697 14.6237Z" fill="#727272"/>
<path d="M11.1187 14.6237H9.41393C8.94315 14.6237 8.56152 15.0053 8.56152 15.4761C8.56152 15.9468 8.94315 16.3285 9.41393 16.3285H11.1187C11.5895 16.3285 11.9711 15.9468 11.9711 15.4761C11.9711 15.0053 11.5895 14.6237 11.1187 14.6237Z" fill="#727272"/>
<path d="M15.3814 14.6237H13.6766C13.2058 14.6237 12.8242 15.0053 12.8242 15.4761C12.8242 15.9468 13.2058 16.3285 13.6766 16.3285H15.3814C15.8522 16.3285 16.2338 15.9468 16.2338 15.4761C16.2338 15.0053 15.8522 14.6237 15.3814 14.6237Z" fill="#727272"/>
<path d="M6.85697 18.0332H5.15221C4.68143 18.0332 4.2998 18.4148 4.2998 18.8856C4.2998 19.3564 4.68143 19.738 5.15221 19.738H6.85697C7.32775 19.738 7.70937 19.3564 7.70937 18.8856C7.70932 18.4148 7.3277 18.0332 6.85697 18.0332Z" fill="#727272"/>
<path d="M11.1187 18.0332H9.41393C8.94315 18.0332 8.56152 18.4148 8.56152 18.8856C8.56152 19.3564 8.94315 19.738 9.41393 19.738H11.1187C11.5895 19.738 11.9711 19.3564 11.9711 18.8856C11.9711 18.4148 11.5895 18.0332 11.1187 18.0332Z" fill="#727272"/>
<path d="M15.3814 18.0332H13.6766C13.2058 18.0332 12.8242 18.4148 12.8242 18.8856C12.8242 19.3564 13.2058 19.738 13.6766 19.738H15.3814C15.8522 19.738 16.2338 19.3564 16.2338 18.8856C16.2338 18.4148 15.8522 18.0332 15.3814 18.0332Z" fill="#727272"/>
</svg>
