<svg width="20" height="20" viewBox="0 0 20 20" fill="none" xmlns="http://www.w3.org/2000/svg">
<path d="M17.7083 19.9993H2.29172C1.02753 19.9993 0 18.9718 0 17.7076V3.95758C0 2.69339 1.02753 1.66602 2.29172 1.66602H17.7083C18.9725 1.66602 20 2.69339 20 3.95758V17.7076C20 18.9718 18.9725 19.9993 17.7083 19.9993ZM2.29172 2.91602C1.71753 2.91602 1.25 3.38339 1.25 3.95758V17.7076C1.25 18.2818 1.71753 18.7493 2.29172 18.7493H17.7083C18.2825 18.7493 18.75 18.2818 18.75 17.7076V3.95758C18.75 3.38339 18.2825 2.91602 17.7083 2.91602H2.29172Z" fill="#909090"/>
<path d="M19.375 7.91602H0.625C0.279999 7.91602 0 7.63602 0 7.29102C0 6.94601 0.279999 6.66602 0.625 6.66602H19.375C19.72 6.66602 20 6.94601 20 7.29102C20 7.63602 19.72 7.91602 19.375 7.91602Z" fill="#909090"/>
<path d="M4.79199 5C4.44699 5 4.16699 4.72 4.16699 4.375V0.625C4.16699 0.279999 4.44699 0 4.79199 0C5.13699 0 5.41699 0.279999 5.41699 0.625V4.375C5.41699 4.72 5.13699 5 4.79199 5Z" fill="#909090"/>
<path d="M15.208 5C14.863 5 14.583 4.72 14.583 4.375V0.625C14.583 0.279999 14.863 0 15.208 0C15.553 0 15.833 0.279999 15.833 0.625V4.375C15.833 4.72 15.553 5 15.208 5Z" fill="#909090"/>
<path d="M15.1648 9.16393C14.9385 8.94536 14.5798 8.94536 14.3535 9.16393L8.92689 14.5905L7.00395 12.6675C6.77991 12.4356 6.41021 12.4292 6.17827 12.6532C5.94628 12.8773 5.93989 13.247 6.16393 13.4789C6.16862 13.4838 6.17341 13.4885 6.17827 13.4932L8.51405 15.829C8.74206 16.057 9.11172 16.057 9.33973 15.829L15.1792 9.98958C15.4032 9.75763 15.3968 9.38797 15.1648 9.16393Z" fill="#909090"/>
</svg>
