<svg width="20" height="20" viewBox="0 0 20 20" fill="none" xmlns="http://www.w3.org/2000/svg">
<path d="M17.7083 20H2.29172C1.02753 20 0 18.9912 0 17.7499V4.24991C0 3.0087 1.02753 2 2.29172 2H17.7083C18.9725 2 20 3.0087 20 4.24991V17.7499C20 18.9912 18.9725 20 17.7083 20ZM2.29172 3.22728C1.71753 3.22728 1.25 3.68616 1.25 4.24991V17.7499C1.25 18.3137 1.71753 18.7727 2.29172 18.7727H17.7083C18.2825 18.7727 18.75 18.3137 18.75 17.7499V4.24991C18.75 3.68616 18.2825 3.22728 17.7083 3.22728H2.29172Z" fill="#727272"/>
<path d="M19.375 8H0.625C0.279999 8 0 7.776 0 7.5C0 7.224 0.279999 7 0.625 7H19.375C19.72 7 20 7.224 20 7.5C20 7.776 19.72 8 19.375 8Z" fill="#727272"/>
<path d="M4.5 5C4.224 5 4 4.72 4 4.375V0.625C4 0.279999 4.224 0 4.5 0C4.776 0 5 0.279999 5 0.625V4.375C5 4.72 4.776 5 4.5 5Z" fill="#727272"/>
<path d="M15.5 5C15.224 5 15 4.72 15 4.375V0.625C15 0.279999 15.224 0 15.5 0C15.776 0 16 0.279999 16 0.625V4.375C16 4.72 15.776 5 15.5 5Z" fill="#727272"/>
</svg>
