<?xml version="1.0" encoding="utf-8"?>
<!-- Generator: Adobe Illustrator 25.2.0, SVG Export Plug-In . SVG Version: 6.00 Build 0)  -->
<svg version="1.1" id="Layer_1" xmlns="http://www.w3.org/2000/svg" xmlns:xlink="http://www.w3.org/1999/xlink" x="0px" y="0px"
	 viewBox="0 0 512.2 512.2" style="enable-background:new 0 0 512.2 512.2;" xml:space="preserve">
<g>
	<path d="M272.6,339.9h132.9c7.7,0,13.2-5.6,13.2-13.2v-74.8c0-7.7-5.6-13.2-13.2-13.2H272.6c-7.7,0-13.2,5.6-13.2,13.2v74.7
		c0,3.8,1.3,7.1,3.7,9.5C265.5,338.6,268.8,339.9,272.6,339.9z M392.3,265.2v48.3H285.9v-48.3H392.3z"/>
	<path d="M48.4,231.9h66.4c7.7,0,13.2-5.6,13.2-13.2s-5.6-13.2-13.2-13.2H48.4c-7.7,0-13.2,5.6-13.2,13.2S40.7,231.9,48.4,231.9z"/>
	<path d="M148,231.9h66.4c7.7,0,13.2-5.6,13.2-13.2s-5.6-13.2-13.2-13.2H148c-7.7,0-13.2,5.6-13.2,13.2S140.4,231.9,148,231.9z"/>
	<path d="M48.4,265.2h108c7.7,0,13.2-5.6,13.2-13.2s-5.6-13.2-13.2-13.2h-108c-7.7,0-13.2,5.6-13.2,13.2S40.7,265.2,48.4,265.2z"/>
	<path d="M214.5,238.7h-24.9c-7.7,0-13.2,5.6-13.2,13.2s5.6,13.2,13.2,13.2h24.9c7.7,0,13.2-5.6,13.2-13.2S222.1,238.7,214.5,238.7z
		"/>
	<path d="M501.5,137.5c-6.7-8.5-15.3-13.3-25.6-14.2l-15.6-1.9V85.8c0-21-17.1-38.2-38.2-38.2H40.1c-10.2,0-19.7,4-26.9,11.2
		c-7.2,7.2-11.2,16.8-11.2,27v265.8c0,15.5,9.5,29.5,23.9,35.4c1.3,18.1,15.5,32.7,33.6,34.3l383.7,43.2l3.9,0
		c19.1,0,36.2-14.7,38.1-32.7l24.9-266.6C511.1,155.2,507.9,144.8,501.5,137.5z M433.8,351.6c0,6.4-5.2,11.7-11.7,11.7H40.1
		c-6.4,0-11.7-5.2-11.7-11.7V182.1h405.4V351.6z M28.4,155.6v-40h405.4v40H28.4z M422.1,389.8c21,0,38.2-17.1,38.2-38.2V146.8
		L474,148l0.4,0c2.4,0,5.1,1.5,6.9,3.8c1.9,2.5,2.9,6.1,2.4,8.5l0,0.2l-24.9,266.9c-0.3,3.1-1.8,5.8-4.2,7.8c-2.5,2-5.5,2.9-8.6,2.7
		L63,394.9c-3.5-0.4-6.6-2.3-8.5-5.1H422.1z M28.4,89.2v-3.4c0-6.4,5.2-11.7,11.7-11.7h382.1c6.4,0,11.7,5.2,11.7,11.7v3.4H28.4z"/>
</g>
</svg>
