<?xml version="1.0" encoding="utf-8"?>
<!-- Generator: Adobe Illustrator 25.2.0, SVG Export Plug-In . SVG Version: 6.00 Build 0)  -->
<svg version="1.1" id="Capa_1" xmlns="http://www.w3.org/2000/svg" xmlns:xlink="http://www.w3.org/1999/xlink" x="0px" y="0px"
	 viewBox="0 0 407.5 407.5" style="enable-background:new 0 0 407.5 407.5;" xml:space="preserve">
<g>
	<path d="M403.9,224.8l-0.1-0.3L329.4,37.8c-1.1-2.9-3.3-5.1-6.2-6.4c-2.8-1.2-5.9-1.3-8.8-0.2l-0.4,0.1l-0.1,0.1l-301.4,120l-0.1,0
		c-1.6,0.7-3,1.7-4.1,3c-3.3,2.1-5.4,5.7-5.4,9.7v201.1c0,6.4,5.2,11.6,11.6,11.6h324.9c6.4,0,11.6-5.2,11.6-11.6V258.2l46.4-18.5
		C403.2,237.4,406.1,230.7,403.9,224.8z M342,153l-15.5-39l-0.2-0.4c-0.2-0.3-0.3-0.6-0.5-0.8c-1.6-5.1-6.5-8.6-12-8.1
		c-14.4,1.3-28.3-4.7-37.2-16c-3.4-4.2-9.4-5.5-14.2-3c-0.3,0-0.5,0.1-0.8,0.2l-0.2,0.1l-158.3,63c-2,0.8-3.8,2.1-5,3.9H72.3
		l239.8-95.5L378,222.5l-27,10.8v-68.9C350.9,158.8,347.1,154.2,342,153z M264.4,109.5c11.4,11.1,26.7,17.7,42.6,18.4l9.9,24.8H156
		L264.4,109.5z M327.7,175.9v177.9H26.1V175.9H327.7z"/>
	<path d="M34,297.1c-0.5,5.4,2.9,10.5,8.1,12.1l0,0c13.8,4.1,24.5,14.8,28.6,28.6c1.5,4.9,6,8.3,11.1,8.3l0.2,0c0.3,0,0.6,0,0.9-0.1
		c0.2,0,0.4,0.1,0.7,0.1l0.2,0h185.9l0.5,0c0.2,0,0.3,0,0.5-0.1c0.5,0.1,1.1,0.1,1.6,0.1c5,0,9.5-3.4,10.7-8.4
		c4.1-13.8,14.8-24.4,28.6-28.5c5.2-1.6,8.6-6.6,8.1-12c0.1-0.3,0.1-0.6,0.1-0.9l0-0.2v-62.1l0-0.4c0-0.3-0.1-0.6-0.2-0.9
		c0.5-5.3-2.9-10.4-8.1-12c-13.8-4.1-24.5-14.8-28.6-28.7c-1.6-5.2-6.7-8.6-12.1-8.1c-0.3-0.1-0.6-0.1-0.8-0.1l-0.2,0H84.1l-0.5,0
		c-0.3,0-0.6,0.1-0.9,0.2c-5.3-0.4-10.4,2.9-12,8.1c-4.1,13.8-14.8,24.5-28.6,28.6c-5.2,1.6-8.6,6.7-8.1,12
		c-0.1,0.3-0.1,0.6-0.1,0.9l0,0.2v62.1l0,0.5C33.9,296.5,33.9,296.8,34,297.1z M264,206.8c6.5,14.5,18.3,26.2,32.8,32.8v50.5
		c-14.5,6.5-26.2,18.3-32.8,32.8H89.8c-6.5-14.5-18.3-26.2-32.8-32.8v-50.5c14.5-6.5,26.2-18.3,32.8-32.8H264z"/>
	<path d="M176.9,315.1L176.9,315.1c27.7,0,50.3-22.6,50.3-50.3s-22.6-50.3-50.3-50.3s-50.3,22.6-50.3,50.3
		C126.7,292.5,149.2,315.1,176.9,315.1z M176.9,237.8c14.9,0,27.1,12.1,27.1,27.1s-12.1,27.1-27.1,27.1c-14.9,0-27.1-12.1-27.1-27.1
		S162,237.8,176.9,237.8z"/>
	<circle cx="91.8" cy="264.8" r="15.5"/>
	<circle cx="262" cy="264.8" r="15.5"/>
</g>
</svg>
