<svg width="20" height="20" viewBox="0 0 20 20" fill="none" xmlns="http://www.w3.org/2000/svg">
<path d="M9.99998 0C4.47715 0 0 4.47715 0 9.99998C0 15.5228 4.47715 20 9.99998 20C15.5228 20 20 15.5228 20 9.99998C19.9941 4.47961 15.5204 0.00590122 9.99998 0ZM9.99998 18.5714C5.26611 18.5714 1.42856 14.7338 1.42856 9.99998C1.42856 5.26611 5.26611 1.42856 9.99998 1.42856C14.7338 1.42856 18.5714 5.26611 18.5714 9.99998C18.5663 14.7318 14.7318 18.5663 9.99998 18.5714Z" fill="#727272"/>
<path d="M15.4878 5.92366C15.211 5.65631 14.7722 5.65631 14.4954 5.92366L7.85755 12.5615L5.50539 10.2093C5.23134 9.92557 4.77912 9.91774 4.4954 10.1918C4.21164 10.4658 4.20381 10.9181 4.47786 11.2018C4.4836 11.2077 4.48946 11.2136 4.4954 11.2193L7.35255 14.0765C7.63146 14.3553 8.08364 14.3553 8.36254 14.0765L15.5054 6.93361C15.7795 6.64989 15.7716 6.19771 15.4878 5.92366Z" fill="#727272"/>
</svg>
