<svg width="18" height="20" viewBox="0 0 18 20" fill="none" xmlns="http://www.w3.org/2000/svg">
<path d="M16.4286 0H2.85715C2.46265 0 2.14286 0.319796 2.14286 0.714299V2.85715H0.714299C0.319796 2.85715 0 3.17695 0 3.57145V19.2857C0 19.6802 0.319796 20 0.714299 20H13.5714C13.9659 20 14.2857 19.6802 14.2857 19.2857V18.5714H16.4286C16.8231 18.5714 17.1429 18.2516 17.1429 17.8571V0.714257C17.1428 0.319796 16.823 0 16.4286 0ZM12.8571 18.5714H1.4286V4.28571H9.28572V7.14287C9.28572 7.53737 9.60552 7.85716 10 7.85716H12.8572V18.5714H12.8571ZM10.7143 6.42857V5.2957L11.8471 6.42857H10.7143ZM15.7143 17.1428H14.2857V7.14287C14.2848 6.95327 14.2094 6.77167 14.0757 6.63716L10.5043 3.06571C10.3699 2.93295 10.1889 2.85812 10 2.85715H3.57145V1.42856H15.7143V17.1428Z" fill="#909090"/>
<path d="M10.7145 9.28577H3.57172C3.17722 9.28577 2.85742 9.60556 2.85742 10.0001C2.85742 10.3946 3.17722 10.7143 3.57172 10.7143H10.7146C11.1091 10.7143 11.4289 10.3945 11.4289 10C11.4289 9.60552 11.109 9.28577 10.7145 9.28577Z" fill="#909090"/>
<path d="M10.7145 12.1428H3.57172C3.17722 12.1428 2.85742 12.4626 2.85742 12.8571C2.85742 13.2516 3.17722 13.5714 3.57172 13.5714H10.7146C11.1091 13.5714 11.4289 13.2516 11.4289 12.8571C11.4289 12.4626 11.109 12.1428 10.7145 12.1428Z" fill="#909090"/>
<path d="M10.7145 15H3.57172C3.17722 15 2.85742 15.3198 2.85742 15.7143C2.85742 16.1088 3.17722 16.4286 3.57172 16.4286H10.7146C11.1091 16.4286 11.4289 16.1088 11.4289 15.7143C11.4288 15.3198 11.109 15 10.7145 15Z" fill="#909090"/>
</svg>
