<svg width="22" height="22" viewBox="0 0 22 22" fill="none" xmlns="http://www.w3.org/2000/svg">
<path d="M3.8582 18.1418C5.7657 20.0493 8.30239 21.1 11 21.1C13.6976 21.1 16.2343 20.0493 18.1418 18.1418C20.0493 16.2343 21.1 13.6976 21.1 11C21.1 8.30239 20.0493 5.7657 18.1418 3.8582C16.2343 1.95069 13.6976 0.9 11 0.9C8.30239 0.9 5.76566 1.95065 3.85819 3.8582C1.95073 5.76574 0.9 8.30238 0.9 11C0.9 13.6976 1.95069 16.2343 3.8582 18.1418ZM2.35 11C2.35 6.23046 6.23046 2.35 11 2.35C15.7695 2.35 19.65 6.23046 19.65 11C19.65 15.7695 15.7695 19.65 11 19.65C6.23046 19.65 2.35 15.7695 2.35 11Z" fill="#909090" stroke="#909090" stroke-width="0.2"/>
<path d="M13.2759 11C13.796 10.5415 14.125 9.87113 14.125 9.125C14.125 8.07797 13.4777 7.17977 12.5625 6.80809V6C12.5625 5.65484 12.2827 5.375 11.9375 5.375C11.5923 5.375 11.3125 5.65484 11.3125 6V6.625H10.0625V6C10.0625 5.65484 9.7827 5.375 9.4375 5.375C9.0923 5.375 8.8125 5.65484 8.8125 6V6.625H7.5625C7.2173 6.625 6.9375 6.90484 6.9375 7.25C6.9375 7.59516 7.2173 7.875 7.5625 7.875H8.1875V11V14.125H7.5625C7.2173 14.125 6.9375 14.4048 6.9375 14.75C6.9375 15.0952 7.2173 15.375 7.5625 15.375H8.8125V16C8.8125 16.3452 9.0923 16.625 9.4375 16.625C9.7827 16.625 10.0625 16.3452 10.0625 16V15.375H11.3125V16C11.3125 16.3452 11.5923 16.625 11.9375 16.625C12.2827 16.625 12.5625 16.3452 12.5625 16V15.1919C13.4777 14.8202 14.125 13.922 14.125 12.875C14.125 12.1289 13.796 11.4585 13.2759 11ZM9.4375 7.875H11.625C12.3143 7.875 12.875 8.43574 12.875 9.125C12.875 9.81426 12.3143 10.375 11.625 10.375H9.4375V7.875ZM11.625 14.125H9.4375V11.625H11.625C12.3143 11.625 12.875 12.1857 12.875 12.875C12.875 13.5643 12.3143 14.125 11.625 14.125Z" fill="#909090"/>
</svg>
