<svg width="21" height="21" viewBox="0 0 21 21" fill="none" xmlns="http://www.w3.org/2000/svg">
<path d="M2.15667 0H17.9757C19.167 0 20.1328 0.965782 20.1328 2.15714V13.6619C20.1328 14.8532 19.167 15.819 17.9757 15.819H15.4231L15.8142 19.3351C15.8578 19.7299 15.5732 20.0852 15.1784 20.1288C14.9746 20.1513 14.7709 20.0857 14.6184 19.9485L10.0295 15.819H2.15667C0.965313 15.819 -0.000469208 14.8532 -0.000469208 13.6619V2.15714C-0.000469208 0.965782 0.965313 0 2.15667 0ZM1.43765 13.6619C1.43765 14.059 1.75958 14.3809 2.15671 14.3809H10.3056C10.4833 14.381 10.6546 14.4468 10.7867 14.5657L14.1763 17.6166L13.9052 15.1798C13.8611 14.7851 14.1453 14.4295 14.54 14.3854C14.5665 14.3824 14.5932 14.3809 14.6199 14.3809H17.9757C18.3728 14.3809 18.6947 14.059 18.6947 13.6619V2.15714C18.6947 1.76 18.3728 1.43808 17.9757 1.43808H2.15667C1.75953 1.43808 1.43761 1.76 1.43761 2.15714V13.6619H1.43765Z" fill="#727272"/>
</svg>
