<svg width="21" height="21" viewBox="0 0 21 21" fill="none" xmlns="http://www.w3.org/2000/svg">
<g clip-path="url(#clip0)">
<path d="M15.1279 6.0788L15.1279 6.07835C15.1237 5.15466 14.3987 4.3978 13.5017 4.3978H4.52622C3.62551 4.3978 2.9 5.15451 2.9 6.0788V19.419C2.9 20.3433 3.62551 21.1 4.52622 21.1H13.5017C14.4024 21.1 15.1279 20.3433 15.1279 19.419L15.1279 6.0788ZM13.8564 19.4149C13.8564 19.6251 13.6922 19.79 13.4977 19.79H4.52227C4.32774 19.79 4.16361 19.6251 4.16361 19.4149V6.0788C4.16361 5.86854 4.32774 5.70368 4.52227 5.70368H13.4977C13.6922 5.70368 13.8564 5.86854 13.8564 6.0788V19.4149Z" fill="#909090" stroke="#909090" stroke-width="0.2"/>
<path d="M16.9338 0.9H7.95835C7.05764 0.9 6.33213 1.65671 6.33213 2.581C6.33213 2.94006 6.61084 3.23394 6.96591 3.23394C7.32098 3.23394 7.59969 2.94006 7.59969 2.581C7.59969 2.37074 7.76382 2.20588 7.95835 2.20588H16.9338C17.1283 2.20588 17.2924 2.37074 17.2924 2.581V15.9212C17.2924 16.1314 17.1283 16.2963 16.9338 16.2963C16.5787 16.2963 16.3 16.5902 16.3 16.9492C16.3 17.3083 16.5787 17.6022 16.9338 17.6022C17.8345 17.6022 18.56 16.8455 18.56 15.9212V2.581C18.56 1.65671 17.8345 0.9 16.9338 0.9Z" fill="#909090" stroke="#909090" stroke-width="0.2"/>
</g>
<defs>
<clipPath id="clip0">
<rect width="21" height="21" fill="white"/>
</clipPath>
</defs>
</svg>
