<?xml version="1.0" encoding="utf-8"?>
<!-- Generator: Adobe Illustrator 25.2.0, SVG Export Plug-In . SVG Version: 6.00 Build 0)  -->
<svg version="1.1" id="Capa_1" xmlns="http://www.w3.org/2000/svg" xmlns:xlink="http://www.w3.org/1999/xlink" x="0px" y="0px"
	 viewBox="0 0 512 512" style="enable-background:new 0 0 512 512;" xml:space="preserve">
<g>
	<path d="M512,161.8C512,161.8,512,161.8,512,161.8l0-20.9c0-15.3-6-29.6-16.8-40.4c-10.8-10.8-25.2-16.8-40.4-16.8H57.2
		C25.7,83.7,0,109.4,0,140.9v20.9v62.8v146.5c0,31.5,25.7,57.2,57.2,57.2h397.6c31.5,0,57.2-25.7,57.2-57.2V224.7c0,0,0,0,0,0V161.8
		z M481.3,371.1c0,14.6-11.9,26.5-26.5,26.5H57.2c-14.6,0-26.5-11.9-26.5-26.5V240h450.5L481.3,371.1z M57.2,114.4h397.6
		c14.6,0,26.5,11.9,26.5,26.5v5.6H30.7v-5.6C30.7,126.3,42.6,114.4,57.2,114.4z M481.3,209.2H30.7v-32h450.5l0,5.9L481.3,209.2z"/>
	<path d="M78.1,323.7h125.5c8.5,0,15.4-6.9,15.4-15.4s-6.9-15.4-15.4-15.4H78.1c-8.5,0-15.4,6.9-15.4,15.4S69.7,323.7,78.1,323.7z"
		/>
	<path d="M78.1,365.5h125.5c8.5,0,15.4-6.9,15.4-15.4c0-8.5-6.9-15.4-15.4-15.4H78.1c-8.5,0-15.4,6.9-15.4,15.4
		S69.7,365.5,78.1,365.5z"/>
	<path d="M392,365.5h20.9c20,0,36.3-16.3,36.3-36.3v-20.9c0-20-16.3-36.3-36.3-36.3H392c-20,0-36.3,16.3-36.3,36.3v20.9
		C355.7,349.2,372,365.5,392,365.5z M418.5,329.2c0,3.1-2.5,5.6-5.6,5.6H392c-3.1,0-5.6-2.5-5.6-5.6v-20.9c0-3.1,2.5-5.6,5.6-5.6
		h20.9c3.1,0,5.6,2.5,5.6,5.6V329.2z"/>
</g>
</svg>
