<svg width="20" height="20" viewBox="0 0 20 20" fill="none" xmlns="http://www.w3.org/2000/svg">
<path d="M18.6734 7.60374H18.2087C18.0351 7.00743 17.7974 6.4334 17.4989 5.88973L17.8273 5.56136C18.3445 5.04409 18.3445 4.20226 17.8273 3.68499L16.3147 2.17239C16.0641 1.92184 15.7309 1.78375 15.3766 1.78375C15.0221 1.78375 14.6888 1.92184 14.4383 2.17239L14.1099 2.50091C13.5663 2.20245 12.9924 1.96487 12.3964 1.79138V1.3269C12.3964 0.595244 11.8011 0 11.0695 0H8.93019C8.19868 0 7.60359 0.595092 7.60359 1.3266V1.79138C7.00758 1.96487 6.43355 2.20245 5.88988 2.50122L5.49361 2.10479C5.26122 1.8724 4.95223 1.74438 4.6234 1.74438C4.29473 1.74438 3.98559 1.8724 3.75335 2.10479L2.17269 3.6853C1.92215 3.936 1.78421 4.2691 1.78421 4.62356C1.78421 4.97786 1.92215 5.31112 2.17269 5.56167L2.50106 5.89003C2.2026 6.4337 1.96487 7.00743 1.79138 7.60374H1.3269C0.595244 7.60374 0 8.19899 0 8.93049V11.0698C0 11.8013 0.595092 12.3964 1.3266 12.3964H1.79138C1.96487 12.9925 2.2026 13.5664 2.50106 14.1102L2.10449 14.5067C1.62506 14.9865 1.62521 15.7672 2.10479 16.2466L3.6853 17.8273C4.20257 18.3445 5.04424 18.3445 5.56151 17.8273L5.89003 17.4987C6.43431 17.7975 7.0082 18.0352 7.6039 18.2086V18.7686C7.60359 19.0974 7.73146 19.4065 7.9637 19.6392C8.19624 19.8718 8.50538 20 8.83436 20H11.0698C11.8013 20 12.3964 19.4049 12.3964 18.6735V18.2086C12.9925 18.0351 13.5664 17.7975 14.1102 17.4987L14.4388 17.8273C14.956 18.3445 15.7977 18.3445 16.315 17.8273L17.8276 16.3147C18.3448 15.7974 18.3448 14.9557 17.8276 14.4384L17.4991 14.1098C17.7974 13.5664 18.0351 12.9925 18.2089 12.3959H18.7703C19.0986 12.3959 19.4073 12.2682 19.6395 12.0358C19.8719 11.8034 20 11.4944 20 11.1656V8.93019C20 8.19884 19.4049 7.60374 18.6734 7.60374ZM18.8281 11.1656C18.8281 11.1818 18.8223 11.1958 18.811 11.2073C18.7997 11.2184 18.786 11.224 18.7696 11.224C18.7696 11.224 18.7696 11.224 18.7695 11.224H17.8323C17.5168 11.224 17.2442 11.4386 17.1699 11.7453C16.9903 12.4846 16.6992 13.1877 16.3043 13.8353C16.14 14.1049 16.1812 14.4491 16.4042 14.6722L16.999 15.267C17.0594 15.3274 17.0594 15.4257 16.999 15.486L15.4864 16.9987C15.426 17.059 15.3277 17.0591 15.2675 16.9987L14.6724 16.4036C14.4491 16.1805 14.1049 16.1398 13.8354 16.3041C13.1875 16.6993 12.4846 16.9905 11.7459 17.1696C11.4389 17.2441 11.2245 17.5164 11.2245 17.8321V18.6735C11.2245 18.7588 11.1551 18.8281 11.0698 18.8281H8.83452C8.81819 18.8281 8.8043 18.8224 8.79286 18.811C8.78157 18.7997 8.77592 18.7858 8.77592 18.7692V17.8321C8.77592 17.5164 8.56154 17.2441 8.25453 17.1696C7.51677 16.9908 6.81365 16.6995 6.16515 16.3043C6.05452 16.2368 5.93154 16.2039 5.80931 16.2039C5.63338 16.2039 5.45943 16.2722 5.32775 16.4039L4.73296 16.9987C4.67269 17.0591 4.57442 17.0591 4.514 16.9987L2.9335 15.4182C2.91061 15.3953 2.91076 15.3579 2.93334 15.3352L3.59634 14.6727C3.81942 14.4494 3.86031 14.1052 3.69598 13.8354C3.30077 13.1875 3.00964 12.4846 2.83065 11.746C2.75619 11.439 2.48367 11.2245 2.16812 11.2245H1.32675C1.24145 11.2245 1.17203 11.1552 1.17203 11.0699V8.93065C1.17203 8.8452 1.24161 8.77562 1.32705 8.77562H2.16796C2.48352 8.77562 2.75604 8.56123 2.8305 8.25407C3.00949 7.51555 3.30062 6.81273 3.69567 6.16515C3.86031 5.89537 3.81942 5.55098 3.59603 5.32775L3.0014 4.73296C2.96386 4.69543 2.95593 4.6527 2.95593 4.62356C2.95593 4.59426 2.96386 4.55154 3.0014 4.514L4.5819 2.93334C4.60464 2.91061 4.64232 2.91076 4.66491 2.93319L5.32729 3.59588C5.55053 3.81942 5.89492 3.86031 6.16469 3.69582C6.81258 3.30062 7.51555 3.00949 8.25407 2.8305C8.56108 2.75604 8.77562 2.48352 8.77562 2.16796V1.3266C8.77562 1.2413 8.84489 1.17187 8.93019 1.17187H11.0695C11.1549 1.17187 11.2245 1.24145 11.2245 1.3269V2.16796C11.2245 2.48352 11.4389 2.75604 11.7459 2.8305C12.4844 3.00949 13.1874 3.30062 13.835 3.69537C14.1049 3.86016 14.4493 3.81911 14.6724 3.59573L15.2672 3.00094C15.3047 2.96356 15.3474 2.95562 15.3766 2.95562C15.4059 2.95562 15.4486 2.96356 15.4861 3.00094L16.9987 4.51369C17.0591 4.57397 17.0591 4.67223 16.9987 4.73266L16.4039 5.32744C16.1808 5.55053 16.1398 5.89476 16.3043 6.16469C16.6993 6.81258 16.9906 7.51555 17.1696 8.25407C17.2441 8.56108 17.5166 8.77562 17.8321 8.77562H18.6735C18.7588 8.77562 18.8282 8.84489 18.8282 8.93019V11.1656H18.8281Z" fill="#909090"/>
<path d="M12.2912 10C12.7254 9.59247 13 8.99656 13 8.33333C13 7.40264 12.4596 6.60424 11.6957 6.27385V5.55556C11.6957 5.24875 11.4621 5 11.1739 5C10.8858 5 10.6522 5.24875 10.6522 5.55556V6.11111H9.6087V5.55556C9.6087 5.24875 9.37512 5 9.08696 5C8.79879 5 8.56522 5.24875 8.56522 5.55556V6.11111H7.52174C7.23358 6.11111 7 6.35986 7 6.66667C7 6.97347 7.23358 7.22222 7.52174 7.22222H8.04348V10V12.7778H7.52174C7.23358 12.7778 7 13.0265 7 13.3333C7 13.6401 7.23358 13.8889 7.52174 13.8889H8.56522V14.4444C8.56522 14.7513 8.79879 15 9.08696 15C9.37512 15 9.6087 14.7513 9.6087 14.4444V13.8889H10.6522V14.4444C10.6522 14.7513 10.8858 15 11.1739 15C11.4621 15 11.6957 14.7513 11.6957 14.4444V13.7261C12.4596 13.3958 13 12.5974 13 11.6667C13 11.0034 12.7254 10.4075 12.2912 10ZM9.08696 7.22222H10.913C11.4884 7.22222 11.9565 7.72066 11.9565 8.33333C11.9565 8.94601 11.4884 9.44444 10.913 9.44444H9.08696V7.22222ZM10.913 12.7778H9.08696V10.5556H10.913C11.4884 10.5556 11.9565 11.054 11.9565 11.6667C11.9565 12.2793 11.4884 12.7778 10.913 12.7778Z" fill="#909090"/>
</svg>
