<svg width="20" height="20" viewBox="0 0 20 20" fill="none" xmlns="http://www.w3.org/2000/svg">
<path d="M9.99998 0C4.47715 0 0 4.47715 0 9.99998C0 15.5228 4.47715 20 9.99998 20C15.5228 20 20 15.5228 20 9.99998C19.9941 4.47961 15.5204 0.00590122 9.99998 0ZM9.99998 18.5714C5.26611 18.5714 1.42856 14.7338 1.42856 9.99998C1.42856 5.26611 5.26611 1.42856 9.99998 1.42856C14.7338 1.42856 18.5714 5.26611 18.5714 9.99998C18.5663 14.7318 14.7318 18.5663 9.99998 18.5714Z" fill="#909090"/>
<path d="M10.7145 9.28578H9.28591C8.49694 9.28578 7.85735 8.64619 7.85735 7.85722V7.14292C7.85735 6.35396 8.49694 5.71437 9.28591 5.71437H10.7145C11.5034 5.71437 12.143 6.35396 12.143 7.14292C12.143 7.53743 12.4628 7.85722 12.8573 7.85722C13.2518 7.85722 13.5716 7.53743 13.5716 7.14292C13.5716 5.56496 12.2924 4.28577 10.7145 4.28577V3.57148C10.7145 3.17697 10.3947 2.85718 10.0002 2.85718C9.60566 2.85718 9.28587 3.17697 9.28587 3.57148V4.28577C7.7079 4.28577 6.42871 5.56496 6.42871 7.14292V7.85722C6.42871 9.43519 7.7079 10.7144 9.28587 10.7144H10.7145C11.5034 10.7144 12.143 11.354 12.143 12.1429V12.8572C12.143 13.6461 11.5034 14.2857 10.7145 14.2857H9.28591C8.49694 14.2857 7.85735 13.6461 7.85735 12.8572C7.85735 12.4627 7.53756 12.1429 7.14305 12.1429C6.74855 12.1429 6.42875 12.4627 6.42875 12.8572C6.42875 14.4352 7.70794 15.7143 9.28591 15.7143V16.4286C9.28591 16.8231 9.6057 17.1429 10.0002 17.1429C10.3947 17.1429 10.7145 16.8231 10.7145 16.4286V15.7143C12.2924 15.7143 13.5716 14.4351 13.5716 12.8571V12.1428C13.5716 10.565 12.2924 9.28578 10.7145 9.28578Z" fill="#909090"/>
</svg>
