<svg width="20" height="20" viewBox="0 0 20 20" fill="none" xmlns="http://www.w3.org/2000/svg">
<path d="M16.4283 9.99978C16.0338 9.99978 15.7141 10.3196 15.7141 10.7141V17.8568C15.7141 18.2513 15.3943 18.5711 14.9998 18.5711H2.14283C1.74833 18.5711 1.42854 18.2513 1.42854 17.8568V3.5713C1.42854 3.1768 1.74833 2.85701 2.14283 2.85701H10.7141C11.1086 2.85701 11.4284 2.53721 11.4284 2.14271C11.4284 1.74822 11.1086 1.42847 10.7141 1.42847H2.14283C0.959376 1.42847 0 2.38784 0 3.5713V17.8568C0 19.0403 0.959376 19.9996 2.14283 19.9996H14.9998C16.1833 19.9996 17.1426 19.0403 17.1426 17.8568V10.714C17.1426 10.3196 16.8228 9.99978 16.4283 9.99978Z" fill="#727272"/>
<path d="M19.1994 0.800978C18.6866 0.288038 17.991 -7.24037e-05 17.2656 1.13006e-05C16.5399 -0.00208131 15.8435 0.286531 15.3321 0.801438L5.92361 10.2091C5.84556 10.2878 5.78667 10.3834 5.75148 10.4884L4.32294 14.7741C4.19826 15.1484 4.40061 15.5528 4.7749 15.6774C4.84751 15.7016 4.92356 15.714 5.00006 15.7141C5.07673 15.7139 5.15295 15.7016 5.22577 15.6777L9.51143 14.2491C9.61669 14.214 9.71232 14.1548 9.79071 14.0763L19.1991 4.66782C20.267 3.60009 20.2671 1.86884 19.1994 0.800978ZM18.1892 3.65852L8.90357 12.9441L6.12932 13.8705L7.05287 11.0998L16.342 1.81426C16.8527 1.30458 17.6799 1.30542 18.1896 1.8161C18.433 2.06006 18.5702 2.39031 18.5713 2.73497C18.5722 3.08146 18.4346 3.41393 18.1892 3.65852Z" fill="#727272"/>
</svg>
