<?xml version="1.0" encoding="utf-8"?>
<!-- Generator: Adobe Illustrator 25.2.0, SVG Export Plug-In . SVG Version: 6.00 Build 0)  -->
<svg version="1.1" id="Layer_1" xmlns="http://www.w3.org/2000/svg" xmlns:xlink="http://www.w3.org/1999/xlink" x="0px" y="0px"
	 viewBox="0 0 532 512.4" style="enable-background:new 0 0 532 512.4;" xml:space="preserve">
<g>
	<path d="M49.6,226.7c1.7,0.7,3.5,1,5.3,1c2,0,4-0.4,5.8-1.3l83.4-37.9c3.4-1.6,6-4.5,7.3-8.1c1.3-3.6,1-7.4-0.6-10.9
		c-3.3-6.9-11.4-9.9-18.4-6.8l-50.8,23.1c14-36.9,38.2-68.3,70.3-91.3C186.2,70,227.1,57,270.2,57c92,0,172.4,61.4,195.5,149.4
		c1,3.6,3.3,6.7,6.6,8.6c3.3,1.9,7.1,2.4,10.7,1.5c3.6-1,6.7-3.3,8.6-6.6c1.9-3.3,2.4-7.1,1.5-10.7
		C466.6,98.8,374.9,28.7,270.2,28.7c-49,0-95.6,14.8-134.9,42.9C98.6,97.8,71,133.6,54.9,175.7l-21.1-52.7c-1.2-3.5-3.7-6.4-7-8.1
		c-3.4-1.7-7.2-2-10.8-0.9s-6.5,3.7-8.2,7.1c-1.7,3.4-2,7.1-0.9,10.7c0.2,0.7,0.5,1.2,0.7,1.7l34,85.2
		C43.1,222.4,46,225.3,49.6,226.7z"/>
	<path d="M524.9,379.7l0-0.1l-34.3-86c-1.5-3.7-4.4-6.6-7.9-7.9c-3.5-1.4-7.6-1.3-11.2,0.3l-83.3,37.8c-3.5,1.4-6.2,4.2-7.6,7.7
		c-1.4,3.5-1.4,7.4,0,10.8c3,7.2,11.3,10.7,18.5,7.7l0.7-0.3l50.8-23.2c-14.1,36.9-38.3,68.3-70.5,91.3
		c-34.4,24.6-75.4,37.6-118.3,37.6c-92,0-172.4-61.4-195.5-149.4c-1-3.6-3.3-6.7-6.6-8.6c-3.3-1.9-7.1-2.4-10.7-1.5
		c-3.6,1-6.7,3.3-8.6,6.6c-1.9,3.3-2.4,7.1-1.5,10.7c26.3,100.4,118,170.5,222.9,170.5c49,0,95.6-14.8,134.8-42.9
		c36.6-26.2,64.3-62.1,80.4-104.2l21.1,52.7c1.3,3.5,3.9,6.4,7.3,8c3.4,1.6,7.3,1.8,10.8,0.5C523.7,395.2,527.5,387,524.9,379.7z"/>
</g>
</svg>
