<svg width="17" height="12" viewBox="0 0 17 12" fill="none" xmlns="http://www.w3.org/2000/svg">
<path d="M15.7985 4.85366C13.4166 1.92458 10.8448 0.4375 8.14742 0.4375C7.07878 0.4375 5.99728 0.67569 4.92864 1.14241C4.08854 1.51257 3.25488 2.02436 2.4534 2.66489C1.09829 3.74962 0.300037 4.83113 0.26785 4.8762C0.113348 5.08863 0.119786 5.37832 0.283943 5.58433C2.66262 8.51663 5.23764 10.0005 7.93498 10.0005C9.00361 10.0005 10.0851 9.7623 11.1538 9.29558C11.9939 8.92542 12.8275 8.41363 13.629 7.7731C14.9841 6.68837 15.7824 5.60686 15.8146 5.5618C15.9691 5.34936 15.9626 5.05967 15.7985 4.85366ZM12.879 6.88793C11.7589 7.77953 9.995 8.84173 7.93498 8.84173C5.7108 8.84173 3.54135 7.62181 1.48133 5.21417C1.80643 4.83113 2.4019 4.1906 3.20016 3.55328C4.32029 2.66168 6.08418 1.59948 8.1442 1.59948C10.3684 1.59948 12.5378 2.8194 14.5979 5.22704C14.2728 5.61008 13.6773 6.25383 12.879 6.88793Z" fill="#727272"/>
<path d="M10.1781 4.64118C9.85948 4.64118 9.59876 4.9019 9.59876 5.22056C9.59876 6.07997 8.90028 6.77844 8.04087 6.77844C7.18145 6.77844 6.48298 6.07997 6.48298 5.22056C6.48298 4.36114 7.18145 3.66267 8.04087 3.66267C8.35953 3.66267 8.62025 3.40195 8.62025 3.08329C8.62025 2.76463 8.35953 2.50391 8.04087 2.50391C6.54092 2.50391 5.32422 3.72382 5.32422 5.22056C5.32422 6.71729 6.54092 7.9372 8.04087 7.9372C9.54082 7.9372 10.7575 6.71729 10.7575 5.22056C10.7575 4.9019 10.4968 4.64118 10.1781 4.64118Z" fill="#727272"/>
<line x1="16.3312" y1="0.529999" x2="0.331248" y2="10.53" stroke="#727272" stroke-width="1.25" stroke-linejoin="round"/>
</svg>
