<?xml version="1.0" encoding="utf-8"?>
<!-- Generator: Adobe Illustrator 25.2.0, SVG Export Plug-In . SVG Version: 6.00 Build 0)  -->
<svg version="1.1" id="Слой_1" xmlns="http://www.w3.org/2000/svg" xmlns:xlink="http://www.w3.org/1999/xlink" x="0px" y="0px"
	 viewBox="0 0 16 16" style="enable-background:new 0 0 16 16;" xml:space="preserve">
<style type="text/css">
	.st0{fill:#727272;}
</style>
<g>
	<path class="st0" d="M15.8,7.6c-2.4-2.9-5-4.4-7.7-4.4C7,3.2,6,3.5,4.9,3.9C4,4.3,3.2,4.8,2.4,5.4C1.1,6.5,0.3,7.6,0.2,7.7
		c-0.2,0.2-0.1,0.5,0,0.7c2.4,2.9,5,4.4,7.7,4.4c1.1,0,2.2-0.2,3.2-0.7c0.8-0.4,1.7-0.9,2.5-1.5c1.4-1.1,2.2-2.2,2.2-2.2
		C15.9,8.1,15.9,7.8,15.8,7.6z M12.8,9.7c-1.1,0.9-2.9,2-4.9,2c-2.2,0-4.4-1.2-6.5-3.6c0.3-0.4,0.9-1,1.7-1.7c1.1-0.9,2.9-2,4.9-2
		c2.2,0,4.4,1.2,6.5,3.6C14.2,8.4,13.6,9,12.8,9.7z"/>
	<path class="st0" d="M10.1,7.4C9.8,7.4,9.6,7.7,9.6,8c0,0.9-0.7,1.6-1.6,1.6C7.1,9.6,6.4,8.9,6.4,8c0-0.9,0.7-1.6,1.6-1.6
		c0.3,0,0.6-0.3,0.6-0.6S8.3,5.3,8,5.3C6.5,5.3,5.3,6.5,5.3,8c0,1.5,1.2,2.7,2.7,2.7s2.7-1.2,2.7-2.7C10.7,7.7,10.5,7.4,10.1,7.4z"
		/>
</g>
</svg>
