<svg id="Layer_1" enable-background="new 0 0 511.759 511.759" height="512" viewBox="0 0 511.759 511.759" width="512" xmlns="http://www.w3.org/2000/svg"><path d="m448.68 19.809c-4.054 0-7.887 1.641-10.675 4.462-18.461 18.112-50.203 23.455-75.126-.078-30.955-32.26-86.642-32.258-117.598 0-21.504 20.903-53.646 20.947-75.202 0-30.956-32.259-86.643-32.258-117.598 0-.184.183-.362.371-.535.563-2.403 2.66-3.866 6.185-3.866 10.052v462.029c.793 19.902 29.215 19.887 30 0v-166.15c18.304-14.433 47.434-18.226 70.801 3.937 30.955 32.26 86.642 32.258 117.598 0 21.504-20.903 53.646-20.947 75.202 0 30.956 32.259 86.643 32.258 117.598 0 .184-.183.362-.371.535-.563 2.403-2.66 3.866-6.185 3.866-10.052v-289.2c0-8.284-6.716-15-15-15zm-304.2 276.096c-20.509-9.122-45.891-9.122-66.4 0v-61.631c18.55-15.424 47.85-15.423 66.4 0zm0-96.4c-20.509-9.122-45.891-9.122-66.4 0v-61.631c18.55-15.424 47.85-15.423 66.4 0zm0-96.4c-20.509-9.122-45.891-9.122-66.4 0v-61.631c18.55-15.424 47.85-15.423 66.4 0zm96.399 214.239c-18.548 15.424-47.852 15.424-66.4 0v-61.631c20.508 9.122 45.891 9.122 66.4 0zm0-96.399c-18.548 15.424-47.852 15.424-66.4 0v-61.631c20.508 9.122 45.891 9.122 66.4 0zm0-96.4c-18.548 15.424-47.852 15.424-66.4 0v-61.632c20.508 9.122 45.892 9.122 66.4 0zm96.4 171.36c-20.508-9.122-45.892-9.122-66.4 0v-61.631c18.549-15.424 47.851-15.423 66.4 0zm0-96.4c-20.509-9.122-45.891-9.122-66.4 0v-61.631c18.549-15.424 47.851-15.423 66.4 0zm0-96.4c-20.509-9.122-45.891-9.122-66.4 0v-61.631c18.549-15.424 47.851-15.423 66.4 0zm96.4 214.24c-18.549 15.423-47.852 15.424-66.4 0v-61.631c20.509 9.122 45.891 9.122 66.4 0zm0-96.4c-18.549 15.423-47.852 15.424-66.4 0v-61.631c20.509 9.122 45.891 9.122 66.4 0zm0-96.4c-18.549 15.423-47.852 15.424-66.4 0v-61.632c20.509 9.122 45.891 9.122 66.4 0z"/></svg>