<?xml version="1.0" encoding="utf-8"?>
<!-- Generator: Adobe Illustrator 25.2.0, SVG Export Plug-In . SVG Version: 6.00 Build 0)  -->
<svg version="1.1" id="Слой_1" xmlns="http://www.w3.org/2000/svg" xmlns:xlink="http://www.w3.org/1999/xlink" x="0px" y="0px"
	 viewBox="0 0 20 22" style="enable-background:new 0 0 20 22;" xml:space="preserve">
<style type="text/css">
	.st0{fill:#727272;}
</style>
<g>
	<path class="st0" d="M17.9,3.2H9.8L9.2,1.5C9.2,1.2,8.9,1,8.6,1H2.1C1,1,0,2,0,3.2V19c0,1.2,1,2.2,2.1,2.2h15.7
		c1.2,0,2.1-1,2.1-2.2V5.3C20,4.1,19,3.2,17.9,3.2z M18.6,19c0,0.4-0.3,0.7-0.7,0.7H2.1c-0.4,0-0.7-0.3-0.7-0.7V8.2h17.1V19H18.6z
		 M18.6,6.7H1.4V3.2c0-0.4,0.3-0.7,0.7-0.7H8l0.6,1.7C8.7,4.4,9,4.6,9.3,4.6h8.6c0.4,0,0.7,0.3,0.7,0.7C18.6,5.3,18.6,6.7,18.6,6.7z
		"/>
</g>
</svg>
