<?xml version="1.0" encoding="utf-8"?>
<!-- Generator: Adobe Illustrator 25.2.0, SVG Export Plug-In . SVG Version: 6.00 Build 0)  -->
<svg version="1.1" id="Layer_1" xmlns="http://www.w3.org/2000/svg" xmlns:xlink="http://www.w3.org/1999/xlink" x="0px" y="0px"
	 viewBox="0 0 533 512" style="enable-background:new 0 0 533 512;" xml:space="preserve">
<path d="M512.3,112.3c-82.5,0-129.2,20.5-134.3,22.8c-4.1,1.9-7.1,5.5-8.4,9.8c-0.1,0.5-0.3,1-0.4,1.5c-15.2-5.9-34.3-13.6-53.3-22
	c-39.8-17.8-66.3-12.3-94.5,9.3h-78.1c0.2-1.5,0.3-2.9,0.4-4.3c0.4-4.8-1.3-9.5-4.8-12.7c-19-18-87.8-23.9-116.6-25.6
	c-4.4-0.2-8.5,1.3-11.6,4.2C7.8,98.2,6,102.4,6,106.7v192c0,8.6,7,15.7,15.7,15.7h64c6.7,0,12.7-4.3,14.8-10.7l2.3,2.4
	c9.5,10,19.4,20.3,26.2,26c39.8,33.4,87.8,69.5,97.4,75.8c7.8,5.1,25.7,13.2,40.6,13.2c10.3,0,18.8-2.2,25.1-6.5
	c8.1,2.4,16.9,2,25.2-1.2c9.5-3.7,17.8-10.7,23.1-19.7c8.7,1,17.9-0.7,26.3-4.9c8.3-4.2,14.9-10.5,18.8-18.1
	c8.8-0.4,17.4-3.8,24.5-10c10.3-8.8,15.1-21.2,13.7-33.8l8.6-5.8c0.3,1.1,0.6,2.1,0.9,3.1c1.9,6.8,8.1,11.5,15.1,11.5h64
	c8.6,0,15.7-7,15.7-15.7V128C528,119.4,521,112.3,512.3,112.3z M406.6,158c17-5.3,47.7-12.6,90.1-14.1v160.4H460
	C449.1,269.7,423,194.8,406.6,158z M341.7,361.9c-0.1-0.1-0.1-0.1-0.2-0.2c-0.2-0.2-0.4-0.4-0.7-0.6v0
	c-11.7-9.4-41.9-41.2-51.6-51.7c-5.8-6.3-15.8-6.8-22.1-0.9c-3.1,2.8-4.9,6.7-5,10.9c-0.2,4.2,1.3,8.2,4.2,11.3l0.2,0.2
	c5.5,5.9,30.1,32.2,46.6,47.5c-1.7,2.5-4.2,4.6-6.9,5.7c-3.8,1.4-5.8,0.3-7.1-0.9c0,0-0.1-0.1-0.1-0.1c-0.1-0.1-0.2-0.2-0.3-0.3l0,0
	c-15-12.6-45.9-45.6-52-52.1c-2.9-3.1-6.8-4.8-11-5c-4.2-0.1-8.2,1.4-11.2,4.2c-6.3,5.9-6.6,15.8-0.8,22.1c5.8,6.2,20.7,22,34.8,36
	c-5.4-1.6-11.3-4.2-14.8-6.5c-7.5-4.9-54.3-39.9-94.5-73.6c-5.5-4.7-15.7-15.3-23.9-23.8c-5.4-5.6-10.3-10.7-14.1-14.5
	c8.6-28.6,20.3-69.8,27.3-104.7h50.1c-5.8,7.1-11.1,15.1-15.1,22.8c-7.6,14.7-10.2,28.2-7.7,39c2.6,11,10.3,19.1,21.6,22.8
	c25.6,8.5,49.3,0.8,67-21.6c6.1-1.1,10-2.7,15.3-5.1c1.2-0.5,2.6-1.2,4.4-1.9c12.3,11.3,28.3,24.3,44,36.9
	c29.4,23.8,66,53.4,73.5,69c0.7,1.5,2.9,6-1.9,10.1c-2.7,2.3-5.7,2.7-6.8,2.4c-7.5-6.2-36.4-35.6-61.8-62.1c-2.9-3-6.8-4.8-11-4.8
	c-4.2-0.1-8.2,1.5-11.2,4.4c-3,2.9-4.7,6.8-4.8,11c-0.1,4.2,1.5,8.2,4.4,11.2c10.6,11.1,42.1,43.7,58.2,58.9c-1.2,1.4-3,2.4-4,2.9
	C347.3,363.4,342.6,362.6,341.7,361.9z M337.7,233.4c-19.2-15.6-37.4-30.3-48.9-41.8c-4.3-4.3-10.7-5.7-16.4-3.7
	c-7,2.5-11.4,4.5-15,6.1l-0.5,0.2c-5.1,2.3-6.4,2.8-12.7,3.5c-4.7,0.5-8.9,3-11.5,6.9c-13.1,19.6-25.8,18.4-35.4,15.2
	c-0.5-0.2-0.8-0.3-1-0.4c-1.4-6.2,7.3-26,22.3-41c33.4-33.4,49.4-41.3,84.7-25.5c33.9,15.2,67.8,27.7,80.9,32.4
	c11.8,29.1,27.5,72.9,38.2,104.6l-12.5,8.4C393.9,278.9,365.5,255.9,337.7,233.4z M111.6,136.3c-6.2,44.9-28.8,119.4-37.4,146.7
	H37.3V123.5C69.4,126.3,98.4,131.4,111.6,136.3z"/>
</svg>
