<svg width="21" height="21" viewBox="0 0 21 21" fill="none" xmlns="http://www.w3.org/2000/svg">
<path d="M0.209303 9.96926L1.7086 8.46996L9.95895 0.219615C10.2518 -0.0732051 10.7266 -0.0732051 11.0195 0.219615L19.2699 8.46996L20.7699 9.97005C21.0577 10.268 21.0495 10.7428 20.7515 11.0306C20.4608 11.3113 20 11.3113 19.7094 11.0306L19.4904 10.8101V20.25C19.4904 20.6642 19.1546 21 18.7403 21H2.23962C1.82537 21 1.48957 20.6642 1.48957 20.25V10.8101L1.26984 11.0298C0.971874 11.3176 0.497068 11.3093 0.209303 11.0114C-0.0714321 10.7208 -0.0714321 10.2599 0.209303 9.96926ZM8.23986 19.5H12.7401V13.4997H8.23986V19.5ZM2.98967 19.5H6.73981V12.7497C6.73981 12.3354 7.07561 11.9996 7.48986 11.9996H13.4901C13.9043 11.9996 14.2402 12.3354 14.2402 12.7497V19.5H17.9903V9.31001L10.49 1.80967L2.98967 9.31001V19.5Z" fill="#727272"/>
</svg>
