<?xml version="1.0" encoding="utf-8"?>
<!-- Generator: Adobe Illustrator 25.2.0, SVG Export Plug-In . SVG Version: 6.00 Build 0)  -->
<svg version="1.1" id="light" xmlns="http://www.w3.org/2000/svg" xmlns:xlink="http://www.w3.org/1999/xlink" x="0px" y="0px"
	 viewBox="0 0 512 512" style="enable-background:new 0 0 512 512;" xml:space="preserve">
<g>
	<path d="M454.6,63H57.4C25.9,63,0.3,88.6,0.3,120.1v271.7c0,31.5,25.6,57.1,57.1,57.1h397.1c31.5,0,57.1-25.6,57.1-57.1V120.1
		C511.7,88.6,486.1,63,454.6,63z M481,120.1v271.7c0,14.6-11.9,26.5-26.5,26.5H57.4c-14.6,0-26.5-11.9-26.5-26.5V120.1
		c0-14.6,11.9-26.5,26.5-26.5h397.1C469.1,93.7,481,105.6,481,120.1z"/>
	<path d="M161.9,260.9c31.5,0,57.1-25.6,57.1-57.1s-25.6-57.1-57.1-57.1s-57.1,25.6-57.1,57.1S130.4,260.9,161.9,260.9z
		 M161.9,177.3c14.6,0,26.5,11.9,26.5,26.5s-11.9,26.5-26.5,26.5c-14.6,0-26.5-11.9-26.5-26.5S147.4,177.3,161.9,177.3z"/>
	<path d="M203.7,272h-83.6C88.6,272,63,297.6,63,329.2v20.9c0,8.5,6.9,15.3,15.3,15.3s15.3-6.9,15.3-15.3v-20.9
		c0-14.6,11.9-26.5,26.5-26.5h83.6c14.6,0,26.5,11.9,26.5,26.5v20.9c0,8.5,6.9,15.3,15.3,15.3c8.5,0,15.3-6.9,15.3-15.3v-20.9
		C260.9,297.6,235.3,272,203.7,272z"/>
	<path d="M433.7,167.5H308.3c-8.5,0-15.3,6.9-15.3,15.3c0,8.5,6.9,15.3,15.3,15.3h125.4c8.5,0,15.3-6.9,15.3-15.3
		C449,174.4,442.1,167.5,433.7,167.5z"/>
	<path d="M433.7,251.1H308.3c-8.5,0-15.3,6.9-15.3,15.3c0,8.5,6.9,15.3,15.3,15.3h125.4c8.5,0,15.3-6.9,15.3-15.3
		C449,258,442.1,251.1,433.7,251.1z"/>
	<path d="M433.7,334.7H308.3c-8.5,0-15.3,6.9-15.3,15.3c0,8.5,6.9,15.3,15.3,15.3h125.4c8.5,0,15.3-6.9,15.3-15.3
		C449,341.6,442.1,334.7,433.7,334.7z"/>
</g>
</svg>
