<?xml version="1.0" encoding="utf-8"?>
<!-- Generator: Adobe Illustrator 25.2.0, SVG Export Plug-In . SVG Version: 6.00 Build 0)  -->
<svg version="1.1" id="Capa_1" xmlns="http://www.w3.org/2000/svg" xmlns:xlink="http://www.w3.org/1999/xlink" x="0px" y="0px"
	 viewBox="0 0 512 512" style="enable-background:new 0 0 512 512;" xml:space="preserve">
<g>
	<path d="M443.6,0H68.4C30.7,0,0,30.7,0,68.4v375.3C0,481.3,30.7,512,68.4,512h375.3c37.7,0,68.4-30.7,68.4-68.4V68.4
		C512,30.7,481.3,0,443.6,0z M474.4,268.4L410.8,190c-7.7-9.5-19.1-15.3-31.4-15.9c-12.2-0.6-24.2,4-32.8,12.6L213.2,320.3l-48-39.9
		c-16.2-13.5-39.6-13.3-55.7,0.3l-72,61.3V68.4c0-17,13.8-30.8,30.8-30.8h375.3c17,0,30.8,13.8,30.8,30.8V268.4z M37.6,391.3
		l96.3-82c2.1-1.8,5.2-1.8,7.3,0l61.2,50.8c7.5,6.2,18.4,5.7,25.3-1.2l145.5-145.7c1.5-1.5,3.2-1.7,4.3-1.7c1.2,0.1,2.8,0.5,4.1,2.1
		L474.4,328l0,115.6c0,17-13.8,30.8-30.8,30.8H68.4c-17,0-30.8-13.8-30.8-30.8V391.3z"/>
	<path d="M162.6,62c-41.6,0-75.5,33.9-75.5,75.5s33.9,75.5,75.5,75.5s75.5-33.9,75.5-75.5S204.3,62,162.6,62z M200.6,137.6
		c0,20.9-17,38-38,38s-38-17-38-38s17-38,38-38S200.6,116.6,200.6,137.6z"/>
</g>
</svg>
