<svg width="21" height="21" viewBox="0 0 21 21" fill="none" xmlns="http://www.w3.org/2000/svg">
<path d="M19.4139 5.03326H15.8188V0.719049C15.8188 0.321923 15.4969 0 15.0997 0H0.719049C0.321923 0 0 0.321923 0 0.719049V17.2568C0 18.8453 1.28769 20.133 2.87615 20.133H17.2568C18.8453 20.133 20.133 18.8453 20.133 17.2568V5.75227C20.133 5.35518 19.8111 5.03326 19.4139 5.03326ZM2.87615 18.6949C2.08194 18.6949 1.4381 18.0511 1.4381 17.2568V1.43806H14.3807V17.2568C14.3825 17.4302 14.4 17.603 14.4332 17.7731C14.4404 17.8141 14.4483 17.8544 14.4577 17.8946C14.4932 18.0575 14.5427 18.217 14.6058 18.3713C14.6058 18.3785 14.613 18.385 14.6159 18.3915C14.6601 18.4955 14.7105 18.5969 14.7669 18.6949H2.87615V18.6949ZM18.6949 17.2568C18.6949 18.0511 18.0511 18.6949 17.2568 18.6949C16.4626 18.6949 15.8188 18.0511 15.8188 17.2568V6.47132H18.6949V17.2568H18.6949Z" fill="#727272"/>
<path d="M10.0665 3.59521H5.75225C5.35513 3.59521 5.0332 3.91714 5.0332 4.31426C5.0332 4.71139 5.35513 5.03331 5.75225 5.03331H10.0665C10.4636 5.03331 10.7855 4.71139 10.7855 4.31426C10.7855 3.91714 10.4636 3.59521 10.0665 3.59521Z" fill="#727272"/>
<path d="M12.2234 7.19043H3.59503C3.1979 7.19043 2.87598 7.51235 2.87598 7.90948C2.87598 8.3066 3.1979 8.62853 3.59503 8.62853H12.2234C12.6206 8.62853 12.9425 8.3066 12.9425 7.90948C12.9425 7.51235 12.6206 7.19043 12.2234 7.19043Z" fill="#727272"/>
<path d="M12.2234 10.0664H3.59503C3.1979 10.0664 2.87598 10.3883 2.87598 10.7855C2.87598 11.1826 3.1979 11.5045 3.59503 11.5045H12.2234C12.6206 11.5045 12.9425 11.1826 12.9425 10.7855C12.9425 10.3883 12.6206 10.0664 12.2234 10.0664Z" fill="#727272"/>
<path d="M12.2234 12.9426H3.59503C3.1979 12.9426 2.87598 13.2645 2.87598 13.6617C2.87598 14.0588 3.1979 14.3807 3.59503 14.3807H12.2234C12.6206 14.3807 12.9425 14.0588 12.9425 13.6617C12.9425 13.2645 12.6206 12.9426 12.2234 12.9426Z" fill="#727272"/>
<path d="M12.2234 15.8188H3.59503C3.1979 15.8188 2.87598 16.1408 2.87598 16.5379C2.87598 16.935 3.19794 17.2569 3.59503 17.2569H12.2234C12.6206 17.2569 12.9425 16.935 12.9425 16.5379C12.9425 16.1407 12.6206 15.8188 12.2234 15.8188Z" fill="#727272"/>
</svg>
