<svg width="20" height="16" viewBox="0 0 20 16" fill="none" xmlns="http://www.w3.org/2000/svg">
<path d="M18.125 0H1.87501C0.841067 0 0 0.897137 0 2.00001V14C0 15.1029 0.841067 16 1.87501 16H18.125C19.1589 16 20 15.1029 20 14V2.00001C20 0.897137 19.1589 0 18.125 0ZM18.125 1.33333C18.2099 1.33333 18.2907 1.35212 18.3645 1.38494L10 9.11784L1.63542 1.38494C1.70927 1.35216 1.79005 1.33333 1.87497 1.33333H18.125ZM18.125 14.6666H1.87501C1.53017 14.6666 1.24999 14.3678 1.24999 13.9999V2.79361L9.59045 10.5039C9.70826 10.6126 9.85413 10.6667 10 10.6667C10.1459 10.6667 10.2917 10.6126 10.4096 10.5039L18.75 2.79361V14C18.75 14.3678 18.4698 14.6666 18.125 14.6666Z" fill="#909090"/>
</svg>
