<?xml version="1.0" encoding="utf-8"?>
<!-- Generator: Adobe Illustrator 25.2.0, SVG Export Plug-In . SVG Version: 6.00 Build 0)  -->
<svg version="1.1" id="Capa_1" xmlns="http://www.w3.org/2000/svg" xmlns:xlink="http://www.w3.org/1999/xlink" x="0px" y="0px"
	 viewBox="0 0 452 442" style="enable-background:new 0 0 452 442;" xml:space="preserve">
<g>
	<path d="M176,332.5H75c-7.4,0-13.5,6.1-13.5,13.5s6.1,13.5,13.5,13.5h101c7.4,0,13.5-6.1,13.5-13.5S183.4,332.5,176,332.5z"/>
	<path d="M327,332.5H226c-7.4,0-13.5,6.1-13.5,13.5s6.1,13.5,13.5,13.5h101c7.4,0,13.5-6.1,13.5-13.5S334.4,332.5,327,332.5z"/>
	<path d="M327,82.5H75c-7.4,0-13.5,6.1-13.5,13.5s6.1,13.5,13.5,13.5h252c7.4,0,13.5-6.1,13.5-13.5S334.4,82.5,327,82.5z"/>
	<path d="M327,132.5H226c-7.4,0-13.5,6.1-13.5,13.5s6.1,13.5,13.5,13.5h101c7.4,0,13.5-6.1,13.5-13.5S334.4,132.5,327,132.5z"/>
	<path d="M327,182.5H226c-7.4,0-13.5,6.1-13.5,13.5s6.1,13.5,13.5,13.5h101c7.4,0,13.5-6.1,13.5-13.5S334.4,182.5,327,182.5z"/>
	<path d="M327,232.5H226c-7.4,0-13.5,6.1-13.5,13.5s6.1,13.5,13.5,13.5h101c7.4,0,13.5-6.1,13.5-13.5S334.4,232.5,327,232.5z"/>
	<path d="M327,282.5H226c-7.4,0-13.5,6.1-13.5,13.5s6.1,13.5,13.5,13.5h101c7.4,0,13.5-6.1,13.5-13.5S334.4,282.5,327,282.5z"/>
	<path d="M176,282.5H75c-7.4,0-13.5,6.1-13.5,13.5s6.1,13.5,13.5,13.5h101c7.4,0,13.5-6.1,13.5-13.5S183.4,282.5,176,282.5z"/>
	<path d="M176,132.5H75c-7.4,0-13.5,6.1-13.5,13.5v101c0,7.4,6.1,13.5,13.5,13.5h101c7.4,0,13.5-6.1,13.5-13.5V146
		C189.5,138.6,183.4,132.5,176,132.5z M162.5,159.5v74h-74v-74H162.5z"/>
	<path d="M427,72.5h-26.5V46c0-13-10.5-23.5-23.5-23.5H25C12,22.5,1.5,33,1.5,46v320c0,29.5,24,53.5,53.5,53.5h342
		c29.5,0,53.5-24,53.5-53.5V96C450.5,83,440,72.5,427,72.5z M397,392.5H55c-14.6,0-26.5-11.9-26.5-26.5V49.5h345V351
		c0,15.7,12.8,28.5,28.5,28.5c7.4,0,13.5-6.1,13.5-13.5s-6.1-13.5-13.5-13.5c-0.8,0-1.5-0.7-1.5-1.5V99.5h23V366
		C423.5,380.6,411.6,392.5,397,392.5z"/>
</g>
</svg>
