<svg width="20" height="20" viewBox="0 0 20 20" fill="none" xmlns="http://www.w3.org/2000/svg">
<path d="M13.1121 4.35213L14.2493 0.94001C14.374 0.565722 14.1716 0.161258 13.7973 0.0366211C13.7244 0.0123465 13.6482 1.64327e-08 13.5714 1.64327e-08H6.42857C6.03406 -8.36889e-05 5.71418 0.319629 5.7141 0.714132C5.7141 0.79089 5.72645 0.867187 5.75072 0.94001L6.88786 4.35213C2.95743 4.84361 0.00606863 8.18182 0 12.1428V16.4285C0.00234375 18.4 1.59994 19.9976 3.57141 20H16.4285C18.4 19.9976 19.9976 18.4 20 16.4285V12.1428C19.9939 8.18182 17.0426 4.84361 13.1121 4.35213ZM12.5807 1.42856L11.6278 4.28571H8.37212L7.41926 1.42856H12.5807ZM18.5714 16.4285C18.5714 17.612 17.612 18.5714 16.4285 18.5714H3.57141C2.38794 18.5714 1.42856 17.612 1.42856 16.4285V12.1428C1.43287 8.59423 4.30852 5.71858 7.85712 5.71427H12.1428C15.6914 5.71858 18.5671 8.59423 18.5714 12.1428V16.4285Z" fill="#909090"/>
<path d="M10.714 11.4285H9.28548C8.89098 11.4285 8.57118 11.1087 8.57118 10.7142V9.99992C8.57118 9.60542 8.89098 9.28562 9.28548 9.28562H10.714C11.1085 9.28562 11.4283 9.60542 11.4283 9.99992C11.4283 10.3944 11.7481 10.7142 12.1426 10.7142C12.5371 10.7142 12.8569 10.3944 12.8569 9.99992C12.8569 8.81645 11.8975 7.85707 10.714 7.85707V7.14277C10.714 6.74826 10.3942 6.42847 9.99974 6.42847C9.60524 6.42847 9.28544 6.74826 9.28544 7.14277V7.85707C8.10197 7.85707 7.14258 8.81645 7.14258 9.99992V10.7142C7.14258 11.8977 8.10197 12.8571 9.28544 12.8571H10.714C11.1085 12.8571 11.4283 13.1769 11.4283 13.5714V14.2857C11.4283 14.6802 11.1085 15 10.714 15H9.28548C8.89098 15 8.57118 14.6802 8.57118 14.2857C8.57118 13.8912 8.25138 13.5714 7.85688 13.5714C7.46238 13.5714 7.14258 13.8912 7.14258 14.2857C7.14258 15.4691 8.10197 16.4285 9.28544 16.4285V17.1428C9.28544 17.5373 9.60524 17.8571 9.99974 17.8571C10.3942 17.8571 10.714 17.5373 10.714 17.1428V16.4285C11.8975 16.4285 12.8569 15.4691 12.8569 14.2856V13.5713C12.8569 12.3879 11.8975 11.4285 10.714 11.4285Z" fill="#909090"/>
</svg>
