<?xml version="1.0" encoding="utf-8"?>
<!-- Generator: Adobe Illustrator 25.2.0, SVG Export Plug-In . SVG Version: 6.00 Build 0)  -->
<svg version="1.1" id="Слой_1" xmlns="http://www.w3.org/2000/svg" xmlns:xlink="http://www.w3.org/1999/xlink" x="0px" y="0px"
	 width="21px" height="21px" viewBox="0 0 21 21" style="enable-background:new 0 0 21 21;" xml:space="preserve">
<style type="text/css">
	.st0{fill:#727272;}
</style>
<path class="st0" d="M11.1,11.1H9.9c-0.3,0-0.6-0.3-0.6-0.6V9.8c0-0.3,0.3-0.6,0.6-0.6h1.2c0.3,0,0.6,0.3,0.6,0.6
	c0,0.3,0.3,0.6,0.6,0.6c0.3,0,0.6-0.3,0.6-0.6c0-1-0.8-1.9-1.9-1.9V7.3c0-0.3-0.3-0.6-0.6-0.6S9.9,7,9.9,7.3V8C8.8,8,8,8.8,8,9.8
	v0.6c0,1,0.8,1.9,1.9,1.9h1.2c0.3,0,0.6,0.3,0.6,0.6v0.6c0,0.3-0.3,0.6-0.6,0.6H9.9c-0.3,0-0.6-0.3-0.6-0.6C9.3,13.2,9,13,8.6,13
	C8.3,13,8,13.2,8,13.6c0,1,0.8,1.9,1.9,1.9v0.6c0,0.3,0.3,0.6,0.6,0.6s0.6-0.3,0.6-0.6v-0.6c1,0,1.9-0.8,1.9-1.9V13
	C13,11.9,12.2,11.1,11.1,11.1z"/>
<path class="st0" d="M20,9.7c-0.1-0.5-0.5-0.8-1-0.8c-0.2,0-0.4,0.2-0.6,0.4c-0.1,0.2-0.2,0.4-0.2,0.7c0.4,2.1-0.1,4.2-1.4,5.9
	c-1.2,1.7-3.1,2.9-5.1,3.2c-2.1,0.4-4.2-0.1-5.9-1.4c-1.7-1.2-2.9-3-3.2-5.1c-0.4-2.1,0.1-4.2,1.4-5.9C5.2,5,7,3.8,9.1,3.5
	c2.6-0.4,5.2,0.4,7,2.3l-3,1c-0.2,0.1-0.4,0.2-0.5,0.5c-0.1,0.2-0.1,0.5,0,0.7c0.1,0.2,0.2,0.4,0.5,0.5c0.2,0.1,0.5,0.1,0.7,0L18,7
	c0.4-0.1,0.6-0.5,0.6-0.9V1.7c0-0.5-0.4-0.9-0.9-0.9c-0.5,0-0.9,0.4-0.9,0.9V4c-1.8-1.6-4.2-2.5-6.6-2.4c-2.6,0.1-5,1.1-6.7,3
	c-3.7,3.8-3.5,10,0.3,13.6c1.8,1.7,4.2,2.6,6.6,2.6c2.7,0,5.1-1.1,7-3C19.6,15.7,20.5,12.6,20,9.7z"/>
</svg>
