<?xml version="1.0" encoding="utf-8"?>
<!-- Generator: Adobe Illustrator 25.2.0, SVG Export Plug-In . SVG Version: 6.00 Build 0)  -->
<svg version="1.1" id="Слой_1" xmlns="http://www.w3.org/2000/svg" xmlns:xlink="http://www.w3.org/1999/xlink" x="0px" y="0px"
	 viewBox="0 0 27.8 23.6" style="enable-background:new 0 0 27.8 23.6;" xml:space="preserve">
<style type="text/css">
	.st0{fill:#909090;}
</style>
<g>
	<g>
		<path class="st0" d="M13.9,0.2c-5.5,0-10,4.5-10,10c0,5.5,4.5,10,10,10c5.5,0,10-4.5,10-10C23.9,4.7,19.4,0.2,13.9,0.2z
			 M13.9,18.8c-4.7,0-8.6-3.8-8.6-8.6c0-4.7,3.8-8.6,8.6-8.6c4.7,0,8.6,3.8,8.6,8.6C22.5,14.9,18.6,18.8,13.9,18.8z"/>
		<path class="st0" d="M14.6,9.5h-1.4c-0.8,0-1.4-0.6-1.4-1.4V7.3c0-0.8,0.6-1.4,1.4-1.4h1.4c0.8,0,1.4,0.6,1.4,1.4
			c0,0.4,0.3,0.7,0.7,0.7c0.4,0,0.7-0.3,0.7-0.7c0-1.6-1.3-2.9-2.9-2.9V3.8c0-0.4-0.3-0.7-0.7-0.7c-0.4,0-0.7,0.3-0.7,0.7v0.7
			c-1.6,0-2.9,1.3-2.9,2.9v0.7c0,1.6,1.3,2.9,2.9,2.9h1.4c0.8,0,1.4,0.6,1.4,1.4v0.7c0,0.8-0.6,1.4-1.4,1.4h-1.4
			c-0.8,0-1.4-0.6-1.4-1.4c0-0.4-0.3-0.7-0.7-0.7c-0.4,0-0.7,0.3-0.7,0.7c0,1.6,1.3,2.9,2.9,2.9v0.7c0,0.4,0.3,0.7,0.7,0.7
			c0.4,0,0.7-0.3,0.7-0.7v-0.7c1.6,0,2.9-1.3,2.9-2.9v-0.7C17.5,10.8,16.2,9.5,14.6,9.5z"/>
	</g>
	<g>
		<path class="st0" d="M26.7,15.2h-2.5c-0.3,0.5-0.5,1-0.9,1.5H26v5.1H1.8v-5.1h2.6c-0.3-0.5-0.6-1-0.9-1.5H1
			c-0.4,0-0.8,0.3-0.8,0.8v6.6c0,0.4,0.3,0.8,0.8,0.8h25.7c0.4,0,0.8-0.3,0.8-0.8v-6.6C27.5,15.5,27.1,15.2,26.7,15.2z"/>
	</g>
</g>
</svg>
