<svg width="21" height="21" viewBox="0 0 21 21" fill="none" xmlns="http://www.w3.org/2000/svg">
<path d="M19.9313 3.80745L16.3344 0.210636C16.0535 -0.0702119 15.5982 -0.0702119 15.3173 0.210636L13.6677 1.86015L12.0182 0.210636C11.7373 -0.0702119 11.282 -0.0702119 11.0011 0.210636L5.96549 5.24621C5.67971 5.52221 5.67178 5.97765 5.94783 6.26338C6.22383 6.54916 6.67922 6.55709 6.965 6.28104C6.97098 6.27527 6.97689 6.26937 6.98266 6.26338L11.5097 1.73639L12.6506 2.87732L0.929954 14.5979C0.823988 14.704 0.753807 14.8406 0.729234 14.9885L0.0098534 19.3047C-0.0553111 19.6967 0.209604 20.0672 0.601518 20.1324C0.640381 20.1388 0.679749 20.1421 0.71916 20.1421C0.75895 20.1419 0.798613 20.1386 0.837855 20.132L5.15405 19.4127C5.30175 19.388 5.43802 19.3178 5.54394 19.2119L19.9312 4.82462C20.2121 4.54373 20.2121 4.08838 19.9313 3.80745ZM4.69006 18.0315L1.59677 18.5473L2.11328 15.454L7.91279 9.64941L10.4924 12.229L4.69006 18.0315ZM11.5097 11.2119L8.93001 8.63223L15.8258 1.73639L18.4055 4.31604L11.5097 11.2119Z" fill="#727272"/>
</svg>
