<svg width="20" height="20" viewBox="0 0 20 20" fill="none" xmlns="http://www.w3.org/2000/svg">
<path d="M15.7918 12.3887C15.3823 11.9624 14.8884 11.7344 14.365 11.7344C13.8458 11.7344 13.3477 11.9581 12.9214 12.3845L11.5875 13.7141C11.4778 13.655 11.368 13.6002 11.2625 13.5453C11.1105 13.4693 10.967 13.3975 10.8446 13.3216C9.59513 12.528 8.45964 11.4938 7.37059 10.1557C6.84295 9.48877 6.48837 8.92736 6.23088 8.35751C6.57702 8.04092 6.89782 7.71167 7.21019 7.39509C7.32838 7.2769 7.44657 7.15448 7.56476 7.03629C8.4512 6.14985 8.4512 5.00171 7.56476 4.11527L6.41239 2.9629C6.28154 2.83204 6.14646 2.69696 6.01983 2.56189C5.76656 2.30018 5.50063 2.03003 5.22625 1.77676C4.8168 1.37153 4.32715 1.15625 3.81217 1.15625C3.29719 1.15625 2.7991 1.37153 2.37698 1.77676C2.37276 1.78098 2.37276 1.78098 2.36854 1.7852L0.933356 3.23305C0.39305 3.77335 0.0849075 4.43185 0.0173694 5.19588C-0.0839379 6.42845 0.27908 7.5766 0.557675 8.32796C1.2415 10.1726 2.26301 11.8822 3.78684 13.7141C5.6357 15.9218 7.86024 17.6651 10.4014 18.8935C11.3722 19.3536 12.6681 19.8981 14.116 19.991C14.2046 19.9952 14.2975 19.9994 14.3819 19.9994C15.357 19.9994 16.1759 19.649 16.8175 18.9526C16.8217 18.9441 16.8302 18.9399 16.8344 18.9315C17.0539 18.6655 17.3071 18.4249 17.5731 18.1674C17.7546 17.9944 17.9403 17.8129 18.1218 17.6229C18.5397 17.1881 18.7592 16.6816 18.7592 16.1624C18.7592 15.639 18.5355 15.1367 18.1092 14.7145L15.7918 12.3887ZM17.3029 16.8336C17.2987 16.8336 17.2987 16.8378 17.3029 16.8336C17.1383 17.0108 16.9695 17.1712 16.7879 17.3485C16.5136 17.6102 16.235 17.8846 15.9733 18.1928C15.5469 18.6486 15.0446 18.8639 14.3861 18.8639C14.3228 18.8639 14.2553 18.8639 14.1919 18.8597C12.9383 18.7795 11.7732 18.2898 10.8995 17.872C8.5103 16.7154 6.41239 15.0733 4.66906 12.9923C3.22965 11.2574 2.26724 9.6534 1.62984 7.93117C1.23728 6.88011 1.09376 6.06121 1.15708 5.28874C1.19929 4.79487 1.38924 4.38542 1.73959 4.03507L3.179 2.59566C3.38584 2.40149 3.60534 2.29596 3.82061 2.29596C4.08655 2.29596 4.30182 2.45636 4.4369 2.59144C4.44112 2.59566 4.44534 2.59988 4.44956 2.6041C4.70705 2.8447 4.95188 3.09375 5.20937 3.35968C5.34022 3.49476 5.4753 3.62984 5.61038 3.76913L6.76275 4.9215C7.21019 5.36894 7.21019 5.78262 6.76275 6.23006C6.64033 6.35247 6.52214 6.47488 6.39973 6.59307C6.04515 6.95609 5.70746 7.29378 5.34022 7.62303C5.33178 7.63147 5.32334 7.63569 5.31912 7.64414C4.9561 8.00715 5.02364 8.36173 5.09962 8.60233C5.10384 8.615 5.10806 8.62766 5.11228 8.64032C5.41198 9.36636 5.8341 10.0502 6.47571 10.8649L6.47993 10.8691C7.64496 12.3043 8.87331 13.4229 10.2283 14.2798C10.4014 14.3895 10.5787 14.4782 10.7475 14.5626C10.8995 14.6386 11.043 14.7103 11.1654 14.7863C11.1823 14.7947 11.1992 14.8074 11.216 14.8158C11.3596 14.8876 11.4946 14.9214 11.6339 14.9214C11.9843 14.9214 12.2038 14.7019 12.2756 14.6301L13.7192 13.1865C13.8627 13.043 14.0906 12.8699 14.3566 12.8699C14.6183 12.8699 14.8336 13.0345 14.9644 13.178C14.9686 13.1823 14.9686 13.1823 14.9729 13.1865L17.2987 15.5123C17.7335 15.9429 17.7335 16.3861 17.3029 16.8336Z" fill="#909090"/>
<path d="M10.7933 4.7574C11.8992 4.94313 12.9038 5.46656 13.7058 6.26857C14.5079 7.07059 15.0271 8.07522 15.217 9.18116C15.2634 9.45975 15.504 9.65392 15.7784 9.65392C15.8122 9.65392 15.8417 9.6497 15.8755 9.64548C16.1879 9.59483 16.3947 9.29935 16.344 8.98698C16.1161 7.64888 15.4829 6.42897 14.5163 5.46233C13.5497 4.49569 12.3298 3.86252 10.9917 3.63458C10.6793 3.58393 10.3881 3.79076 10.3332 4.09891C10.2783 4.40705 10.4809 4.70675 10.7933 4.7574Z" fill="#909090"/>
<path d="M19.962 8.82242C19.5863 6.61899 18.5479 4.61395 16.9523 3.01836C15.3567 1.42277 13.3517 0.384369 11.1482 0.00868772C10.8401 -0.0461871 10.5488 0.16487 10.494 0.473013C10.4433 0.785377 10.6501 1.07664 10.9625 1.13151C12.9295 1.46498 14.7235 2.39785 16.1503 3.82037C17.577 5.24712 18.5057 7.0411 18.8391 9.00815C18.8856 9.28675 19.1262 9.48092 19.4006 9.48092C19.4343 9.48092 19.4639 9.4767 19.4976 9.47248C19.8058 9.42604 20.0168 9.13056 19.962 8.82242Z" fill="#909090"/>
</svg>
