<?xml version="1.0" encoding="utf-8"?>
<!-- Generator: Adobe Illustrator 25.2.0, SVG Export Plug-In . SVG Version: 6.00 Build 0)  -->
<svg version="1.1" id="Capa_1" xmlns="http://www.w3.org/2000/svg" xmlns:xlink="http://www.w3.org/1999/xlink" x="0px" y="0px"
	 viewBox="0 0 512 512" style="enable-background:new 0 0 512 512;" xml:space="preserve">
<g>
	<path d="M226.9,222.1c-8,0-14.5-6.5-14.5-14.5c0-8,6.5-14.5,14.5-14.5c5.9,0,11.2,3.5,13.4,8.9c1.5,3.6,4.3,6.4,7.9,7.8
		c3.6,1.5,7.5,1.5,11.1,0c3.6-1.5,6.4-4.3,7.8-7.9c1.5-3.6,1.5-7.5,0-11.1c-4.8-11.6-14.1-20.3-25.7-24.3v-7.3
		c0-8-6.5-14.5-14.5-14.5c-8,0-14.5,6.5-14.5,14.5v7.3c-17.3,6.1-29.1,22.5-29.1,41.1c0,24,19.6,43.6,43.6,43.6
		c8,0,14.5,6.5,14.5,14.5c0,8-6.5,14.5-14.5,14.5c-5.9,0-11.2-3.5-13.4-8.9c-1.5-3.6-4.3-6.4-7.9-7.8c-3.6-1.5-7.5-1.5-11.1,0
		c-3.6,1.5-6.4,4.3-7.8,7.9c-1.5,3.6-1.5,7.5,0,11.1c4.8,11.6,14.1,20.3,25.7,24.3v7.3c0,8,6.5,14.5,14.5,14.5
		c8,0,14.5-6.5,14.5-14.5v-7.3c17.3-6.1,29.1-22.5,29.1-41.1C270.5,241.6,251,222.1,226.9,222.1z"/>
	<path d="M494.4,202.7h-33.7c-6.4-17.9-16-35-28.7-50.9c1.6-22.6,7.3-44.1,17.2-63.7c2.3-4.5,2-9.8-0.6-14.1
		c-2.7-4.3-7.3-6.9-12.4-6.9c-27.4,0-53.5,10.1-73.9,28.5C326.4,77.3,280.8,67,236.6,67c-36.9,0-72.3,7-105.3,20.7
		c-29.4,12.2-55.9,29.8-76.9,50.8c-1-1-2-1.9-3-2.8l-0.1-0.1c-18.2-17.1-19.3-18.9-19.3-25c0-8,6.5-14.5,14.5-14.5
		c3.9,0,7.5,1.5,10.3,4.3c2.7,2.7,6.4,4.3,10.3,4.3c0,0,0,0,0,0c3.9,0,7.5-1.5,10.3-4.3c5.7-5.7,5.7-14.9,0-20.6
		C69.2,71.5,58.3,67,46.6,67C22.6,67,3,86.6,3,110.6c0,19.4,9.5,28.4,28.4,46.2c1.3,1.2,2.6,2.5,4,3.8C14.2,189.4,3,222.3,3,256
		c0,55.6,18,82.5,34,106.2c13.5,20.1,24.2,36,24.2,68.2c0,8,6.5,14.5,14.5,14.5h58.2c8,0,14.5-6.5,14.5-14.5v-18.1
		c17,5.1,50,13.3,88.2,13.3c22.5,0,47.2-2.8,68.8-7.6v12.5c0,8,6.5,14.5,14.5,14.5h58.2c8,0,14.5-6.5,14.5-14.5v-0.1
		c0-20.1,4.8-40.5,13.8-59.1c8-16.5,19.1-31.2,32.1-42.7c39.6-2.8,70.4-35.8,70.4-75.7v-35.6C509,209.2,502.4,202.7,494.4,202.7z
		 M328.5,387.3c-3.8-2.8-8.5-3.5-13-2.1c-21.8,7-52.1,11.3-78.9,11.3c-39.7,0-77.1-9.8-97.1-18.2c-4.5-1.9-9.6-1.4-13.7,1.3
		c-4.1,2.7-6.5,7.2-6.5,12.1v24.2H89.6c-3.1-32.1-16-51.3-28.4-69.9c-14.3-21.3-29-43.3-29-90c0-44,22.8-84.9,64.1-115.2
		c38.8-28.4,89.9-44.7,140.4-44.7c42.9,0,87.8,11,120.2,29.4c5.9,4,14,3,18.9-2.3c10.4-11.4,23.2-19.5,37.5-23.8
		c-6.1,18-9.6,37-10.3,56.7c-0.1,3.6,1.1,7.2,3.4,10c14.4,17,24.5,35.5,29.9,55.1c1.7,6.3,7.5,10.6,14,10.6h29.8v21
		c0,25.8-21,46.8-46.8,46.8c-3.1,0-6.2,1-8.7,2.9c-2.2,1.7-53.9,41.1-60.2,113.4h-29.7V399C334.5,394.3,332.3,390.1,328.5,387.3z"/>
	<circle cx="378.1" cy="236.6" r="33.9"/>
</g>
</svg>
