<svg width="20" height="18" viewBox="0 0 20 18" fill="none" xmlns="http://www.w3.org/2000/svg">
<path d="M19.4177 2.55484C19.4165 2.55484 19.4153 2.55469 19.4141 2.55469H14.1016V1.96875C14.1016 0.999512 13.313 0.210938 12.3438 0.210938H7.65625C6.68701 0.210938 5.89844 0.999512 5.89844 1.96875V2.55469H0.585938C0.259705 2.55469 0 2.82202 0 3.14062V16.0312C0 17.0005 0.788574 17.7891 1.75781 17.7891H18.2422C19.2114 17.7891 20 17.0005 20 16.0312V3.15298C20 3.15222 20 3.15146 20 3.1507C19.9776 2.76587 19.7409 2.55698 19.4177 2.55484ZM7.07031 1.96875C7.07031 1.64572 7.33322 1.38281 7.65625 1.38281H12.3438C12.6668 1.38281 12.9297 1.64572 12.9297 1.96875V2.55469H7.07031V1.96875ZM18.6011 3.72656L16.7815 9.18524C16.7017 9.42496 16.4783 9.58594 16.2257 9.58594H12.9297V9C12.9297 8.67636 12.6674 8.41406 12.3438 8.41406H7.65625C7.33261 8.41406 7.07031 8.67636 7.07031 9V9.58594H3.77426C3.52173 9.58594 3.29834 9.42496 3.21854 9.18524L1.39893 3.72656H18.6011ZM11.7578 9.58594V10.7578H8.24219V9.58594H11.7578ZM18.8281 16.0312C18.8281 16.3543 18.5652 16.6172 18.2422 16.6172H1.75781C1.43478 16.6172 1.17188 16.3543 1.17188 16.0312V6.75131L2.10678 9.55588C2.34634 10.2749 3.01651 10.7578 3.77426 10.7578H7.07031V11.3438C7.07031 11.6674 7.33261 11.9297 7.65625 11.9297H12.3438C12.6674 11.9297 12.9297 11.6674 12.9297 11.3438V10.7578H16.2257C16.9835 10.7578 17.6537 10.2749 17.8932 9.55588L18.8281 6.75131V16.0312Z" fill="#909090"/>
</svg>
