<?xml version="1.0" encoding="utf-8"?>
<!-- Generator: Adobe Illustrator 25.2.0, SVG Export Plug-In . SVG Version: 6.00 Build 0)  -->
<svg version="1.1" id="Capa_1" xmlns="http://www.w3.org/2000/svg" xmlns:xlink="http://www.w3.org/1999/xlink" x="0px" y="0px"
	 viewBox="0 0 512 512" style="enable-background:new 0 0 512 512;" xml:space="preserve">
<g>
	<g>
		<path d="M34.4,281.1c21.5,21.9,49.9,34.5,80.4,35.8c0.1,1.9,0.3,4.5,0.3,8.1c0,14.7-11.2,59.7-18.2,84.5L89.5,435h87.6l5.9-9.5
			c2.3-3.8,57-93.4,57-228.5c0-66.2-53.8-120-120-120S0,130.8,0,197C0,228.6,12.2,258.5,34.4,281.1z M120,117c44.1,0,80,35.9,80,80
			c0,99.3-32.8,172.8-45.8,198h-12.1c5.7-22.6,12.9-54,12.9-70c0-12.7-0.9-22.8-5.5-31.3c-4.1-7.6-12.6-16.6-30.2-16.7l-0.9,0
			C75.2,276.1,40,240.3,40,197C40,152.9,75.9,117,120,117z"/>
	</g>
</g>
<g>
	<g>
		<path d="M306.4,281.1c21.5,21.9,49.9,34.5,80.4,35.8c0.1,1.9,0.3,4.5,0.3,8.1c0,14.7-11.2,59.7-18.2,84.5l-7.2,25.5h87.6l5.9-9.5
			c2.3-3.8,57-93.4,57-228.5c0-66.2-53.8-120-120-120s-120,53.8-120,120C272,228.6,284.2,258.5,306.4,281.1z M392,117
			c44.1,0,80,35.9,80,80c0,99.3-32.8,172.8-45.8,198h-12.1c5.7-22.6,12.9-54,12.9-70c0-12.7-0.9-22.8-5.5-31.3
			c-4.1-7.6-12.6-16.6-30.2-16.7l-0.9,0c-43.2-0.8-78.4-36.7-78.4-80C312,152.9,347.9,117,392,117z"/>
	</g>
</g>
</svg>
