<svg width="20" height="20" viewBox="0 0 20 20" fill="none" xmlns="http://www.w3.org/2000/svg">
<g clip-path="url(#clip0)">
<path d="M17.1429 0C16.7484 0 16.4286 0.319796 16.4286 0.714299V3.32356C12.7512 -0.236719 6.88391 -0.141713 3.32363 3.53567C1.64576 5.26875 0.709727 7.58776 0.714373 9.99998C0.714373 10.3945 1.03417 10.7143 1.42867 10.7143C1.82317 10.7143 2.14293 10.3945 2.14293 9.99998C2.14381 5.66061 5.66223 2.14353 10.0016 2.1444C12.2055 2.14482 14.3078 3.07081 15.7958 4.69641L12.6315 5.75139C12.2568 5.87607 12.054 6.28091 12.1787 6.65566C12.3034 7.03041 12.7082 7.23318 13.083 7.1085L17.3687 5.67995C17.6612 5.58252 17.8582 5.3083 17.8573 4.99997V0.714257C17.8572 0.319796 17.5374 0 17.1429 0Z" fill="#909090"/>
<path d="M18.5717 9.28577C18.1772 9.28577 17.8574 9.60556 17.8574 10.0001C17.8565 14.3394 14.3381 17.8565 9.99869 17.8556C7.79485 17.8552 5.69255 16.9292 4.20452 15.3036L7.36879 14.2486C7.74354 14.124 7.94632 13.7191 7.82164 13.3444C7.69696 12.9696 7.29212 12.7669 6.91737 12.8915L2.63166 14.3201C2.33911 14.4175 2.14211 14.6917 2.14307 15.0001V19.2858C2.14307 19.6803 2.46287 20.0001 2.85737 20.0001C3.25187 20.0001 3.57167 19.6803 3.57167 19.2858V16.6765C7.24909 20.2367 13.1164 20.1418 16.6767 16.4644C18.3545 14.7313 19.2906 12.4123 19.2859 10.0001C19.286 9.60556 18.9662 9.28577 18.5717 9.28577Z" fill="#909090"/>
</g>
<defs>
<clipPath id="clip0">
<rect width="20" height="20" fill="white"/>
</clipPath>
</defs>
</svg>
