<?xml version="1.0" encoding="iso-8859-1"?>
<!-- Generator: Adobe Illustrator 19.0.0, SVG Export Plug-In . SVG Version: 6.00 Build 0)  -->
<svg version="1.1" id="Layer_1" xmlns="http://www.w3.org/2000/svg" xmlns:xlink="http://www.w3.org/1999/xlink" x="0px" y="0px"
	 viewBox="0 0 370.909 370.909" style="enable-background:new 0 0 370.909 370.909;" xml:space="preserve">
<g>
	<g>
		<path d="M289.309,346.182h-11.128v-72.946c0-18.546-11.127-40.799-25.963-51.927l-43.273-34.619l43.273-34.619
			c14.836-11.126,25.963-33.382,25.963-51.927V24.727h11.128c7.418,0,12.364-4.945,12.364-12.364C301.673,4.945,296.727,0,289.309,0
			H81.6c-7.418,0-12.364,4.945-12.364,12.364c0,7.418,4.945,12.364,12.364,12.364h11.127v75.418
			c0,18.546,11.127,40.799,25.963,51.927l43.273,34.619l-43.273,34.619c-14.836,11.126-25.963,33.382-25.963,51.927v72.946H81.6
			c-7.418,0-12.364,4.945-12.364,12.364c0,7.418,4.945,12.364,12.364,12.364h207.709c7.418,0,12.364-4.945,12.364-12.364
			C301.673,351.127,296.727,346.182,289.309,346.182z M133.527,132.291c-8.655-6.182-16.072-21.018-16.072-32.145V24.727h136v75.418
			c0,9.89-7.418,25.963-16.072,32.145l-48.219,38.327c-2.173,1.449-3.492,3.323-4.216,5.372c-0.902-1.563-2.05-2.984-3.201-4.135
			L133.527,132.291z M253.453,346.182H117.454v-72.946c0-11.128,7.418-25.963,16.072-32.145l48.219-38.327
			c2.173-1.449,3.492-3.323,4.216-5.371c0.902,1.563,2.05,2.984,3.201,4.135l48.219,39.563c8.655,6.182,16.072,21.018,16.072,32.145
			V346.182z"/>
	</g>
</g>
<g>
</g>
<g>
</g>
<g>
</g>
<g>
</g>
<g>
</g>
<g>
</g>
<g>
</g>
<g>
</g>
<g>
</g>
<g>
</g>
<g>
</g>
<g>
</g>
<g>
</g>
<g>
</g>
<g>
</g>
</svg>
