<svg width="21" height="20" viewBox="0 0 21 20" fill="none" xmlns="http://www.w3.org/2000/svg">
<path d="M20.5474 18.7903L13.3577 11.6747C15.883 8.61803 15.4264 4.11406 12.3379 1.61477C9.24938 -0.884512 4.69843 -0.432618 2.1731 2.62404C-0.352225 5.68069 0.104378 10.1847 3.19289 12.684C5.85319 14.8367 9.67758 14.8367 12.3379 12.684L19.5277 19.7996C19.8142 20.0735 20.2707 20.0656 20.5474 19.7821C20.8174 19.5054 20.8174 19.0669 20.5474 18.7903ZM7.77692 12.871C4.5919 12.8674 2.01079 10.313 2.00724 7.1608C2.00724 4.00716 4.59042 1.45062 7.77692 1.45062C10.9634 1.45062 13.5466 4.00716 13.5466 7.1608C13.5466 10.3144 10.9634 12.871 7.77692 12.871Z" fill="#909090"/>
</svg>
