<svg width="21" height="20" viewBox="0 0 21 20" fill="none" xmlns="http://www.w3.org/2000/svg">
<path d="M19.966 12.8571H18.7441C18.6432 13.1411 18.5271 13.4196 18.3963 13.6914L19.2623 14.5486C19.5441 14.8275 19.5441 15.2796 19.2623 15.5586L16.1972 18.5864C15.9153 18.8653 15.4585 18.8653 15.1767 18.5864L14.3106 17.7293C14.0369 17.8594 13.7565 17.9753 13.4705 18.0764V19.2857C13.4705 19.6802 13.1474 20 12.7488 20H8.41843C8.01982 20 7.69669 19.6802 7.69669 19.2857V18.0764C7.4096 17.9763 7.12795 17.8614 6.85299 17.7321L5.98693 18.5893C5.70508 18.8681 5.24823 18.8681 4.96642 18.5893L1.90774 15.5557C1.62597 15.2768 1.62597 14.8246 1.90774 14.5457L2.77381 13.6886C2.64208 13.4178 2.52503 13.1402 2.42307 12.8571H1.20123C0.802618 12.8571 0.479492 12.5373 0.479492 12.1429V7.85717C0.479492 7.46266 0.802618 7.14287 1.20123 7.14287H2.42311C2.52405 6.85885 2.64014 6.58037 2.77098 6.30858L1.90491 5.45143C1.62318 5.17248 1.62318 4.72035 1.90491 4.44145L4.96718 1.41073C5.24904 1.1319 5.70588 1.1319 5.98769 1.41073L6.85376 2.26787C7.1285 2.13867 7.40989 2.02374 7.69673 1.92359V0.7143C7.69673 0.319798 8.01986 0 8.41847 0H12.7488C13.1474 0 13.4705 0.319798 13.4705 0.7143V1.92359C13.7576 2.0237 14.0393 2.13863 14.3142 2.26787L15.1803 1.41073C15.4622 1.1319 15.919 1.1319 16.2008 1.41073L19.2631 4.44145C19.5448 4.72035 19.5448 5.17253 19.2631 5.45143L18.397 6.30858C18.5276 6.58037 18.6435 6.85885 18.7442 7.14287H19.966C20.3646 7.14287 20.6877 7.46266 20.6877 7.85717V12.1429C20.6877 12.5373 20.3646 12.8571 19.966 12.8571ZM19.2443 8.57142H18.2158C17.8931 8.57142 17.6096 8.3594 17.5215 8.05216C17.37 7.51879 17.1559 7.00484 16.8835 6.52073C16.7241 6.24086 16.7732 5.89013 17.0033 5.66358L17.7251 4.94573L15.6869 2.9286L14.9616 3.6429C14.7327 3.87066 14.3783 3.91921 14.0955 3.76147C13.6065 3.49218 13.0875 3.28028 12.5489 3.13004C12.2381 3.04311 12.0236 2.76249 12.0234 2.4429V1.4286H9.14017V2.44646C9.14008 2.76604 8.92551 3.04666 8.61473 3.13359C8.07615 3.28384 7.5571 3.49574 7.06807 3.76502C6.78529 3.92277 6.43091 3.87422 6.20201 3.64645L5.48027 2.93215L3.4385 4.94929L4.16028 5.66714C4.39041 5.89369 4.43947 6.24442 4.28008 6.52428C4.00774 7.00835 3.79364 7.52234 3.64208 8.05571C3.55302 8.36028 3.27176 8.57029 2.95138 8.57142H1.92292V11.4286H2.95138C3.27408 11.4286 3.55758 11.6406 3.64567 11.9478C3.79723 12.4812 4.01134 12.9952 4.28368 13.4793C4.44306 13.7591 4.39401 14.1099 4.16387 14.3364L3.44214 15.0507L5.48027 17.0714L6.20201 16.3571C6.43091 16.1294 6.78529 16.0808 7.06807 16.2386C7.55706 16.5079 8.07615 16.7198 8.61473 16.87C8.9242 16.9566 9.13843 17.2353 9.14017 17.5536V18.5714H12.0271V17.5536C12.0272 17.234 12.2417 16.9534 12.5525 16.8665C13.0911 16.7162 13.6101 16.5043 14.0992 16.235C14.3819 16.0773 14.7363 16.1258 14.9652 16.3536L15.6906 17.0679L17.7287 15.0508L17.007 14.3365C16.7768 14.1099 16.7278 13.7592 16.8872 13.4793C17.1595 12.9952 17.3736 12.4813 17.5252 11.9479C17.6132 11.6406 17.8967 11.4286 18.2195 11.4286H19.2443V8.57142H19.2443Z" fill="#909090"/>
<path d="M10.5834 15C7.79315 15 5.53125 12.7614 5.53125 9.99999C5.53125 7.23855 7.7932 5.00002 10.5834 5.00002C13.3736 5.00002 15.6355 7.23859 15.6355 10C15.6323 12.7601 13.3723 14.9969 10.5834 15ZM10.5834 6.42858C8.59038 6.42858 6.97474 8.02756 6.97474 9.99999C6.97474 11.9724 8.59038 13.5714 10.5834 13.5714C12.5764 13.5714 14.192 11.9724 14.192 9.99999C14.1896 8.02856 12.5754 6.43096 10.5834 6.42858Z" fill="#909090"/>
</svg>
