<?xml version="1.0" encoding="utf-8"?>
<!-- Generator: Adobe Illustrator 25.2.0, SVG Export Plug-In . SVG Version: 6.00 Build 0)  -->
<svg version="1.1" id="Слой_1" xmlns="http://www.w3.org/2000/svg" xmlns:xlink="http://www.w3.org/1999/xlink" x="0px" y="0px"
	 viewBox="0 0 512 512" style="enable-background:new 0 0 512 512;" xml:space="preserve">
<path d="M341.3,29.5H320H192h-21.3c-30.8,0-55.8,25-55.8,55.8v341.3c0,30.8,25,55.8,55.8,55.8h170.7c30.8,0,55.8-25,55.8-55.8V85.3
	C397.2,54.5,372.1,29.5,341.3,29.5z M141.2,85.3c0-16.3,13.2-29.5,29.5-29.5h8.2V64c0,19,15.5,34.5,34.5,34.5h85.3
	c19,0,34.5-15.5,34.5-34.5v-8.2h8.2c16.3,0,29.5,13.2,29.5,29.5v341.3c0,16.3-13.2,29.5-29.5,29.5H170.7
	c-16.3,0-29.5-13.2-29.5-29.5V85.3z M306.8,64c0,4.5-3.7,8.2-8.2,8.2h-85.3c-4.5,0-8.2-3.7-8.2-8.2v-8.2h101.7V64z"/>
</svg>
