<?xml version="1.0" encoding="utf-8"?>
<!-- Generator: Adobe Illustrator 25.2.0, SVG Export Plug-In . SVG Version: 6.00 Build 0)  -->
<svg version="1.1" id="Layer_1" xmlns="http://www.w3.org/2000/svg" xmlns:xlink="http://www.w3.org/1999/xlink" x="0px" y="0px"
	 viewBox="0 0 512 512" style="enable-background:new 0 0 512 512;" xml:space="preserve">
<style type="text/css">
	.st0{fill:#1D1D1B;}
</style>
<path class="st0" d="M277.3,131.4c4.7,1.1,5.6,2.6,5.9,3.1c1.2,2,1.7,5.6,2.1,8.4l0.1,85.4c-0.1,3.5,0.4,7.3,1.5,11.2
	c2.5,8.7,9.4,15.3,18.2,17.4c2,0.5,3.9,0.7,5.9,0.7c6.8,0,13.4-2.8,18.2-7.9c20.3-21.6,34.3-47.4,45.4-69.7c0,0,0-0.1,0-0.1
	c4.9-10.1,9.3-20.8,12.8-29.4c0.6-1.4,1.1-2.7,1.6-4c0-0.1,0.1-0.2,0.1-0.3c2.1-5.3,4.1-5.9,7.9-5.9h0.7l75,0.1c1.4,0,3.1,0,4.9,0.3
	c4.1,0.8,5.5,1.5,5.8,1.8c0,0.5,0,2-1.1,5.5c0,0,0,0.1,0,0.1c-5.5,17.3-16,31.8-27.1,47.1l-1.3,1.8c0,0-0.1,0.1-0.1,0.1
	c-5.4,7.4-10.9,14.7-15.1,20.2c0,0,0,0,0,0.1l-2.8,3.7l-1.1,1.5c-6.8,8.9-13.2,17.4-19.5,26.2c-6.9,9.7-9.8,17-9.6,24.4
	c0.2,10.7,7,18.8,14.3,26.1c2.1,2.1,4.2,4.1,6.2,6c0.8,0.8,1.6,1.5,2.4,2.3c0.5,0.5,1,0.9,1.6,1.4c0.8,0.8,1.6,1.5,2.3,2.2
	c0.2,0.2,0.4,0.4,0.6,0.6c12.4,11.6,23.4,22.2,33,33.7c0,0.1,0.1,0.1,0.2,0.2c4.9,5.7,11,13.4,15.6,22c1.8,3.6,2,7.4,0.5,10.3
	c-0.9,1.6-1.9,2-2.5,2.1h-68.4c-0.6,0-1.3,0-1.9,0.1c-1.1,0.1-2.3,0.1-3.4,0.1c-11.7,0-22.2-4.9-32.2-15.1c-0.1-0.1-0.1-0.1-0.2-0.2
	c-6.3-6.3-12.2-12.9-18.3-19.7c-0.1-0.2-0.3-0.3-0.4-0.4c-1.3-1.4-2.5-2.7-3.7-4c-0.3-0.4-0.7-0.8-1-1.1c-1.3-1.4-2.5-2.7-3.6-3.9
	c0,0,0,0,0-0.1c-4.2-4.8-8.6-8.8-13.1-12c-2.5-1.9-5.2-3.4-8.2-4.4c-2.6-0.9-5.3-1.3-7.9-1.3c-8.5,0-16.6,4.4-21.2,11.8
	c-0.2,0.3-0.3,0.5-0.5,0.8c-0.3,0.4-0.5,0.9-0.8,1.3c-6.6,12.1-7.8,25-8.4,36.3c0,0.1,0,0.2,0,0.2c-0.3,6.5-1.6,9.2-2.1,9.7
	c-0.7,0.7-3.8,2-10.6,2.3c-3.8,0.2-7.6,0.3-11.2,0.3c-31.6,0-58.5-6.6-82.2-20.3c-23.2-13.4-43.4-32.4-63.6-59.7
	c-30.3-41-56.9-88.6-86.5-154.5c-1-2.2-1.4-3.8-1.5-4.7c0.8-0.3,2.4-0.6,4.9-0.6c10.8-0.2,21.6-0.3,32.8-0.3
	c11.2,0,22.5,0.1,34.5,0.3c0,0,0.1,0,0.1,0c2.5,0,6.6,0.1,9.8,7.9c13.2,32.3,28.5,60.7,46.9,86.8c3.3,4.7,7.8,11.1,13.7,16.6
	c4.7,4.3,10.8,6.6,17,6.6c2.3,0,4.6-0.3,6.8-0.9c8.4-2.4,14.9-8.9,17.3-17.3c1.3-4.5,1.8-9.1,2.3-13.4c0-0.2,0-0.4,0.1-0.6
	c2.1-24.9,1.7-45.4-1.2-64.5c-2-13.9-9.2-24-20.6-29.2c2-1,4.3-1.5,7.4-1.5H277.3 M28.6,140.6L28.6,140.6L28.6,140.6 M278.4,106.4
	h-78.1c-16.9,0-26,8-32.7,15.8c-5.7,6.6-7.5,13.4-5.1,20c2.3,6.5,7.8,10.6,16.3,12.3c6.2,1.2,9,4.3,10,11.2
	c2.6,17.2,2.9,35.9,1,58.8c-0.4,3.7-0.8,6.8-1.5,9.3c-3.9-3.6-7.2-8.3-10.2-12.6c-17.2-24.4-31.7-51.2-44.2-81.9
	c-6.1-14.9-17.6-23.3-32.6-23.5c-12-0.2-23.6-0.3-35-0.3s-22.3,0.1-33.2,0.3c-12.1,0.2-20.8,4.3-25.7,12c-5,7.7-5,17.3,0,28.5
	C37.7,223.9,65.2,273,96.6,315.5c22.4,30.3,45.1,51.4,71.2,66.5c27.7,15.9,58.7,23.6,94.7,23.6c4,0,8.2-0.1,12.4-0.3
	c24.1-1.1,35.4-12.1,36.5-35.8c0.6-10.8,1.7-18.9,5.4-25.7l0.1-0.1c0.1-0.3,0.3-0.5,0.4-0.7c0.3,0.1,0.6,0.3,0.9,0.6
	c3.9,2.6,7.3,6.1,9.5,8.6c1.4,1.6,2.9,3.2,4.4,4.8l0.2,0.2c1.4,1.6,2.8,3.1,4.2,4.6c5.6,6.3,12.3,13.8,19.3,20.8
	c14.7,15,31.6,22.6,50.1,22.6c1.8,0,3.5-0.1,5.3-0.2h68.5h1c9.7-0.6,18.2-6,23.2-14.8c5.7-10.2,5.7-22.9-0.1-34.1
	c-5.5-10.4-12.5-19.3-18.7-26.6c-10.5-12.6-22.1-23.7-35.1-35.9c-1.2-1.2-2.5-2.4-3.8-3.6l-0.4-0.3c-2.6-2.5-5.6-5.3-8.3-8
	c-6.6-6.5-6.9-8.7-6.9-8.8c0-0.1-0.2-2.1,5-9.4c6.4-9,13.2-17.9,20.2-27.1l2.8-3.7c5.1-6.7,10.3-13.6,15.4-20.6l1.4-1.9
	c11.8-16.3,24-33.2,30.7-54.3c2.2-6.8,4.4-17-1.4-26.3c-5.7-9.3-15.7-12-22.8-13.3c-3.5-0.6-6.7-0.7-9.2-0.7l-75-0.1
	c-0.2,0-0.5,0-0.7,0c-14.8,0-25.6,7.5-31.2,21.7c-3.8,9.3-8.4,21-13.7,31.8c-10.2,20.6-23,44.3-41.2,63.7c-0.4-1.4-0.6-2.7-0.5-3.6
	l-0.1-87.1c0-0.6,0-1.3-0.2-2.2c-1.2-9.1-3.7-28.2-28.8-33.1l-0.4-0.1C280.2,106.5,279.4,106.4,278.4,106.4L278.4,106.4z"/>
</svg>
