<?xml version="1.0" encoding="utf-8"?>
<!-- Generator: Adobe Illustrator 25.2.0, SVG Export Plug-In . SVG Version: 6.00 Build 0)  -->
<svg version="1.1" id="Capa_1" xmlns="http://www.w3.org/2000/svg" xmlns:xlink="http://www.w3.org/1999/xlink" x="0px" y="0px"
	 viewBox="0 0 52.5 52.5" style="enable-background:new 0 0 52.5 52.5;" xml:space="preserve">
<g>
	<path d="M31.1,0.4h-9.7C11,0.4,2.6,8.9,2.6,19.2v8.7c0,7.5,4.6,14.5,11.6,17.4v5.3c0,0.6,0.3,1.1,0.9,1.3c0.2,0.1,0.4,0.1,0.6,0.1
		c0.4,0,0.7-0.1,1-0.4l5.5-4.9h9c10.4,0,18.8-8.4,18.8-18.8v-8.7C49.9,8.9,41.5,0.4,31.1,0.4z M16.1,43c-6.4-2.2-10.6-8.3-10.6-15
		v-8.7c0-8.8,7.1-15.9,15.9-15.9h9.7c8.8,0,15.9,7.1,15.9,15.9v8.7c0,8.8-7.1,15.9-15.9,15.9h-9.6c-0.4,0-0.7,0.1-1,0.4l-3.5,3.1v-3
		C17.1,43.7,16.7,43.2,16.1,43z"/>
	<path d="M30.3,36.8c0.9,0.6,1.9,0.9,2.9,0.9c1.8,0,3.5-0.9,4.5-2.4l2.1-3.2c0.4-0.7,0.2-1.6-0.4-2l-5.9-3.9
		c-0.8-0.5-1.7-0.7-2.5-0.5c-0.9,0.2-1.6,0.7-2.1,1.5l-0.1,0.1c-2.2-0.7-4.7-1.8-6.3-6.1l0.5-0.4c1.4-1.2,1.6-3.4,0.3-4.8l-4.6-5.3
		c-0.5-0.6-1.4-0.7-2-0.1L13.4,13c-2.8,2.4-1.5,6-1.1,7.1c0,0.1,0.1,0.1,0.1,0.2c0.1,0.2,2.6,4.6,6.5,8.6
		C22.9,33,30.2,36.7,30.3,36.8z M20.8,18.5l-1.2,1c-0.4,0.4-0.6,1-0.4,1.5c2.1,6.8,6.2,8.1,9.1,9.1l0.4,0.1c0.6,0.2,1.3,0,1.7-0.6
		l0.7-1.1c0.1-0.1,0.2-0.2,0.3-0.2c0.1,0,0.2,0,0.4,0.1l4.7,3.1l-1.3,2c-0.7,1.1-2.2,1.4-3.5,0.6c-0.1,0-7-3.7-10.7-7.4
		c-3.5-3.5-5.8-7.5-6-7.8c-0.9-2.4-0.4-3.3,0.3-3.9l1.8-1.6l3.7,4.2c0.1,0.1,0.1,0.2,0.1,0.4C21,18.3,20.9,18.4,20.8,18.5z"/>
	<path d="M28.6,16.1c-0.4-0.1-0.8-0.1-1.1,0.1c-0.3,0.2-0.6,0.5-0.7,0.9c-0.2,0.8,0.2,1.6,1,1.8c1.3,0.4,2.3,1.4,2.7,2.7
		c0.2,0.6,0.7,1.1,1.4,1.1c0.1,0,0.3,0,0.4-0.1c0.8-0.2,1.2-1,1-1.8C32.6,18.5,30.8,16.8,28.6,16.1z"/>
	<path d="M35.8,22.8c0.1,0,0.3,0,0.4-0.1c0.8-0.2,1.2-1,1-1.8c-1.2-4.2-4.5-7.6-8.7-8.7c-0.4-0.1-0.8-0.1-1.1,0.1
		c-0.3,0.2-0.6,0.5-0.7,0.9c-0.2,0.8,0.2,1.6,1,1.8c3.2,0.9,5.8,3.5,6.7,6.7C34.6,22.4,35.2,22.8,35.8,22.8z"/>
	<path d="M27.3,10.5c5.6,1.6,10.1,6.1,11.6,11.7c0.2,0.6,0.7,1.1,1.4,1.1c0.1,0,0.3,0,0.4-0.1c0.4-0.1,0.7-0.3,0.9-0.7
		c0.2-0.3,0.2-0.7,0.1-1.1c-1.9-6.6-7.1-11.8-13.6-13.7c-0.4-0.1-0.8-0.1-1.1,0.1c-0.3,0.2-0.6,0.5-0.7,0.9
		c-0.1,0.4-0.1,0.8,0.1,1.1C26.6,10.2,26.9,10.4,27.3,10.5z"/>
</g>
</svg>
