<svg width="19" height="13" viewBox="0 0 19 13" fill="none" xmlns="http://www.w3.org/2000/svg">
<path d="M17.6322 0H0.766635C0.343227 0 0 0.380536 0 0.849967C0 1.3194 0.343227 1.69993 0.766635 1.69993H17.6323C18.0557 1.69993 18.3989 1.3194 18.3989 0.849967C18.3989 0.380536 18.0557 0 17.6322 0Z" fill="#727272"/>
<path d="M15.8194 5.18726H3.06977C2.7497 5.18726 2.49023 5.56779 2.49023 6.03722C2.49023 6.50665 2.7497 6.88719 3.06977 6.88719H15.8194C16.1395 6.88719 16.3989 6.50665 16.3989 6.03722C16.3989 5.56779 16.1394 5.18726 15.8194 5.18726Z" fill="#727272"/>
<path d="M13.0691 10.3745H5.80855C5.62627 10.3745 5.47852 10.755 5.47852 11.2245C5.47852 11.6939 5.62627 12.0744 5.80855 12.0744H13.0691C13.2514 12.0744 13.3992 11.6939 13.3992 11.2245C13.3992 10.755 13.2514 10.3745 13.0691 10.3745Z" fill="#727272"/>
</svg>
