<?xml version="1.0" encoding="utf-8"?>
<!-- Generator: Adobe Illustrator 25.2.0, SVG Export Plug-In . SVG Version: 6.00 Build 0)  -->
<svg version="1.1" id="Layer_1" xmlns="http://www.w3.org/2000/svg" xmlns:xlink="http://www.w3.org/1999/xlink" x="0px" y="0px"
	 viewBox="0 0 512 512" style="enable-background:new 0 0 512 512;" xml:space="preserve">
<g>
	<g>
		<g>
			<path d="M420.4,420.4l85.3-85.3c0,0,0,0,0,0c0.5-0.5,1-1,1.4-1.6c0.2-0.2,0.4-0.5,0.6-0.8c0.2-0.3,0.5-0.6,0.7-0.9
				c0.2-0.3,0.4-0.6,0.6-0.9c0.2-0.3,0.4-0.6,0.5-0.9c0.2-0.3,0.3-0.6,0.5-1c0.1-0.3,0.3-0.6,0.4-0.9c0.1-0.3,0.2-0.6,0.3-1
				c0.1-0.3,0.2-0.7,0.4-1c0.1-0.3,0.2-0.6,0.2-1c0.1-0.4,0.2-0.7,0.3-1.1c0.1-0.4,0.1-0.8,0.2-1.1c0-0.3,0.1-0.6,0.1-0.9
				c0.1-1.4,0.1-2.8,0-4.2c0-0.3-0.1-0.6-0.1-0.9c-0.1-0.4-0.1-0.8-0.2-1.1c-0.1-0.4-0.2-0.7-0.3-1.1c-0.1-0.3-0.2-0.6-0.2-1
				c-0.1-0.3-0.2-0.7-0.4-1c-0.1-0.3-0.2-0.6-0.3-1c-0.1-0.3-0.3-0.6-0.4-0.9c-0.2-0.3-0.3-0.7-0.5-1c-0.2-0.3-0.3-0.6-0.5-0.9
				c-0.2-0.3-0.4-0.6-0.6-0.9c-0.2-0.3-0.4-0.6-0.7-0.9c-0.2-0.3-0.4-0.5-0.6-0.8c-0.4-0.5-0.9-1.1-1.4-1.6c0,0,0,0,0,0l-85.3-85.3
				c-8.3-8.3-21.8-8.3-30.2,0s-8.3,21.8,0,30.2l48.9,48.9H192c-11.8,0-21.3,9.6-21.3,21.3s9.6,21.3,21.3,21.3h247.2l-48.9,48.9
				c-8.3,8.3-8.3,21.8,0,30.2C398.6,428.7,412.1,428.7,420.4,420.4z"/>
			<path d="M121.8,262.2l-48.9-48.9H320c11.8,0,21.3-9.6,21.3-21.3c0-11.8-9.6-21.3-21.3-21.3H72.8l48.9-48.9
				c8.3-8.3,8.3-21.8,0-30.2s-21.8-8.3-30.2,0L6.2,176.9c0,0,0,0,0,0c-0.5,0.5-1,1-1.4,1.6c-0.2,0.2-0.4,0.5-0.6,0.8
				c-0.2,0.3-0.5,0.6-0.7,0.9c-0.2,0.3-0.4,0.6-0.6,0.9c-0.2,0.3-0.4,0.6-0.5,0.9c-0.2,0.3-0.3,0.6-0.5,1c-0.1,0.3-0.3,0.6-0.4,0.9
				c-0.1,0.3-0.2,0.6-0.4,1c-0.1,0.3-0.2,0.7-0.4,1c-0.1,0.3-0.2,0.6-0.2,1c-0.1,0.4-0.2,0.7-0.3,1.1c-0.1,0.4-0.1,0.8-0.2,1.1
				c0,0.3-0.1,0.6-0.1,0.9c-0.1,1.4-0.1,2.8,0,4.2c0,0.3,0.1,0.6,0.1,0.9c0.1,0.4,0.1,0.8,0.2,1.1c0.1,0.4,0.2,0.7,0.3,1.1
				c0.1,0.3,0.2,0.6,0.2,1c0.1,0.3,0.2,0.7,0.4,1c0.1,0.3,0.2,0.6,0.4,1c0.1,0.3,0.3,0.6,0.4,0.9c0.2,0.3,0.3,0.7,0.5,1
				c0.2,0.3,0.3,0.6,0.5,0.9c0.2,0.3,0.4,0.6,0.6,0.9c0.2,0.3,0.4,0.6,0.7,0.9c0.2,0.3,0.4,0.5,0.6,0.8c0.4,0.5,0.9,1.1,1.4,1.5
				c0,0,0,0,0,0l85.3,85.3c8.3,8.3,21.8,8.3,30.2,0S130.1,270.6,121.8,262.2z"/>
		</g>
	</g>
</g>
</svg>
