<svg width="18" height="19" viewBox="0 0 18 19" fill="none" xmlns="http://www.w3.org/2000/svg">
<path d="M16.4283 8.57131C16.0338 8.57131 15.7141 8.89111 15.7141 9.2856V16.4283C15.7141 16.8228 15.3943 17.1426 14.9998 17.1426H2.14283C1.74833 17.1426 1.42854 16.8228 1.42854 16.4283V2.14283C1.42854 1.74833 1.74833 1.42854 2.14283 1.42854H10.7141C11.1086 1.42854 11.4284 1.10875 11.4284 0.714248C11.4284 0.31975 11.1086 0 10.7141 0H2.14283C0.959376 0 0 0.959376 0 2.14283V16.4283C0 17.6118 0.959376 18.5712 2.14283 18.5712H14.9998C16.1833 18.5712 17.1426 17.6118 17.1426 16.4283V9.28556C17.1426 8.89111 16.8228 8.57131 16.4283 8.57131Z" fill="#727272"/>
<path d="M10.2308 10.5715C10.2155 10.5715 10.1986 10.5715 10.1851 10.5698C9.94301 10.5555 9.72128 10.4364 9.57064 10.2373L6.18538 5.79313C5.89425 5.40915 5.9518 4.85096 6.3174 4.54342C6.6864 4.23944 7.21788 4.29988 7.50732 4.68208L10.3002 8.34943L15.5558 2.83152C15.8858 2.48487 16.4224 2.48487 16.7525 2.83152C17.0825 3.17817 17.0825 3.74169 16.7525 4.08834L10.8283 10.3102C10.6708 10.4773 10.4542 10.5715 10.2308 10.5715Z" fill="#727272"/>
</svg>
