<svg width="31" height="23" viewBox="0 0 31 23" fill="none" xmlns="http://www.w3.org/2000/svg">
<path d="M12.89 5.26421H8.02583C7.85736 5.26421 7.70861 5.35517 7.60368 5.49477C7.49877 5.63435 7.43535 5.8249 7.43535 6.03326C7.43535 6.24162 7.49877 6.43217 7.60368 6.57175C7.70861 6.71135 7.85736 6.80231 8.02583 6.80231H12.89C13.0585 6.80231 13.2072 6.71135 13.3122 6.57175C13.4171 6.43217 13.4805 6.24162 13.4805 6.03326C13.4805 5.8249 13.4171 5.63435 13.3122 5.49477C13.2072 5.35517 13.0585 5.26421 12.89 5.26421Z" fill="#727272" stroke="#727272" stroke-width="0.1"/>
<path d="M5.86402 10.2975H4.24262C4.07416 10.2975 3.92541 10.3885 3.82048 10.5281C3.71557 10.6677 3.65215 10.8582 3.65215 11.0666C3.65215 11.2749 3.71557 11.4655 3.82048 11.6051C3.92541 11.7446 4.07416 11.8356 4.24262 11.8356H5.86402C6.03249 11.8356 6.18124 11.7446 6.28617 11.605C6.39108 11.4655 6.4545 11.2749 6.4545 11.0665C6.4545 10.8582 6.39108 10.6676 6.28617 10.5281C6.18124 10.3885 6.03249 10.2975 5.86402 10.2975Z" fill="#727272" stroke="#727272" stroke-width="0.1"/>
<path d="M19.551 21.3786C20.2519 21.3632 20.9302 21.0699 21.4366 20.5634C21.9448 20.058 22.2382 19.3789 22.2512 18.6777L22.5349 5.82178C22.5369 5.71473 22.5141 5.60974 22.4685 5.51497L20.6024 1.6538C20.4394 1.31665 20.0278 1.18769 19.6832 1.36577C19.6163 1.40031 19.555 1.44516 19.5015 1.49853C19.448 1.55215 19.403 1.61359 19.3682 1.68047L17.3301 5.62762C17.2801 5.72461 17.2529 5.83093 17.2506 5.93813L16.9674 18.7946C16.9352 20.2537 18.0919 21.4106 19.551 21.3786ZM18.3471 18.7637L18.6266 6.07514L19.9448 3.51891L21.1512 6.01517L20.8693 18.7062C20.8532 19.4034 20.275 19.9804 19.5779 19.9951C19.2449 20.0021 18.9284 19.8772 18.6974 19.6476C18.4653 19.4167 18.3392 19.0985 18.3471 18.7637Z" fill="#727272"/>
<path d="M15.0021 18.9259H15.0021V18.9759C15.0021 19.1647 14.9445 19.3336 14.8538 19.4543C14.7632 19.5749 14.6417 19.6449 14.5116 19.6449H2.6214C2.49137 19.6449 2.36987 19.5749 2.27919 19.4543C2.18849 19.3336 2.13092 19.1647 2.13092 18.9759V3.15711C2.13092 2.96834 2.18849 2.79936 2.27919 2.6787C2.36987 2.55806 2.49137 2.48806 2.6214 2.48806H14.5117C14.6417 2.48806 14.7632 2.55806 14.8539 2.6787C14.9446 2.79936 15.0021 2.96834 15.0021 3.15711V18.9259ZM14.5117 0.95H2.6214C2.15444 0.95 1.73547 1.20192 1.43493 1.60176C1.1344 2.00158 0.95 2.55164 0.95 3.15711V18.9759C0.95 19.5814 1.1344 20.1314 1.43493 20.5312C1.73547 20.9311 2.15444 21.183 2.6214 21.183H14.5117C14.9786 21.183 15.3976 20.9311 15.6981 20.5312C15.9987 20.1314 16.1831 19.5814 16.1831 18.9759V3.15711C16.1831 2.55164 15.9987 2.00158 15.6981 1.60176C15.3976 1.20192 14.9786 0.95 14.5117 0.95Z" fill="#727272" stroke="#727272" stroke-width="0.1"/>
<path d="M5.86402 5.26421H4.24262C4.07416 5.26421 3.92541 5.35517 3.82048 5.49477C3.71557 5.63435 3.65215 5.8249 3.65215 6.03326C3.65215 6.24162 3.71557 6.43217 3.82048 6.57175C3.92541 6.71135 4.07416 6.80231 4.24262 6.80231H5.86402C6.03249 6.80231 6.18124 6.71135 6.28617 6.57175C6.39108 6.43217 6.4545 6.24162 6.4545 6.03326C6.4545 5.8249 6.39108 5.63435 6.28617 5.49477C6.18124 5.35517 6.03249 5.26421 5.86402 5.26421Z" fill="#727272" stroke="#727272" stroke-width="0.1"/>
<path d="M12.89 10.2975H8.02583C7.85736 10.2975 7.70861 10.3885 7.60368 10.5281C7.49877 10.6677 7.43535 10.8582 7.43535 11.0666C7.43535 11.2749 7.49877 11.4655 7.60368 11.6051C7.70862 11.7446 7.85736 11.8356 8.02583 11.8356H12.89C13.0585 11.8356 13.2072 11.7446 13.3122 11.605C13.4171 11.4655 13.4805 11.2749 13.4805 11.0665C13.4805 10.8582 13.4171 10.6676 13.3122 10.5281C13.2072 10.3885 13.0585 10.2975 12.89 10.2975Z" fill="#727272" stroke="#727272" stroke-width="0.1"/>
<path d="M5.86402 15.3307H4.24262C4.07416 15.3307 3.92541 15.4217 3.82048 15.5613C3.71557 15.7009 3.65215 15.8914 3.65215 16.0998C3.65215 16.3081 3.71557 16.4987 3.82048 16.6383C3.92541 16.7779 4.07416 16.8688 4.24262 16.8688H5.86402C6.03249 16.8688 6.18124 16.7779 6.28617 16.6383C6.39108 16.4987 6.4545 16.3081 6.4545 16.0998C6.4545 15.8914 6.39108 15.7009 6.28617 15.5613C6.18124 15.4217 6.03249 15.3307 5.86402 15.3307Z" fill="#727272" stroke="#727272" stroke-width="0.1"/>
<path d="M12.89 15.3307H8.02583C7.85736 15.3307 7.70861 15.4217 7.60368 15.5613C7.49877 15.7009 7.43535 15.8914 7.43535 16.0998C7.43535 16.3081 7.49877 16.4987 7.60368 16.6383C7.70861 16.7779 7.85736 16.8688 8.02583 16.8688H12.89C13.0585 16.8688 13.2072 16.7779 13.3122 16.6383C13.4171 16.4987 13.4805 16.3081 13.4805 16.0998C13.4805 15.8914 13.4171 15.7009 13.3122 15.5613C13.2072 15.4217 13.0585 15.3307 12.89 15.3307Z" fill="#727272" stroke="#727272" stroke-width="0.1"/>
</svg>
