<?xml version="1.0" encoding="utf-8"?>
<!-- Generator: Adobe Illustrator 25.2.0, SVG Export Plug-In . SVG Version: 6.00 Build 0)  -->
<svg version="1.1" id="Слой_1" xmlns="http://www.w3.org/2000/svg" xmlns:xlink="http://www.w3.org/1999/xlink" x="0px" y="0px"
	 width="16px" height="18px" viewBox="0 0 16 18" style="enable-background:new 0 0 16 18;" xml:space="preserve">
<style type="text/css">
	.st0{fill:#727272;stroke:#727272;stroke-width:0.1;}
</style>
<g>
	<path class="st0" d="M10.3,6.6c-0.3,0-0.5,0.2-0.5,0.5v7.2c0,0.3,0.2,0.5,0.5,0.5s0.5-0.2,0.5-0.5V7.2C10.8,6.9,10.6,6.6,10.3,6.6z
		"/>
	<path class="st0" d="M5.7,6.6c-0.3,0-0.5,0.2-0.5,0.5v7.2c0,0.3,0.2,0.5,0.5,0.5s0.5-0.2,0.5-0.5V7.2C6.2,6.9,6,6.6,5.7,6.6z"/>
	<path class="st0" d="M13.2,2.8h-1.8V2.4c0-0.4-0.2-0.8-0.5-1.2C10.6,1,10.2,0.8,9.7,0.8c0,0,0,0,0,0H6.3c0,0,0,0,0,0
		C5.8,0.8,5.4,1,5.1,1.3C4.8,1.6,4.6,2,4.6,2.4v0.3H2.8C2,2.8,1.3,3.3,1.2,4.1C1.1,4.9,1.6,5.6,2.3,5.8v9.2c0,0.6,0.2,1.1,0.6,1.5
		c0.4,0.4,0.9,0.6,1.5,0.6h7.3c0.6,0,1.1-0.2,1.5-0.6c0.4-0.4,0.6-1,0.6-1.5V5.8c0.7-0.2,1.2-0.9,1.1-1.7C14.7,3.3,14,2.8,13.2,2.8z
		 M11.6,16.2H4.4c-0.6,0-1-0.5-1-1.1V5.9h9.4v9.2C12.7,15.7,12.2,16.2,11.6,16.2z M5.7,2.8V2.4c0-0.2,0.1-0.3,0.2-0.4
		C6,1.9,6.1,1.8,6.3,1.8c0,0,0,0,0,0h3.4c0.2,0,0.3,0.1,0.4,0.2s0.2,0.3,0.2,0.4v0.3H5.7z M13.8,4.3c0,0.3-0.3,0.6-0.6,0.6H2.8
		c-0.3,0-0.6-0.2-0.6-0.6c0-0.3,0.3-0.6,0.6-0.6h10.4C13.5,3.8,13.8,4,13.8,4.3z"/>
	<path class="st0" d="M8,6.6c-0.3,0-0.5,0.2-0.5,0.5v7.2c0,0.3,0.2,0.5,0.5,0.5c0.3,0,0.5-0.2,0.5-0.5V7.2C8.5,6.9,8.3,6.6,8,6.6z"
		/>
</g>
</svg>
