<svg width="20" height="18" viewBox="0 0 20 18" fill="none" xmlns="http://www.w3.org/2000/svg">
<path d="M16.2142 8.70542C18.264 6.86269 18.4319 3.70723 16.5891 1.65746C14.8991 -0.222513 12.0702 -0.541889 10.0035 0.913991C7.75062 -0.675984 4.63538 -0.138556 3.04541 2.11432C1.58647 4.18154 1.90455 7.01332 3.78573 8.70537C1.44832 9.93751 -0.0105314 12.3667 5.72535e-05 15.0089V17.1517C5.72535e-05 17.5462 0.319852 17.866 0.714352 17.866H19.2856C19.6801 17.866 19.9999 17.5462 19.9999 17.1517V15.0089C20.0105 12.3667 18.5516 9.93751 16.2142 8.70542ZM12.8571 1.43757C14.8267 1.43539 16.4252 3.03035 16.4275 5.00001C16.429 6.40474 15.6059 7.67953 14.3249 8.25609C14.2699 8.28107 14.2149 8.30392 14.1592 8.32753C13.9829 8.39864 13.8011 8.45522 13.6157 8.49682C13.58 8.50469 13.5442 8.50896 13.5078 8.51612C13.3005 8.55583 13.0902 8.5771 12.8792 8.57969C12.7842 8.57969 12.6885 8.57253 12.5935 8.564C12.5578 8.564 12.522 8.564 12.4863 8.55684C12.0804 8.50904 11.6855 8.39265 11.3185 8.21256C11.3049 8.20612 11.2892 8.20683 11.2756 8.20114C11.2042 8.16686 11.1328 8.13685 11.0692 8.09826C11.075 8.0911 11.0785 8.08328 11.0842 8.07612C11.4117 7.65525 11.67 7.18483 11.8492 6.68256L11.8713 6.62254C11.9528 6.38265 12.0161 6.13697 12.0606 5.88753C12.0671 5.85112 12.0721 5.81609 12.0778 5.77683C12.1191 5.52291 12.1408 5.26623 12.1428 5.00896C12.1407 4.7522 12.119 4.49598 12.0778 4.24252C12.0721 4.2054 12.0671 4.17108 12.0606 4.13182C12.0161 3.88242 11.9528 3.6367 11.8713 3.39681L11.8492 3.33679C11.67 2.83452 11.4117 2.3641 11.0842 1.94323C11.0785 1.93607 11.0749 1.92824 11.0692 1.92109C11.6119 1.60452 12.2288 1.43761 12.8571 1.43757ZM3.57145 5.009C3.56638 3.04169 5.15707 1.44276 7.12438 1.43769C8.04656 1.43531 8.93375 1.79068 9.59928 2.42901C9.64072 2.46902 9.68144 2.50899 9.72141 2.55042C9.84408 2.67895 9.95721 2.81623 10.06 2.96112C10.0914 3.0054 10.12 3.05257 10.1493 3.09827C10.2491 3.25191 10.3367 3.41313 10.4114 3.58041C10.4293 3.62113 10.4428 3.66257 10.4585 3.70325C10.5338 3.88828 10.5931 4.07946 10.6357 4.27466C10.6407 4.29609 10.6421 4.31752 10.6464 4.33966C10.7369 4.78317 10.7369 5.24041 10.6464 5.68392C10.6421 5.70606 10.6407 5.72749 10.6357 5.74891C10.5931 5.94411 10.5338 6.1353 10.4585 6.32033C10.4428 6.36105 10.4292 6.40248 10.4114 6.44316C10.3366 6.6102 10.249 6.77116 10.1493 6.92459C10.12 6.9703 10.0914 7.01746 10.06 7.06174C9.95725 7.20668 9.84408 7.34391 9.72141 7.47244C9.6814 7.51388 9.64068 7.55389 9.59928 7.59386C9.31008 7.86945 8.97665 8.09449 8.61287 8.25956C8.55503 8.28597 8.49643 8.31029 8.43717 8.331C8.26499 8.39935 8.08783 8.45426 7.90719 8.49527C7.8622 8.50528 7.81574 8.51097 7.77004 8.51884C7.5761 8.55496 7.37943 8.57475 7.18218 8.57814H7.10363C6.90637 8.57479 6.70971 8.55496 6.51577 8.51884C6.47006 8.51097 6.42361 8.50528 6.37862 8.49527C6.19798 8.45426 6.02078 8.39935 5.84864 8.331C5.78933 8.30744 5.73078 8.28317 5.67294 8.25956C4.39502 7.68258 3.57308 6.4111 3.57145 5.009ZM12.8571 16.4375H1.42861V15.0089C1.41814 12.5885 2.94316 10.4274 5.22713 9.62613C6.45324 10.1366 7.8324 10.1366 9.05855 9.62613C9.29703 9.71326 9.52943 9.8161 9.75426 9.934C9.90284 10.0104 10.04 10.0976 10.1828 10.1854C10.2757 10.2432 10.37 10.2997 10.4593 10.3633C10.5971 10.4611 10.7271 10.5676 10.855 10.6768C10.9371 10.7483 11.0185 10.8197 11.0957 10.8911C11.2135 11.0025 11.3242 11.1204 11.4307 11.2411C11.5071 11.3283 11.5814 11.4168 11.6521 11.5083C11.7457 11.6283 11.835 11.7511 11.9178 11.8775C11.9893 11.9847 12.0528 12.0961 12.1157 12.2075C12.1871 12.3304 12.2528 12.4533 12.3128 12.5811C12.3728 12.709 12.4257 12.849 12.4771 12.9854C12.522 13.104 12.5699 13.2218 12.607 13.3425C12.6571 13.5082 12.6921 13.6797 12.727 13.8511C12.7485 13.9525 12.7763 14.0518 12.792 14.1546C12.8343 14.4374 12.8561 14.723 12.857 15.0089V16.4375H12.8571ZM18.5714 16.4375H14.2857V15.0089C14.2857 14.7854 14.2728 14.5639 14.2528 14.3447C14.2471 14.2804 14.2371 14.2168 14.23 14.1525C14.2107 13.9946 14.1885 13.8382 14.1585 13.6832C14.1457 13.6171 14.1321 13.5506 14.1178 13.4839C14.0835 13.3249 14.0438 13.1673 13.9985 13.0111C13.9835 12.9596 13.9699 12.9075 13.9542 12.8568C13.7542 12.2174 13.4644 11.6097 13.0935 11.0518L13.0657 11.0111C12.9428 10.8287 12.8116 10.6523 12.6721 10.4818L12.6671 10.4754C12.5243 10.2983 12.3692 10.1261 12.2064 9.96325C12.2157 9.96325 12.2257 9.96325 12.2357 9.96325C12.4373 9.98974 12.6402 10.0041 12.8436 10.0061H12.8829C13.071 10.0045 13.2589 9.9923 13.4457 9.9697C13.5043 9.96254 13.5622 9.95182 13.6207 9.94253C13.7726 9.91922 13.9226 9.88896 14.0707 9.85184C14.1129 9.84112 14.1557 9.83112 14.1986 9.81898C14.3929 9.76612 14.5837 9.70121 14.77 9.62471C17.0556 10.4252 18.582 12.5872 18.5714 15.009V16.4375H18.5714Z" fill="#909090"/>
</svg>
