<?xml version="1.0" encoding="utf-8"?>
<!-- Generator: Adobe Illustrator 25.2.0, SVG Export Plug-In . SVG Version: 6.00 Build 0)  -->
<svg version="1.1" id="Слой_1" xmlns="http://www.w3.org/2000/svg" xmlns:xlink="http://www.w3.org/1999/xlink" x="0px" y="0px"
	 viewBox="0 0 18.3 18.9" style="enable-background:new 0 0 18.3 18.9;" xml:space="preserve">
<style type="text/css">
	.st0{fill:#909090;}
</style>
<path class="st0" d="M18,14.4l-4.4-4.4c-0.1-0.1-0.3-0.2-0.5-0.2h-1.3c-0.4-0.3-0.8-0.7-1.3-0.9c1.9-1.7,2.2-4.5,0.7-6.6
	c-1-1.4-2.5-2.1-4-2.1s-3.1,0.7-4,2.1C1.7,4.3,2,7.2,3.9,8.9c-2.3,1.2-3.8,3.7-3.8,6.3v2.1c0,0.4,0.3,0.7,0.7,0.7h6.4h6.1l0.6,0.6
	c0.1,0.1,0.3,0.2,0.5,0.2s0.3-0.1,0.5-0.2l3.2-3.2C18.3,15,18.3,14.6,18,14.4z M10.5,11h2.3l3.8,3.8l-2.3,2.3l-3.8-3.8V11z M9.6,9.8
	C9.6,9.8,9.6,9.8,9.6,9.8C9.6,9.8,9.6,9.8,9.6,9.8z M3.4,5.2c0-2.1,1.7-3.8,3.8-3.8c2.1,0,3.8,1.7,3.8,3.8C11,7.3,9.3,9,7.2,9
	C5.1,9,3.4,7.3,3.4,5.2z M7.2,16.6H1.5v-1.4c0-2.4,1.5-4.6,3.8-5.4c0.6,0.2,1.2,0.4,1.8,0.4s1.2-0.1,1.8-0.4C9.1,9.8,9.2,9.9,9.4,10
	c0,0,0,0,0,0c-0.1,0.1-0.2,0.3-0.2,0.4v3.2c0,0.2,0.1,0.3,0.2,0.5l2.5,2.5H7.2z"/>
</svg>
