<?xml version="1.0" encoding="utf-8"?>
<!-- Generator: Adobe Illustrator 25.2.0, SVG Export Plug-In . SVG Version: 6.00 Build 0)  -->
<svg version="1.1" id="Слой_1" xmlns="http://www.w3.org/2000/svg" xmlns:xlink="http://www.w3.org/1999/xlink" x="0px" y="0px"
	 viewBox="0 0 14.1 18" style="enable-background:new 0 0 14.1 18;" xml:space="preserve">
<style type="text/css">
	.st0{fill:#909090;}
</style>
<path class="st0" d="M10.4,8.8c1.9-1.7,2.2-4.5,0.7-6.6c-1-1.4-2.5-2.1-4-2.1S4,0.8,3.1,2.2c-1.5,2-1.2,4.9,0.7,6.6
	C1.5,10,0,12.5,0,15.1v2.1c0,0.4,0.3,0.7,0.7,0.7h6.4h6.3c0.4,0,0.7-0.3,0.7-0.7v-2.1C14.2,12.4,12.8,10,10.4,8.8z M3.3,5.1
	C3.3,3,5,1.3,7.1,1.3c2.1,0,3.8,1.7,3.8,3.8c0,2.1-1.7,3.8-3.8,3.8C5,8.9,3.3,7.2,3.3,5.1z M12.6,16.5H7.1H1.4v-1.4
	c0-2.4,1.5-4.6,3.8-5.4c0.6,0.2,1.2,0.4,1.8,0.4S8.2,10,8.8,9.7c2.3,0.8,3.8,3,3.8,5.4V16.5z"/>
</svg>
