<?xml version="1.0" encoding="utf-8"?>
<!-- Generator: Adobe Illustrator 25.2.0, SVG Export Plug-In . SVG Version: 6.00 Build 0)  -->
<svg version="1.1" id="Слой_1" xmlns="http://www.w3.org/2000/svg" xmlns:xlink="http://www.w3.org/1999/xlink" x="0px" y="0px"
	 viewBox="0 0 17.3 19.8" style="enable-background:new 0 0 17.3 19.8;" xml:space="preserve">
<style type="text/css">
	.st0{fill:#909090;}
</style>
<path class="st0" d="M16.7,10.4l-3.3-1.2c-0.2-0.1-0.3-0.1-0.5,0l-1.2,0.4c-0.4-0.3-0.8-0.6-1.2-0.8c1.9-1.7,2.2-4.5,0.7-6.6
	c-1-1.4-2.5-2.1-4-2.1s-3.1,0.7-4,2.1C1.7,4.3,2,7.2,3.9,8.9c-2.3,1.2-3.8,3.7-3.8,6.3v2.1c0,0.4,0.3,0.7,0.7,0.7h6.4h3.3l0,0
	c0.7,0.7,1.5,1.1,2.4,1.6c0.1,0,0.2,0.1,0.3,0.1c0.1,0,0.2,0,0.3-0.1c1.9-0.9,3.7-2.1,3.7-5.1v-3.3C17.2,10.8,17,10.5,16.7,10.4z
	 M3.4,5.2c0-2.1,1.7-3.8,3.8-3.8c2.1,0,3.8,1.7,3.8,3.8C11,7.3,9.3,9,7.2,9C5.1,9,3.4,7.3,3.4,5.2z M7.2,16.6H1.5v-1.4
	c0-2.4,1.5-4.6,3.8-5.4c0.6,0.2,1.2,0.4,1.8,0.4s1.2-0.1,1.8-0.4c0.4,0.1,0.8,0.3,1.1,0.5l1.3-0.5l-1.6,0.6
	c-0.3,0.1-0.5,0.4-0.5,0.7v3.3c0,0.9,0.2,1.6,0.4,2.2c0,0,0,0,0,0H7.2z M10,17.3C10,17.3,10,17.3,10,17.3C10,17.3,10,17.3,10,17.3z
	 M15.8,14.4c0,2-0.8,2.8-2.6,3.7c-1.8-0.9-2.6-1.7-2.6-3.7v-2.8l2.6-0.9l2.6,0.9V14.4z"/>
</svg>
