<?xml version="1.0" encoding="utf-8"?>
<!-- Generator: Adobe Illustrator 25.2.0, SVG Export Plug-In . SVG Version: 6.00 Build 0)  -->
<svg version="1.1" id="Layer_1" xmlns="http://www.w3.org/2000/svg" xmlns:xlink="http://www.w3.org/1999/xlink" x="0px" y="0px"
	 viewBox="0 0 483 481" style="enable-background:new 0 0 483 481;" xml:space="preserve">
<g>
	<path d="M457.8,240.4v-63.9c0-23-17.6-42.5-40.4-45.2L356.9,25.7C350.8,15.1,341,7.5,329.3,4.4c-11.7-3.1-23.9-1.5-34.4,4.6
		L85.6,130.8H49.5c-25.2,0-45.7,20.5-45.7,45.7v256c0,25.2,20.5,45.7,45.7,45.7h362.7c25.2,0,45.7-20.5,45.7-45.7v-63.9
		c12.8-5.5,21.3-18.1,21.3-32.1v-64C479.2,258.5,470.7,245.9,457.8,240.4z M308.9,130.8l57.5-33.5l19.2,33.5H308.9z M224.4,130.8
		l120.9-70.4l7.5,13.2l-98.3,57.2H224.4z M308.6,32.6c4.1-2.4,8.9-3.1,13.6-1.8c3.7,1,6.9,3.1,9.3,6.1l-161.4,94h-30.2L308.6,32.6
		L308.6,32.6z M31.2,176.5c0-10.1,8.2-18.3,18.3-18.3h362.7c10.1,0,18.3,8.2,18.3,18.3v61h-61c-36.9,0-67,30.1-67,67s30.1,67,67,67
		h61v61c0,10.1-8.2,18.3-18.3,18.3H49.5c-10.1,0-18.3-8.2-18.3-18.3V176.5z M451.8,272.5v64c0,4.2-3.4,7.7-7.7,7.7h-74.7
		c-21.9,0-39.7-17.8-39.7-39.7s17.8-39.7,39.7-39.7h74.7C448.4,264.8,451.8,268.3,451.8,272.5z"/>
	<path d="M369.5,280.2c-13.4,0-24.3,10.9-24.3,24.3s10.9,24.3,24.3,24.3s24.3-10.9,24.3-24.3c0-6.5-2.5-12.6-7.1-17.2
		C382.1,282.7,376,280.2,369.5,280.2z"/>
</g>
</svg>
