<?xml version="1.0" encoding="utf-8"?>
<!-- Generator: Adobe Illustrator 25.2.0, SVG Export Plug-In . SVG Version: 6.00 Build 0)  -->
<svg version="1.1" id="Capa_1" xmlns="http://www.w3.org/2000/svg" xmlns:xlink="http://www.w3.org/1999/xlink" x="0px" y="0px"
	 viewBox="0 0 521.5 512" style="enable-background:new 0 0 521.5 512;" xml:space="preserve">
<g>
	<path d="M510.8,394.1l-195.7-339c-11.3-19.6-31.6-31.4-54.3-31.4s-43,11.7-54.3,31.4l-195.7,339c-11.3,19.6-11.3,43.1,0,62.7
		c11.3,19.6,31.6,31.4,54.3,31.4h391.4c22.7,0,43-11.7,54.3-31.4C522.1,437.2,522.1,413.8,510.8,394.1z M480.4,439.3
		c-5,8.7-14,13.9-24,13.9H65.1c-10,0-19-5.2-24-13.9c-5-8.7-5-19,0-27.7l195.7-339c5-8.7,14-13.9,24-13.9s19,5.2,24,13.9l195.7,339
		C485.5,420.3,485.5,430.7,480.4,439.3z"/>
	<rect x="243.3" y="173.5" width="35" height="155"/>
	<circle cx="260.8" cy="376" r="22.5"/>
</g>
</svg>
