<?xml version="1.0" encoding="utf-8"?>
<!-- Generator: Adobe Illustrator 25.2.0, SVG Export Plug-In . SVG Version: 6.00 Build 0)  -->
<svg version="1.1" id="Layer_1" xmlns="http://www.w3.org/2000/svg" xmlns:xlink="http://www.w3.org/1999/xlink" x="0px" y="0px"
	 width="200px" height="60px" viewBox="0 0 200 60" enable-background="new 0 0 200 60" xml:space="preserve">
<g>
	<g>
		<path fill="#41479B" d="M194.224,34.273H168.27c-1.262,0-2.286,1.024-2.286,2.286v15.428c0,1.262,1.024,2.286,2.286,2.286h25.954
			c1.263,0,2.286-1.024,2.286-2.286V36.559C196.51,35.297,195.487,34.273,194.224,34.273z"/>
		<path fill="#F5F5F5" d="M196.478,36.181c-0.18-1.082-1.12-1.908-2.254-1.908h-0.595l-9.75,6.388v-6.388h-5.263v6.388l-9.751-6.388
			h-0.595c-1.134,0-2.074,0.826-2.254,1.908l8.334,5.46h-8.366v5.263h8.365l-8.334,5.46c0.181,1.083,1.121,1.909,2.255,1.909h0.595
			l9.75-6.388v6.388h5.263v-6.388l9.751,6.388h0.595c1.134,0,2.074-0.826,2.255-1.908l-8.334-5.46h8.365v-5.264h-8.365
			L196.478,36.181z"/>
		<g>
			<polygon fill="#FF4B55" points="182.826,34.273 179.668,34.273 179.668,42.694 165.984,42.694 165.984,45.852 179.668,45.852 
				179.668,54.273 182.826,54.273 182.826,45.852 196.51,45.852 196.51,42.694 182.826,42.694 			"/>
			<path fill="#FF4B55" d="M167.462,54.126l11.124-7.221h-1.933l-10.119,6.568C166.782,53.762,167.1,53.989,167.462,54.126z"/>
			<path fill="#FF4B55" d="M186.636,46.905h-1.933l10.775,6.994c0.302-0.198,0.553-0.465,0.733-0.78L186.636,46.905z"/>
			<path fill="#FF4B55" d="M166.225,35.537l9.404,6.104h1.933l-10.655-6.917C166.621,34.937,166.386,35.216,166.225,35.537z"/>
			<path fill="#FF4B55" d="M185.812,41.641l10.138-6.581c-0.251-0.287-0.571-0.512-0.936-0.647l-11.135,7.228H185.812z"/>
		</g>
	</g>
	<g>
		<path fill="#FF4B55" d="M165.984,23.441c0,1.262,1.024,2.286,2.286,2.286h25.954c1.263,0,2.286-1.024,2.286-2.286v-7.714h-30.526
			V23.441z"/>
		<path fill="#F5F5F5" d="M194.224,5.727H168.27c-1.262,0-2.286,1.024-2.286,2.286v7.714h30.526V8.013
			C196.51,6.751,195.487,5.727,194.224,5.727z"/>
	</g>
	<g>
		<path fill="#FFE15A" d="M125.361,51.987c0,1.262,1.024,2.286,2.286,2.286h25.954c1.263,0,2.286-1.024,2.286-2.286v-7.714h-30.526
			V51.987z"/>
		<path fill="#4173CD" d="M153.601,34.273h-25.954c-1.262,0-2.286,1.024-2.286,2.286v7.714h30.526v-7.714
			C155.887,35.297,154.864,34.273,153.601,34.273z"/>
	</g>
	<g>
		<path fill="#73AF00" d="M127.647,5.727c-1.262,0-2.286,1.023-2.286,2.286V23.44c0,1.263,1.024,2.286,2.286,2.286h7.889V5.727
			H127.647z"/>
		<rect x="135.536" y="5.727" fill="#F5F5F5" width="10.175" height="20"/>
		<path fill="#FF4B55" d="M153.601,5.727h-7.889v20h7.889c1.263,0,2.286-1.024,2.286-2.286V8.013
			C155.887,6.75,154.863,5.727,153.601,5.727z"/>
	</g>
	<g>
		<g>
			<path fill="#C8414B" d="M84.737,51.987c0,1.262,1.024,2.286,2.286,2.286h25.954c1.263,0,2.286-1.024,2.286-2.286v-1.924H84.737
				V51.987z"/>
			<path fill="#C8414B" d="M112.977,34.273H87.023c-1.262,0-2.286,1.024-2.286,2.286v1.924h30.526v-1.924
				C115.263,35.297,114.24,34.273,112.977,34.273z"/>
		</g>
		<rect x="84.737" y="38.484" fill="#FFD250" width="30.526" height="11.579"/>
		<path fill="#C8414B" d="M97.632,44.273l0.446-2.008c0.041-0.185-0.1-0.36-0.289-0.36h-0.314c-0.189,0-0.33,0.175-0.289,0.36
			L97.632,44.273z"/>
		<rect x="97.106" y="43.22" fill="#F5F5F5" width="1.053" height="4.473"/>
		<rect x="96.842" y="42.694" fill="#FAB446" width="1.579" height="0.526"/>
		<g>
			<rect x="95.79" y="44.273" fill="#C8414B" width="2.632" height="0.526"/>
			<polygon fill="#C8414B" points="98.421,46.378 96.842,45.852 96.842,45.326 98.421,45.852 			"/>
			<path fill="#C8414B" d="M89.737,44.273l0.446-2.008c0.041-0.185-0.1-0.36-0.289-0.36H89.58c-0.189,0-0.33,0.175-0.289,0.36
				L89.737,44.273z"/>
		</g>
		<path fill="#F5F5F5" d="M91.579,42.694c-0.291,0-0.526,0.236-0.526,0.526v3.421c0,0.639,0.597,1.842,2.632,1.842
			c2.035,0,2.632-1.203,2.632-1.842V43.22c0-0.291-0.236-0.526-0.526-0.526H91.579z"/>
		<g>
			<path fill="#C8414B" d="M93.684,45.326h-2.631V43.22c0-0.291,0.236-0.526,0.526-0.526h2.105
				C93.684,42.694,93.684,45.326,93.684,45.326z"/>
			<path fill="#C8414B" d="M93.684,45.326h2.632v1.316c0,0.727-0.589,1.316-1.316,1.316l0,0c-0.727,0-1.316-0.589-1.316-1.316
				V45.326z"/>
		</g>
		<path fill="#FAB446" d="M91.053,45.326h2.632v1.316c0,0.727-0.589,1.316-1.316,1.316l0,0c-0.727,0-1.316-0.589-1.316-1.316V45.326
			z"/>
		<g>
			<path fill="#C8414B" d="M93.158,47.688v-2.363h-0.526v2.605C92.827,47.891,93.004,47.804,93.158,47.688z"/>
			<path fill="#C8414B" d="M92.105,47.931v-2.605h-0.526v2.363C91.733,47.804,91.91,47.891,92.105,47.931z"/>
		</g>
		<rect x="91.579" y="44.273" fill="#FFB441" width="1.579" height="0.526"/>
		<g>
			<rect x="91.579" y="43.22" fill="#FAB446" width="1.579" height="0.526"/>
			<rect x="91.842" y="43.533" fill="#FAB446" width="1.053" height="0.953"/>
		</g>
		<rect x="89.21" y="43.22" fill="#F5F5F5" width="1.053" height="4.473"/>
		<g>
			<rect x="88.947" y="47.431" fill="#FAB446" width="1.579" height="0.526"/>
			<rect x="88.947" y="42.694" fill="#FAB446" width="1.579" height="0.526"/>
		</g>
		<rect x="88.685" y="47.957" fill="#5064AA" width="2.105" height="0.526"/>
		<rect x="97.106" y="47.431" fill="#FAB446" width="1.579" height="0.526"/>
		<rect x="96.579" y="47.957" fill="#5064AA" width="2.105" height="0.526"/>
		<rect x="92.106" y="42.168" fill="#FAB446" width="3.158" height="0.526"/>
		<rect x="93.422" y="40.589" fill="#FFB441" width="0.526" height="1.579"/>
		<g>
			<path fill="#F5F5F5" d="M93.158,41.378c-0.435,0-0.789-0.354-0.789-0.789c0-0.435,0.354-0.789,0.789-0.789
				c0.435,0,0.789,0.354,0.789,0.789C93.948,41.024,93.593,41.378,93.158,41.378z M93.158,40.326c-0.145,0-0.263,0.118-0.263,0.263
				s0.118,0.263,0.263,0.263c0.145,0,0.263-0.118,0.263-0.263S93.303,40.326,93.158,40.326z"/>
			<path fill="#F5F5F5" d="M94.211,41.378c-0.435,0-0.789-0.354-0.789-0.789c0-0.435,0.354-0.789,0.789-0.789
				c0.435,0,0.789,0.354,0.789,0.789C95,41.024,94.646,41.378,94.211,41.378z M94.211,40.326c-0.145,0-0.263,0.118-0.263,0.263
				s0.118,0.263,0.263,0.263c0.145,0,0.263-0.118,0.263-0.263S94.356,40.326,94.211,40.326z"/>
			<path fill="#F5F5F5" d="M95.263,41.905c-0.435,0-0.789-0.354-0.789-0.789c0-0.435,0.354-0.789,0.789-0.789
				s0.789,0.354,0.789,0.789C96.053,41.55,95.699,41.905,95.263,41.905z M95.263,40.852c-0.145,0-0.263,0.118-0.263,0.263
				c0,0.145,0.118,0.263,0.263,0.263c0.145,0,0.263-0.118,0.263-0.263C95.526,40.97,95.409,40.852,95.263,40.852z"/>
			<path fill="#F5F5F5" d="M92.105,41.905c-0.435,0-0.789-0.354-0.789-0.789c0-0.435,0.354-0.789,0.789-0.789
				c0.435,0,0.789,0.354,0.789,0.789C92.895,41.55,92.541,41.905,92.105,41.905z M92.105,40.852c-0.145,0-0.263,0.118-0.263,0.263
				c0,0.145,0.118,0.263,0.263,0.263c0.145,0,0.263-0.118,0.263-0.263C92.369,40.97,92.251,40.852,92.105,40.852z"/>
		</g>
		<path fill="#FAB446" d="M95.263,46.378v0.263c0,0.145-0.118,0.263-0.263,0.263c-0.145,0-0.263-0.117-0.263-0.263v-0.263H95.263
			 M95.79,45.852h-1.579v0.789c0,0.435,0.354,0.789,0.789,0.789s0.789-0.354,0.789-0.789L95.79,45.852L95.79,45.852z"/>
		<path fill="#FFA0D2" d="M95,44.799L95,44.799c-0.291,0-0.526-0.236-0.526-0.526v-0.526c0-0.291,0.236-0.526,0.526-0.526l0,0
			c0.291,0,0.526,0.236,0.526,0.526v0.526C95.527,44.564,95.291,44.799,95,44.799z"/>
		<circle fill="#5064AA" cx="93.684" cy="45.325" r="0.789"/>
		<rect x="93.422" y="39.536" fill="#FAB446" width="0.526" height="1.579"/>
		<path fill="#C8414B" d="M92.105,42.168l-0.526-0.527l0.308-0.308c0.477-0.477,1.123-0.744,1.797-0.744l0,0
			c0.674,0,1.32,0.268,1.797,0.744l0.308,0.308l-0.526,0.526L92.105,42.168L92.105,42.168z"/>
		<g>
			<circle fill="#FFD250" cx="93.684" cy="41.641" r="0.263"/>
			<circle fill="#FFD250" cx="92.632" cy="41.641" r="0.263"/>
			<circle fill="#FFD250" cx="94.737" cy="41.641" r="0.263"/>
		</g>
		<g>
			<rect x="88.947" y="44.273" fill="#C8414B" width="2.632" height="0.526"/>
			<polygon fill="#C8414B" points="88.948,46.378 90.526,45.852 90.526,45.326 88.948,45.852 			"/>
		</g>
	</g>
	<g>
		<path fill="#464655" d="M112.977,5.727H87.023c-1.262,0-2.286,1.024-2.286,2.286v4.38h30.526v-4.38
			C115.263,6.751,114.24,5.727,112.977,5.727z"/>
		<path fill="#FFE15A" d="M84.737,23.441c0,1.262,1.024,2.286,2.286,2.286h25.954c1.263,0,2.286-1.024,2.286-2.286v-4.38H84.737
			V23.441z"/>
		<rect x="84.737" y="12.394" fill="#FF4B55" width="30.526" height="6.666"/>
	</g>
	<g>
		<path fill="#F5F5F5" d="M72.353,34.273H46.399c-1.262,0-2.286,1.024-2.286,2.286v4.38h30.526v-4.38
			C74.639,35.297,73.616,34.273,72.353,34.273z"/>
		<path fill="#FF4B55" d="M44.113,51.987c0,1.262,1.024,2.286,2.286,2.286h25.954c1.263,0,2.286-1.024,2.286-2.286v-4.38H44.113
			V51.987z"/>
		<rect x="44.113" y="40.94" fill="#41479B" width="30.526" height="6.666"/>
	</g>
	<g>
		<path fill="#41479B" d="M46.399,5.727c-1.262,0-2.286,1.024-2.286,2.286V23.44c0,1.263,1.024,2.287,2.286,2.287h7.889v-20H46.399z
			"/>
		<rect x="54.288" y="5.727" fill="#F5F5F5" width="10.175" height="20"/>
		<path fill="#FF4B55" d="M72.353,5.727h-7.889v20h7.889c1.263,0,2.286-1.024,2.286-2.286V8.013
			C74.639,6.751,73.615,5.727,72.353,5.727z"/>
	</g>
	<g>
		<path fill="#FF4B55" d="M31.73,54.273H5.776c-1.262,0-2.286-1.024-2.286-2.286V36.559c0-1.262,1.024-2.286,2.286-2.286H31.73
			c1.263,0,2.286,1.024,2.286,2.286v15.428C34.016,53.249,32.993,54.273,31.73,54.273z"/>
		<path fill="#73AF00" d="M5.776,34.273c-1.262,0-2.286,1.024-2.286,2.286v15.428c0,1.262,1.024,2.286,2.286,2.286h8.766v-20H5.776z
			"/>
		<circle fill="#FFE15A" cx="14.547" cy="44.273" r="4.733"/>
		<path fill="#FF4B55" d="M16.126,42.694v2.105c0,0.871-0.708,1.579-1.579,1.579s-1.579-0.708-1.579-1.579v-2.105H16.126
			 M16.652,41.641h-4.211c-0.291,0-0.526,0.236-0.526,0.526v2.632c0,1.453,1.178,2.632,2.632,2.632s2.632-1.178,2.632-2.632v-2.631
			C17.178,41.877,16.943,41.641,16.652,41.641L16.652,41.641z"/>
		<path fill="#F5F5F5" d="M16.126,42.694v2.105c0,0.871-0.708,1.579-1.579,1.579s-1.579-0.708-1.579-1.579v-2.105H16.126"/>
		<g>
			<circle fill="#FFE15A" cx="12.437" cy="42.168" r="0.263"/>
			<circle fill="#FFE15A" cx="16.648" cy="42.168" r="0.263"/>
			<circle fill="#FFE15A" cx="12.437" cy="44.273" r="0.263"/>
			<circle fill="#FFE15A" cx="16.648" cy="44.273" r="0.263"/>
			<circle fill="#FFE15A" cx="14.543" cy="42.168" r="0.263"/>
			<circle fill="#FFE15A" cx="16.123" cy="46.214" r="0.263"/>
			<circle fill="#FFE15A" cx="12.994" cy="46.214" r="0.263"/>
		</g>
		<g>
			<path fill="#41479B" d="M14.887,44.14v0.453c0,0.187-0.153,0.34-0.34,0.34s-0.34-0.153-0.34-0.34V44.14H14.887"/>
			<path fill="#41479B" d="M14.887,43.065v0.453c0,0.187-0.153,0.34-0.34,0.34s-0.34-0.153-0.34-0.34v-0.453H14.887"/>
			<path fill="#41479B" d="M14.887,45.225v0.453c0,0.187-0.153,0.34-0.34,0.34s-0.34-0.153-0.34-0.34v-0.453H14.887"/>
			<path fill="#41479B" d="M15.802,44.14v0.453c0,0.187-0.153,0.34-0.34,0.34s-0.34-0.153-0.34-0.34V44.14H15.802"/>
			<path fill="#41479B" d="M13.971,44.14v0.453c0,0.187-0.153,0.34-0.34,0.34s-0.34-0.153-0.34-0.34V44.14H13.971"/>
		</g>
	</g>
	<g>
		<path fill="#FF4B55" d="M31.73,5.727H5.776c-1.262,0-2.286,1.024-2.286,2.286v15.428c0,1.262,1.024,2.286,2.286,2.286H31.73
			c1.263,0,2.286-1.024,2.286-2.286V8.013C34.016,6.751,32.993,5.727,31.73,5.727z"/>
		<g>
			<path fill="#FFE15A" d="M8.558,8.855l0.502,1.504l1.586,0.012c0.205,0.002,0.29,0.264,0.125,0.386l-1.276,0.942l0.478,1.512
				c0.063,0.196-0.16,0.358-0.327,0.238l-1.29-0.922l-1.29,0.922c-0.168,0.12-0.391-0.042-0.329-0.238l0.478-1.512L5.94,10.757
				c-0.165-0.122-0.08-0.384,0.125-0.386l1.586-0.012l0.502-1.504C8.218,8.66,8.493,8.66,8.558,8.855z"/>
			<path fill="#FFE15A" d="M14.317,9.225l0.36,0.491l0.581-0.182c0.075-0.023,0.137,0.062,0.091,0.126l-0.355,0.494l0.352,0.496
				c0.046,0.064-0.017,0.15-0.092,0.126l-0.579-0.185l-0.363,0.488c-0.047,0.063-0.147,0.03-0.148-0.049l-0.003-0.608l-0.577-0.195
				c-0.075-0.025-0.074-0.131,0.001-0.156l0.578-0.191l0.007-0.608C14.17,9.194,14.271,9.162,14.317,9.225z"/>
			<path fill="#FFE15A" d="M12.127,7.763l0.605,0.066l0.257-0.552c0.033-0.071,0.138-0.059,0.154,0.018l0.124,0.595l0.604,0.075
				c0.078,0.01,0.099,0.113,0.031,0.153l-0.527,0.303l0.115,0.597c0.015,0.077-0.077,0.129-0.136,0.076l-0.45-0.408L12.371,8.98
				c-0.069,0.038-0.147-0.034-0.114-0.106l0.249-0.555l-0.444-0.415C12.004,7.85,12.048,7.754,12.127,7.763z"/>
			<path fill="#FFE15A" d="M13.083,13.659l-0.36,0.491l-0.581-0.182c-0.075-0.024-0.137,0.062-0.091,0.126l0.355,0.494l-0.351,0.496
				c-0.046,0.064,0.017,0.15,0.092,0.126l0.579-0.185l0.363,0.488c0.047,0.063,0.147,0.03,0.148-0.049l0.003-0.608l0.577-0.194
				c0.075-0.025,0.074-0.131-0.001-0.156l-0.578-0.191l-0.007-0.609C13.23,13.628,13.129,13.595,13.083,13.659z"/>
			<path fill="#FFE15A" d="M15.273,12.285l-0.605,0.066l-0.258-0.552c-0.033-0.071-0.138-0.059-0.154,0.018l-0.124,0.595
				l-0.604,0.075c-0.078,0.01-0.099,0.113-0.031,0.153l0.528,0.302L13.91,13.54c-0.015,0.077,0.077,0.129,0.136,0.076l0.451-0.409
				l0.533,0.294c0.069,0.038,0.147-0.034,0.114-0.105l-0.249-0.555l0.444-0.416C15.396,12.372,15.352,12.276,15.273,12.285z"/>
		</g>
	</g>
</g>
</svg>
