<?xml version="1.0" encoding="utf-8"?>
<!-- Generator: Adobe Illustrator 25.2.0, SVG Export Plug-In . SVG Version: 6.00 Build 0)  -->
<svg version="1.1" id="Слой_1" xmlns="http://www.w3.org/2000/svg" xmlns:xlink="http://www.w3.org/1999/xlink" x="0px" y="0px"
	 width="172.4px" height="26.3px" viewBox="0 0 172.4 26.3" enable-background="new 0 0 172.4 26.3" xml:space="preserve">
<g>
	<path fill="#FFFFFF" d="M26.1,6.2l-3,13.8h-3.6l3-13.8H26.1z M41,15.2l1.9-5.2l1.1,5.2H41z M45,20h3.3L45.5,6.2h-3.1
		c-0.6,0-1.3,0.4-1.5,1L35.6,20h3.8l0.7-2.1h4.6L45,20z M35.7,15.5c0-3.6-5-3.8-5-5.5c0-0.5,0.5-1,1.5-1.1c1.2-0.1,2.5,0.1,3.5,0.6
		l0.6-2.9c-1-0.4-2.1-0.6-3.2-0.6c-3.5,0-6,1.9-6,4.6c0,2,1.8,3.1,3.1,3.8c1.4,0.6,1.8,1,1.8,1.6c0,0.9-1.1,1.3-2.1,1.4
		c-1.3,0.1-2.6-0.3-3.6-0.9l-0.7,3c1.3,0.5,2.6,0.7,4,0.7C33.3,20.2,35.7,18.4,35.7,15.5z M21,6.2L15.2,20h-3.8L8.6,9
		c0-0.5-0.4-1-0.8-1.2C6.6,7.3,5.5,6.9,4.2,6.6l0.1-0.4h6.1c0.4,0,0.8,0.2,1.1,0.4c0.3,0.3,0.5,0.6,0.6,1l1.5,8l3.7-9.4
		C17.3,6.2,21,6.2,21,6.2z"/>
	<path fill="#FFFFFF" d="M76.5,3.2l-1.1,5.2H74l1.1-5.2C75.1,3.2,76.5,3.2,76.5,3.2z M82.1,6.6l0.7-2l0.4,2H82.1z M83.6,8.4h1.2
		l-1.1-5.2h-1.2c-0.2,0-0.5,0.2-0.6,0.4l-2,4.8h1.4l0.3-0.8h1.7L83.6,8.4z M80.1,6.7c0-1.4-1.9-1.4-1.9-2.1c0-0.2,0.2-0.4,0.6-0.4
		c0.5,0,0.9,0,1.3,0.2l0.2-1.1c-0.4-0.2-0.8-0.2-1.2-0.2c-1.3,0-2.3,0.7-2.3,1.7c0,0.8,0.7,1.2,1.2,1.4c0.5,0.3,0.7,0.4,0.7,0.6
		c0,0.3-0.4,0.5-0.8,0.5c-0.5,0-1-0.1-1.4-0.3l-0.3,1.1c0.5,0.2,1,0.3,1.5,0.3C79.2,8.5,80.1,7.8,80.1,6.7z M74.6,3.2l-2.2,5.2H71
		l-1.1-4.1c0-0.2-0.2-0.4-0.3-0.5c-0.4-0.2-0.9-0.3-1.3-0.5V3.1h2.3c0.1,0,0.3,0.1,0.4,0.2s0.2,0.2,0.2,0.4l0.6,3l1.4-3.5
		C73.2,3.2,74.6,3.2,74.6,3.2z"/>
	<path fill="#FFFFFF" d="M65.4,11.6h23.1v11.5H65.4V11.6z"/>
	<path fill="#0C0D26" d="M70.8,18c0.2,0.1,0.5,0.2,0.7,0.2c0.3,0,0.5-0.1,0.5-0.3c0-0.2-0.1-0.3-0.5-0.5c-0.5-0.2-0.7-0.4-0.7-0.7
		c0.1-0.5,0.5-0.8,0.9-0.7c0.2,0,0.5,0.1,0.6,0.1l-0.1,0.4c-0.2-0.1-0.3-0.1-0.5-0.1c-0.3,0-0.5,0.2-0.5,0.3c0,0.2,0.2,0.3,0.5,0.5
		c0.5,0.2,0.7,0.4,0.7,0.8s-0.3,0.8-1,0.8c-0.2,0-0.5-0.1-0.7-0.2V18H70.8z M74.3,17.3h-1V18h1.1v0.4h-1.6v-2.6h1.5v0.4h-1v0.7h1
		V17.3z M76.7,18.4c-0.2,0.1-0.5,0.1-0.7,0.1c-0.7,0.1-1.3-0.5-1.3-1.1v-0.2c-0.1-0.7,0.5-1.4,1.3-1.4c0.3,0,0.5,0.1,0.8,0.1
		l-0.1,0.4c-0.2-0.1-0.3-0.1-0.5-0.1c-0.5-0.1-0.9,0.3-0.9,0.8v0.1C75.2,17.6,75.6,18,76,18h0.2c0.2,0,0.3-0.1,0.5-0.1V18.4z
		 M77.5,15.9v1.5c0,0.5,0.2,0.7,0.6,0.7c0.3,0,0.6-0.2,0.6-0.7v-1.5h0.5v1.5c0,0.8-0.4,1.1-1,1.1s-1-0.3-1-1.1v-1.5H77.5z M80,17.1
		h0.3c0.3,0,0.5-0.2,0.5-0.5s-0.2-0.4-0.5-0.4H80V17.1z M79.6,15.9c0.2-0.1,0.5-0.1,0.7-0.1c0.3,0,0.6,0.1,0.8,0.2
		c0.1,0.1,0.2,0.3,0.2,0.5s0,0.4-0.2,0.5c0,0.1-0.1,0.1-0.1,0.1c-0.1,0-0.1,0-0.2,0c0.1,0,0.2,0.1,0.3,0.2c0.1,0.1,0.1,0.2,0.1,0.3
		c0.1,0.2,0.1,0.5,0.2,0.7H81c-0.1-0.2-0.1-0.4-0.2-0.6c-0.1-0.3-0.2-0.5-0.5-0.5h-0.2v1h-0.5v-2.5h0V15.9z"/>
	<path fill="#0C0D26" d="M83.2,17.3h-1V18h1.1v0.4h-1.6v-2.6h1.5v0.4h-1v0.7h1V17.3z"/>
	<path fill="#FFFFFF" d="M110.3,23v-1.4c0-0.5-0.3-0.8-0.8-0.8h-0.1c-0.3,0-0.6,0.1-0.7,0.4c-0.2-0.2-0.4-0.4-0.7-0.4
		c-0.2,0-0.5,0.1-0.6,0.3v-0.2h-0.5V23h0.5v-1.2c0-0.3,0.2-0.5,0.5-0.5s0.5,0.2,0.5,0.6V23h0.5v-1.2c0-0.3,0.2-0.5,0.5-0.5
		s0.5,0.2,0.5,0.6V23H110.3z M117.1,20.9h-0.7v-0.6h-0.5v0.6h-0.5v0.4h0.5v1c0,0.5,0.2,0.8,0.7,0.8c0.2,0,0.4-0.1,0.6-0.2l-0.1-0.4
		c-0.1,0.1-0.3,0.1-0.4,0.1c-0.2,0-0.3-0.1-0.3-0.3v-1h0.7L117.1,20.9z M121.1,20.8c-0.2,0-0.5,0.1-0.6,0.3v-0.2H120V23h0.5v-1.2
		c0-0.3,0.2-0.6,0.5-0.6c0.1,0,0.2,0,0.3,0.1l0.1-0.5H121.1z M115.1,21.1c-0.3-0.2-0.6-0.2-0.9-0.2c-0.5,0-0.9,0.2-0.9,0.7
		s0.2,0.6,0.7,0.6l0.2,0.1c0.2,0.1,0.3,0.1,0.3,0.2s-0.2,0.2-0.5,0.2c-0.2,0-0.5-0.1-0.7-0.2l-0.2,0.3c0.3,0.2,0.6,0.3,0.9,0.3
		c0.6,0,1-0.3,1-0.7c0-0.4-0.3-0.6-0.7-0.6h-0.2c-0.2-0.1-0.3-0.1-0.3-0.2c0-0.2,0.2-0.2,0.4-0.2c0.2,0,0.5,0.1,0.7,0.2L115.1,21.1z
		 M127.4,20.8c-0.2,0-0.5,0.1-0.6,0.3v-0.2h-0.5V23h0.5v-1.2c0-0.3,0.2-0.6,0.5-0.6c0.1,0,0.2,0,0.3,0.1l0.1-0.5H127.4z M121.5,21.9
		c0,0.6,0.5,1.1,1.1,1.1h0.1c0.3,0,0.6-0.1,0.7-0.2l-0.2-0.4c-0.2,0.1-0.4,0.2-0.6,0.2c-0.4,0-0.7-0.3-0.7-0.7
		c0-0.4,0.3-0.7,0.7-0.7c0.2,0,0.4,0.1,0.6,0.2l0.2-0.4c-0.2-0.2-0.5-0.3-0.7-0.2h-0.1C122,20.8,121.5,21.3,121.5,21.9z M125.8,23
		v-2.1h-0.5v0.2c-0.2-0.2-0.4-0.3-0.7-0.3c-0.6,0-1.1,0.5-1.1,1.1c0,0.3,0.1,0.6,0.3,0.8c0.2,0.2,0.5,0.3,0.8,0.3s0.5-0.1,0.7-0.3
		V23H125.8z M124.1,22c0-0.3,0.3-0.6,0.7-0.6c0.3,0,0.6,0.3,0.6,0.7c0,0.2-0.1,0.3-0.2,0.4s-0.3,0.2-0.4,0.2
		C124.4,22.6,124.1,22.3,124.1,22z M118.5,20.8c-0.6,0.1-1.1,0.6-1,1.2s0.5,1,1,1c0.3,0,0.6-0.1,0.9-0.3l-0.2-0.3
		c-0.2,0.1-0.4,0.2-0.6,0.2c-0.3,0.1-0.6-0.2-0.6-0.5h1.5V22C119.5,21.4,119.1,21,118.5,20.8L118.5,20.8z M118.5,21.3
		c0.3,0,0.5,0.2,0.5,0.5h-1C118,21.5,118.3,21.2,118.5,21.3z M130.1,23v-2.9h-0.5v1.1c-0.2-0.2-0.4-0.3-0.7-0.3
		c-0.6,0.1-1.1,0.6-1,1.2c0.1,0.6,0.5,1,1,1c0.3,0,0.5-0.1,0.7-0.3V23H130.1z M128.4,21.9c0-0.3,0.3-0.6,0.7-0.6
		c0.3,0,0.6,0.3,0.6,0.7c0,0.2-0.1,0.3-0.2,0.4c-0.1,0.1-0.3,0.2-0.4,0.2C128.6,22.6,128.4,22.3,128.4,21.9
		C128.4,22,128.4,21.9,128.4,21.9z M112.8,23v-2.1h-0.5v0.2c-0.2-0.2-0.4-0.3-0.6-0.3c-0.6-0.1-1.1,0.4-1.2,1s0.4,1.1,1,1.2h0.2
		c0.2,0,0.5-0.1,0.6-0.3V23H112.8z M111.1,22c0-0.3,0.3-0.6,0.7-0.6c0.3,0,0.6,0.3,0.6,0.7c0,0.2-0.1,0.3-0.2,0.4s-0.3,0.2-0.4,0.2
		C111.4,22.6,111.1,22.4,111.1,22z M130.8,22.7L130.8,22.7l0.1,0.1l0.1,0.1V23c0,0,0,0.1-0.1,0.1l-0.1,0.1c-0.1,0.1-0.2,0-0.3-0.1
		v-0.2l0.1-0.1l0.1-0.1C130.7,22.7,130.8,22.7,130.8,22.7z M130.8,23.1L130.8,23.1c0.1,0,0.1,0,0.1-0.1c0.1-0.1,0.1-0.2,0-0.2
		l-0.1-0.1h-0.1l-0.1,0.1C130.7,22.9,130.7,23,130.8,23.1C130.7,23.1,130.7,23.1,130.8,23.1L130.8,23.1L130.8,23.1z M130.8,22.8
		L130.8,22.8L130.8,22.8l0.1,0.1h-0.1l0.1,0.1h-0.1l-0.1-0.1V23h-0.1v-0.2H130.8z M130.7,22.8L130.7,22.8L130.7,22.8z"/>
	<path fill="#FF5F00" d="M115,4.9h7v12.5h-7V4.9z"/>
	<path fill="#EB001B" d="M115.4,11.1c0-1.2,0.3-2.4,0.8-3.5s1.3-2,2.2-2.8c-3.4-2.7-8.4-2.1-11.1,1.3s-2.1,8.4,1.3,11.1
		c1.4,1.1,3.1,1.7,4.9,1.7s3.5-0.6,4.9-1.7C116.6,15.8,115.4,13.6,115.4,11.1z"/>
	<path fill="#F79E1B" d="M130.5,16v-0.2h0.1v-0.1h-0.3v0.1h0.1L130.5,16z M131,16v-0.3l0,0l-0.1,0.2l-0.1-0.2h-0.1V16h0.1v-0.2
		l0.1,0.2H131l0.1-0.2V16H131z M131.3,11.1c0,1-0.2,2.1-0.6,3c-0.4,1-1,1.8-1.7,2.6c-0.7,0.7-1.6,1.3-2.6,1.7c-1,0.4-2,0.6-3,0.6
		c-1.8,0-3.5-0.6-4.9-1.7c3.4-2.7,4-7.7,1.4-11.1c-0.4-0.5-0.9-1-1.4-1.4c3.4-2.7,8.4-2.1,11.1,1.3C130.7,7.6,131.3,9.3,131.3,11.1z
		"/>
	<path fill="#FFFFFF" d="M167.5,22.9l-0.1,0.1L167.5,22.9z M167.6,23v-0.1V23l-0.1-0.1L167.6,23l-0.1-0.1L167.6,23v-0.1h0.1
		L167.6,23z M149.7,23h-0.3v-3h0.3V23z M151.7,20.1c0.2,0,0.5,0.1,0.7,0.1c0.2,0.1,0.3,0.2,0.5,0.3c0.1,0.1,0.2,0.3,0.3,0.5
		s0.1,0.4,0.1,0.6s0,0.4-0.1,0.6s-0.2,0.3-0.3,0.5c-0.2,0.1-0.3,0.2-0.5,0.3c-0.2,0.1-0.5,0.1-0.7,0.1h-1.1v-3H151.7z M150.8,20.3
		v2.5h0.8c0.2,0,0.4,0,0.6-0.1c0.2-0.1,0.3-0.1,0.4-0.2c0.1-0.1,0.2-0.2,0.2-0.4c0.1-0.3,0.2-0.7,0.1-1c-0.1-0.2-0.1-0.3-0.2-0.4
		c-0.1-0.1-0.3-0.2-0.4-0.2c-0.2-0.1-0.4-0.1-0.6-0.1h-0.9V20.3z M156.5,20c0.1,0,0.2,0,0.4,0.1c0.1,0,0.2,0.1,0.3,0.1
		c0.1,0.1,0.2,0.1,0.3,0.2s0.2,0.2,0.2,0.2l-0.2,0.1c-0.1-0.1-0.1-0.2-0.2-0.2c-0.1-0.1-0.2-0.1-0.2-0.2c-0.1-0.1-0.2-0.1-0.3-0.1
		s-0.2-0.1-0.3-0.1c-0.2,0-0.3,0.1-0.5,0.1c-0.2,0.1-0.3,0.2-0.4,0.3s-0.2,0.2-0.3,0.4c-0.1,0.3-0.1,0.7,0,1
		c0.1,0.2,0.2,0.3,0.3,0.4c0.2,0.2,0.6,0.3,0.9,0.3c0.1,0,0.2,0,0.3-0.1c0.3-0.1,0.5-0.2,0.7-0.5l0.2,0.2c0,0.1-0.1,0.2-0.2,0.2
		c-0.1,0.1-0.2,0.1-0.3,0.2s-0.2,0.1-0.3,0.1c-0.3,0.1-0.7,0.1-1-0.1c-0.2-0.1-0.3-0.2-0.5-0.3c-0.1-0.1-0.2-0.3-0.3-0.5
		s-0.1-0.4-0.1-0.6s0-0.4,0.1-0.6s0.2-0.3,0.3-0.5c0.1-0.1,0.3-0.2,0.5-0.3C156.1,20.1,156.2,20,156.5,20z M158.5,21.4
		c0.1-0.1,0.1-0.1,0.1-0.2c0.1-0.1,0.1-0.1,0.2-0.1c0.1-0.1,0.1-0.1,0.2-0.1h0.2c0.1,0,0.2,0,0.3,0.1s0.2,0.1,0.3,0.2
		s0.1,0.2,0.2,0.2c0.1,0.1,0.1,0.2,0.1,0.3v1.3h-0.2V22c0-0.1,0-0.2-0.1-0.3c-0.1-0.1-0.1-0.2-0.1-0.2c-0.1-0.1-0.1-0.1-0.2-0.1
		c-0.1-0.1-0.2-0.1-0.3-0.1s-0.2,0-0.3,0.1s-0.2,0.1-0.2,0.1c-0.1,0.1-0.1,0.1-0.1,0.2c-0.1,0.1-0.1,0.2-0.1,0.3v1.1h-0.2V20h0.2
		L158.5,21.4L158.5,21.4z M161.7,21c0.1,0,0.2,0,0.4,0.1c0.1,0.1,0.2,0.1,0.3,0.2s0.2,0.2,0.2,0.3c0.1,0.1,0.1,0.3,0.1,0.4v0.1H161
		c0,0.1,0.1,0.2,0.1,0.3c0,0.1,0.1,0.2,0.2,0.2c0.1,0.1,0.1,0.1,0.2,0.1c0.2,0.1,0.5,0.1,0.7,0c0.1-0.1,0.2-0.1,0.3-0.2l0.1,0.2
		l-0.2,0.2c-0.1,0.1-0.1,0.1-0.2,0.1c-0.1,0-0.1,0.1-0.2,0.1h-0.2c-0.1,0-0.3,0-0.4-0.1c-0.1-0.1-0.2-0.1-0.3-0.2s-0.2-0.2-0.2-0.3
		c-0.1-0.1-0.1-0.3-0.1-0.4s0-0.3,0.1-0.4s0.1-0.2,0.2-0.3c0.1-0.1,0.2-0.2,0.3-0.2C161.4,21.1,161.5,21,161.7,21z M161.7,21.2
		c-0.1,0-0.2,0-0.3,0.1c-0.2,0.1-0.3,0.2-0.4,0.3c-0.1,0.1-0.1,0.2-0.1,0.3h1.4c0-0.1-0.1-0.2-0.1-0.3c-0.1-0.1-0.1-0.2-0.2-0.2
		C162,21.3,161.9,21.2,161.7,21.2z M164.1,21c0.1,0,0.3,0.1,0.4,0.1c0.1,0.1,0.2,0.1,0.3,0.2l-0.2,0.2c-0.1-0.1-0.2-0.1-0.3-0.2
		s-0.2-0.1-0.3-0.1s-0.2,0-0.3,0.1c-0.1,0-0.2,0.1-0.2,0.2c-0.1,0.1-0.1,0.2-0.2,0.2c-0.1,0.2-0.1,0.5,0,0.6c0,0.1,0.1,0.2,0.2,0.2
		c0.1,0.1,0.2,0.1,0.2,0.2c0.1,0,0.2,0.1,0.3,0.1s0.2,0,0.3-0.1s0.2-0.1,0.3-0.2l0.2,0.2c-0.1,0.1-0.2,0.2-0.3,0.2
		c-0.1,0.1-0.3,0.1-0.4,0.1c-0.2,0-0.3,0-0.4-0.1c-0.2-0.1-0.5-0.3-0.5-0.6c-0.1-0.3-0.1-0.6,0-0.8c0.1-0.2,0.3-0.5,0.5-0.6
		C163.8,21,164,20.9,164.1,21z M165.7,21.9h0.3l0.9-0.9h0.3l-1,1l1,1.1h-0.3l-0.9-1h-0.4v1h-0.2V20h0.2v1.9H165.7z M152,18.5v-1
		v-0.1c0-0.3-0.3-0.6-0.6-0.6h-0.1c-0.2,0-0.5,0.1-0.6,0.3c-0.1-0.2-0.3-0.3-0.5-0.3s-0.4,0.1-0.5,0.2v-0.2h-0.3v1.7h0.3v-1
		c0-0.1,0-0.1,0-0.2c0,0,0-0.1,0.1-0.1l0.1-0.1c0,0,0.1,0,0.2,0c0.2,0,0.3,0.2,0.3,0.5v0.9h0.3v-0.9v-0.1c0-0.1,0-0.1,0-0.2
		c0,0,0-0.1,0.1-0.1l0.1-0.1c0,0,0.1,0,0.2,0c0.2,0,0.3,0.2,0.3,0.5v0.9C151.4,18.5,152,18.5,152,18.5z M157.3,16.9h-0.6v-0.5h-0.3
		v0.5H156v0.3h0.3V18c0,0.4,0.2,0.6,0.6,0.6c0.2,0,0.3-0.1,0.5-0.1l-0.1-0.3c-0.1,0.1-0.2,0.1-0.3,0.1c-0.2,0-0.2-0.1-0.2-0.3v-0.7
		h0.6v-0.4H157.3z M160.3,16.8c-0.2,0-0.3,0.1-0.5,0.2v-0.2h-0.3v1.7h0.3v-0.9c0-0.3,0.1-0.4,0.3-0.4c0.1,0,0.2,0,0.2,0.1l0.1-0.3
		C160.4,16.8,160.3,16.8,160.3,16.8z M155.7,17c-0.2-0.1-0.5-0.2-0.7-0.2c-0.4,0-0.7,0.2-0.7,0.5s0.2,0.5,0.6,0.5h0.2
		c0.2,0,0.3,0.1,0.3,0.2s-0.1,0.2-0.4,0.2c-0.2,0-0.4-0.1-0.6-0.2l-0.2,0.3c0.2,0.2,0.4,0.2,0.7,0.2c0.5,0,0.7-0.2,0.7-0.5
		s-0.2-0.5-0.6-0.5h-0.2c-0.2,0-0.3-0.1-0.3-0.2s0.1-0.2,0.3-0.2s0.3,0.1,0.5,0.1L155.7,17z M165.2,16.8c-0.2,0-0.3,0.1-0.5,0.2
		v-0.2h-0.3v1.7h0.3v-0.9c0-0.3,0.1-0.4,0.3-0.4c0.1,0,0.2,0,0.2,0.1l0.1-0.3C165.4,16.8,165.3,16.8,165.2,16.8z M160.7,17.7
		c0,0.5,0.4,0.8,0.8,0.8c0.2,0,0.4-0.1,0.6-0.2l-0.2-0.3c-0.1,0.1-0.3,0.2-0.5,0.1c-0.3,0-0.5-0.2-0.5-0.5s0.2-0.5,0.5-0.5
		c0.2,0,0.3,0.1,0.5,0.2L162,17c-0.2-0.1-0.4-0.2-0.6-0.2h-0.1C161,16.8,160.6,17.2,160.7,17.7L160.7,17.7z M164,18.5v-1.6h-0.3v0.2
		c-0.1-0.2-0.3-0.2-0.5-0.2s-0.4,0.1-0.6,0.3c-0.2,0.2-0.3,0.4-0.3,0.6s0.1,0.4,0.3,0.6s0.4,0.3,0.6,0.3c0.2,0,0.4-0.1,0.5-0.2v0.2
		h0.3V18.5z M162.6,17.7c0-0.3,0.2-0.5,0.5-0.5s0.5,0.2,0.5,0.5s-0.2,0.5-0.5,0.5S162.6,18,162.6,17.7z M158.3,16.8
		c-0.2,0-0.4,0.1-0.6,0.3c-0.2,0.2-0.3,0.4-0.3,0.6s0.1,0.4,0.3,0.6s0.4,0.3,0.6,0.3c0.2,0,0.5-0.1,0.7-0.2l-0.2-0.3
		c-0.1,0.1-0.3,0.2-0.5,0.2s-0.5-0.2-0.5-0.4h1.2v-0.1C159.1,17.3,158.9,16.9,158.3,16.8z M158.3,17.2c0.1,0,0.1,0,0.2,0
		c0,0,0.1,0,0.1,0.1l0.1,0.1c0,0,0,0.1,0,0.2h-0.9C157.9,17.3,158.1,17.2,158.3,17.2z M167.2,18.5v-2.3h-0.3v0.9
		c-0.1-0.2-0.3-0.2-0.5-0.2s-0.4,0.1-0.6,0.3c-0.2,0.2-0.3,0.4-0.3,0.6s0.1,0.4,0.3,0.6s0.4,0.3,0.6,0.3c0.2,0,0.4-0.1,0.5-0.2v0.2
		h0.3V18.5z M165.9,17.7c0-0.3,0.2-0.5,0.5-0.5s0.5,0.2,0.5,0.5s-0.2,0.5-0.5,0.5C166.1,18.2,165.9,18,165.9,17.7z M154,18.5v-1.6
		h-0.3v0.2c-0.1-0.2-0.3-0.2-0.5-0.2s-0.4,0.1-0.6,0.3c-0.2,0.2-0.3,0.4-0.3,0.6s0.1,0.4,0.3,0.6s0.4,0.3,0.6,0.3
		c0.2,0,0.4-0.1,0.5-0.2v0.2h0.3V18.5z M152.6,17.7c0-0.3,0.2-0.5,0.5-0.5s0.5,0.2,0.5,0.5s-0.2,0.5-0.5,0.5S152.6,18,152.6,17.7z
		 M167.9,18.2L167.9,18.2c0.1,0,0.1,0,0.1,0.1l0.1,0.1v0.1l-0.1,0.1l-0.1,0.1h-0.1c-0.1,0-0.1-0.1-0.2-0.1v-0.1c0,0,0-0.1,0.1-0.1
		L167.9,18.2L167.9,18.2z M167.9,18.5C167.9,18.6,167.9,18.6,167.9,18.5h0.1c0.1-0.1,0.1-0.1,0-0.2h-0.2
		C167.7,18.4,167.7,18.5,167.9,18.5L167.9,18.5C167.8,18.5,167.8,18.5,167.9,18.5z M167.9,18.4L167.9,18.4L167.9,18.4l0.1,0.1h-0.1
		V18.4l-0.1,0.1h-0.1v-0.2L167.9,18.4z M167.8,18.4L167.8,18.4L167.8,18.4L167.8,18.4L167.8,18.4z"/>
	<path fill="#FF5F00" d="M155.5,4.5h5.4v9.6h-5.4V4.5z"/>
	<path fill="#EB001B" d="M155.9,9.3c0-1.9,0.9-3.6,2.4-4.8c-2.7-2.1-6.5-1.7-8.6,1s-1.7,6.5,1,8.6c2.2,1.8,5.4,1.8,7.6,0
		C156.8,13,155.9,11.2,155.9,9.3z"/>
	<path fill="#F79E1B" d="M167.6,13.1v-0.2h0.1v-0.1h-0.2v0.1h0.1L167.6,13.1z M168,13.1v-0.2h-0.1l-0.1,0.2l-0.1-0.2h-0.1v0.2v-0.2
		l0.1,0.2h0.1l0.1-0.2L168,13.1L168,13.1z M168.2,9.3c0,3.4-2.8,6.1-6.2,6.1c-1.4,0-2.7-0.5-3.7-1.3c2.7-2.1,3.1-6,1-8.6
		c-0.3-0.4-0.6-0.7-1-1c2.7-2.1,6.6-1.6,8.6,1.1C167.7,6.6,168.2,7.9,168.2,9.3z"/>
</g>
</svg>
