<?xml version="1.0" encoding="utf-8"?>
<!-- Generator: Adobe Illustrator 25.2.0, SVG Export Plug-In . SVG Version: 6.00 Build 0)  -->
<svg version="1.1" id="Слой_1" xmlns="http://www.w3.org/2000/svg" xmlns:xlink="http://www.w3.org/1999/xlink" x="0px" y="0px"
	 width="230px" height="70px" viewBox="0 0 230 70" enable-background="new 0 0 230 70" xml:space="preserve">
<g>
	<g>
		<path fill="#7482B4" d="M46.462,46.928h-3.3c-0.641,0-1.169,0.529-1.169,1.169c0,0.641,0.529,1.169,1.169,1.169h0.08
			c-2.948,2.05-6.44,3.124-10.092,3.076c-4.55-0.064-8.827-1.858-12.03-5.078c-0.993-0.993-1.842-2.082-2.563-3.268h4.79
			c0.641,0,1.169-0.529,1.169-1.169V27.304c0-0.641-0.529-1.169-1.169-1.169h-8.81c-0.641,0-1.169,0.529-1.169,1.169v15.523
			c0,0.641,0.529,1.169,1.169,1.169h1.346c0.929,1.81,2.147,3.46,3.588,4.918c3.652,3.652,8.506,5.703,13.664,5.767
			c0.08,0,0.176,0,0.256,0c4.341,0,8.506-1.41,11.918-4.021v0.721c0,0.641,0.529,1.169,1.169,1.169c0.641,0,1.169-0.529,1.169-1.169
			v-3.3C47.632,47.456,47.103,46.928,46.462,46.928z M15.674,28.49h6.472v13.184h-6.472V28.49z"/>
		<path fill="#7482B4" d="M52.213,26.792h-0.961c-0.977-2.115-2.307-4.037-3.973-5.703c-3.62-3.62-8.442-5.671-13.568-5.767
			c-4.469-0.08-8.762,1.33-12.271,4.005v-0.721c0-0.641-0.529-1.169-1.169-1.169c-0.641,0-1.169,0.529-1.169,1.169v3.3
			c0,0.641,0.529,1.169,1.169,1.169h3.3c0.641,0,1.169-0.529,1.169-1.169c0-0.641-0.529-1.169-1.169-1.169h-0.08
			c2.964-2.066,6.504-3.14,10.172-3.076c4.517,0.08,8.762,1.89,11.95,5.078c1.201,1.201,2.211,2.563,3.012,4.037h-5.238
			c-0.641,0-1.169,0.529-1.169,1.169v14.738c0,0.641,0.529,1.169,1.169,1.169h8.811c0.641,0,1.169-0.529,1.169-1.169V27.945
			C53.383,27.32,52.854,26.792,52.213,26.792z M51.044,41.529h-6.472V29.131h6.472V41.529z"/>
		<path fill="#7482B4" d="M34.929,33.84c-1.057-0.368-2.243-0.833-2.899-1.346c-0.208-0.16-0.304-0.529-0.224-0.929
			c0.032-0.192,0.208-0.849,0.881-1.041c1.089-0.336,1.842,0.112,2.115,0.304c0.513,0.384,1.249,0.288,1.65-0.24
			c0.4-0.529,0.288-1.249-0.24-1.65c-0.24-0.176-0.865-0.593-1.746-0.785v-0.48c0-0.641-0.529-1.169-1.169-1.169
			c-0.641,0-1.169,0.529-1.169,1.169v0.561c-0.032,0.016-0.064,0.016-0.096,0.032c-1.282,0.384-2.243,1.49-2.499,2.851
			c-0.24,1.266,0.176,2.499,1.073,3.204c0.753,0.593,1.778,1.073,3.556,1.714c1.185,0.417,1.153,1.378,1.089,1.778
			c-0.128,0.801-0.801,1.666-1.954,1.666c-1.137,0-1.49-0.048-2.355-0.625c-0.545-0.352-1.265-0.208-1.618,0.336
			c-0.352,0.545-0.208,1.265,0.336,1.618c0.945,0.609,1.634,0.865,2.483,0.961v0.529c0,0.641,0.529,1.169,1.169,1.169
			c0.641,0,1.169-0.529,1.169-1.169v-0.657c0.641-0.176,1.234-0.497,1.746-0.961c0.721-0.657,1.201-1.538,1.362-2.499
			C37.876,36.259,36.819,34.513,34.929,33.84z"/>
	</g>
	<g>
		<path fill="#7482B4" d="M74.333,21.435c0.017,0.067,0.034,0.133,0.067,0.2c0.017,0.067,0.05,0.133,0.1,0.183
			c0.033,0.05,0.083,0.1,0.133,0.15c0.184,0.183,0.434,0.283,0.717,0.3c0.133,0,0.267-0.033,0.383-0.083
			c0.367-0.15,0.617-0.5,0.634-0.9v-0.017c0-0.133-0.017-0.267-0.067-0.367c-0.133-0.4-0.5-0.667-0.917-0.7
			c-0.283-0.017-0.55,0.1-0.75,0.3c-0.183,0.183-0.3,0.45-0.316,0.717v0.033l0.016,0.15V21.435z"/>
		<path fill="#7482B4" d="M108.399,35.001c0-3.317-0.834-6.6-2.417-9.516c0.3-0.75,0.45-1.533,0.45-2.333
			c0-3.466-2.817-6.266-6.266-6.266c-0.834,0-1.634,0.167-2.384,0.467c-4.583-2.45-9.849-3-14.832-1.583l-0.05,0.017
			c-1.984,0.567-3.85,1.433-5.567,2.583c-0.05,0.033-0.116,0.083-0.166,0.117c-0.134,0.083-0.267,0.183-0.4,0.267
			c-0.217,0.15-0.384,0.4-0.417,0.667c-0.05,0.267,0.033,0.55,0.2,0.767c0.333,0.45,0.95,0.533,1.417,0.217l0.016-0.017
			c0.1-0.083,0.217-0.15,0.334-0.233c0.066-0.033,0.116-0.083,0.166-0.117c1.35-0.9,2.817-1.617,4.367-2.117
			c0.916,1.033,2.233,1.65,3.616,1.717c0.384,0.017,0.784,0,1.167-0.05h0.033c0.517-0.117,1.067-0.05,1.533,0.183
			c0.15,0.083,0.25,0.25,0.234,0.417c-0.117,0.183-0.25,0.35-0.434,0.483c-0.683,0.467-1.083,1.233-1.099,2.067v0.017v0.017
			c0.05,0.55,0.349,1.05,0.799,1.367c0.434,0.3,0.95,0.45,1.484,0.45c0.016,0,0.016,0,0.033,0c0.217,0,0.417-0.017,0.633-0.067
			c0.367-0.1,0.734-0.233,1.084-0.4c0.266-0.133,0.533-0.217,0.816-0.283c0.417-0.017,0.817,0.067,1.184,0.25
			c0.133,0.883,0.466,1.716,0.95,2.466c-0.134,0.083-0.25,0.15-0.4,0.25c-0.7,0.533-1.45,0.967-2.267,1.283
			c-0.3,0.1-0.617,0.183-0.9,0.25c-0.733,0.133-1.417,0.383-2.083,0.767c-1.067,0.683-1.217,1.683-1.2,2.466
			c-0.75-0.4-1.667-0.4-2.433,0.033c-0.834,0.467-1.334,1.367-1.284,2.316c0,1.667,1.184,2.667,2.1,3.383
			c-0.883-0.217-1.766-0.433-2.65-0.65c-1.033-0.25-2.066-0.55-2.45-1.233c-0.15-0.333-0.266-0.7-0.316-1.05
			c-0.084-0.7-0.333-1.383-0.717-1.967l-0.033-0.05c-0.717-0.8-1.7-1.35-2.767-1.533l-0.1-0.033c-0.833-0.25-1.3-0.533-1.45-0.85
			c-0.083-0.5,0-1.033,0.25-1.483c0.4-0.85,0.534-1.783,0.384-2.7v-0.017c-0.167-0.767-0.667-1.4-1.384-1.733l-0.016-0.017
			c-0.25-0.1-0.534-0.183-0.8-0.233c0.3-0.433,0.233-1.017-0.184-1.367c-0.216-0.183-0.483-0.267-0.766-0.233
			c-0.267,0.033-0.533,0.167-0.7,0.383c-0.567,0.717-1.1,1.483-1.567,2.267l-0.183,0.317l0.05,0.033c-0.3,0.4-0.55,0.833-0.733,1.3
			l-0.05,0.1c-1.217,2.633-1.867,5.55-1.867,8.45c0,1.85,0.25,3.7,0.767,5.5c-0.15,0.55-0.234,1.1-0.234,1.667
			c0,1.6,0.6,3.116,1.684,4.283c0.016,0.017,0.016,0.017,0.033,0.033c0.733,0.783,1.65,1.35,2.667,1.667
			c3.066,3.533,7.299,5.866,11.899,6.6H85.2h0.05C86.266,54.917,87.3,55,88.333,55c0.016,0,0.033,0,0.05,0
			c3.783,0,7.466-1.067,10.649-3.1c0.767,0.317,1.567,0.467,2.384,0.467c1.716,0,3.316-0.683,4.499-1.917
			c0.034-0.033,0.067-0.067,0.1-0.1c1.084-1.167,1.667-2.666,1.667-4.266c0-1.167-0.317-2.3-0.933-3.283
			C107.882,40.317,108.415,37.701,108.399,35.001z M82.233,51.183c0.017,0.25,0.067,0.483,0.133,0.717
			c-2.199-0.783-4.233-2-5.966-3.567c1.267-0.233,2.433-0.867,3.35-1.8c0.033-0.033,0.067-0.067,0.1-0.1
			c1.083-1.167,1.666-2.683,1.666-4.266c0-3.467-2.816-6.266-6.266-6.266c-1.717,0-3.366,0.717-4.55,1.95
			c-0.15-0.95-0.233-1.9-0.233-2.833c0-2.6,0.583-5.216,1.667-7.583l0.05-0.1l0.016-0.033c0.167-0.433,0.4-0.817,0.7-1.15
			c0.084-0.083,0.184-0.15,0.3-0.2l0.017-0.017c0.35-0.183,0.766-0.2,1.133-0.083c0.133,0.067,0.233,0.2,0.267,0.35
			c0.05,0.517-0.05,1.033-0.284,1.483c-0.466,0.917-0.566,1.95-0.3,2.933l0.017,0.033c0.5,1.3,1.833,1.833,2.8,2.117l0.133,0.033
			l0.05,0.017c0.617,0.1,1.184,0.383,1.65,0.817c0.2,0.333,0.317,0.717,0.367,1.117c0.083,0.583,0.267,1.15,0.533,1.683
			c0.784,1.417,2.35,1.9,3.767,2.233c1.416,0.35,2.866,0.7,4.266,1.05c0.367,0.117,0.75,0.1,1.117-0.017
			c0.45-0.183,0.783-0.583,0.85-1.067c0.183-1.233-1.35-2.533-1.384-2.55l-0.349-0.283c-0.767-0.6-1.434-1.133-1.434-1.883
			c0-0.233,0.134-0.467,0.334-0.55c0.083-0.033,0.183-0.017,0.633,0.183c0.133,0.067,0.267,0.117,0.383,0.167
			c0.65,0.333,1.433,0.233,1.967-0.25l0.016-0.017c0.35-0.383,0.5-0.933,0.417-1.433c-0.1-0.85-0.033-1,0.2-1.15
			c0.433-0.233,0.917-0.4,1.417-0.483c0.383-0.083,0.783-0.183,1.166-0.317h0.017c1-0.4,1.933-0.933,2.783-1.567
			c0.117-0.083,0.25-0.15,0.383-0.233c0.067-0.033,0.134-0.083,0.2-0.117c1.1,0.833,2.434,1.3,3.817,1.3
			c1.717,0,3.316-0.683,4.516-1.917l0.017-0.017c1.083,2.35,1.667,4.933,1.667,7.533c0,2.1-0.35,4.15-1.067,6.116
			c-0.433-0.333-0.9-0.6-1.4-0.817c-2.35-0.967-5.033-0.433-6.833,1.367c-0.817,0.817-1.383,1.833-1.65,2.933
			c-0.067-0.067-0.133-0.133-0.2-0.217c-0.933-0.883-2.016-1.6-3.183-2.133c-1.817-0.867-3.433-0.767-4.416,0.283l-0.017,0.017
			c-0.433,0.517-0.783,1.1-1.017,1.717v0.017c-0.116,0.25-0.216,0.483-0.333,0.7c-0.217,0.383-0.483,0.733-0.833,1.017
			c-0.15,0.1-0.3,0.183-0.467,0.267c-0.45,0.183-0.85,0.45-1.183,0.8l-0.034,0.033C83.35,47.617,83.1,48.167,83,48.75
			c-0.034,0.2-0.1,0.4-0.184,0.583C82.483,49.9,82.283,50.55,82.25,51.2v0.017L82.233,51.183z M72.467,42.634
			c-0.433,0.3-0.833,0.667-1.15,1.083c-0.2-0.5-0.3-1.017-0.3-1.55c0-2.333,1.9-4.216,4.216-4.216c2.334,0,4.217,1.9,4.217,4.216
			c0,0.533-0.1,1.067-0.3,1.55c-0.317-0.417-0.717-0.783-1.15-1.083c0.15-0.35,0.217-0.75,0.217-1.133c0-1.65-1.35-3-3-3
			c-1.65,0-3,1.35-3,3C72.234,41.901,72.317,42.284,72.467,42.634z M75.233,40.567c0.517,0,0.95,0.417,0.95,0.95
			c0,0.517-0.416,0.95-0.95,0.95c-0.216,0-0.416-0.067-0.566-0.2c-0.017-0.017-0.034-0.017-0.034-0.017
			c-0.216-0.183-0.333-0.45-0.333-0.733C74.283,40.984,74.717,40.567,75.233,40.567z M73.883,44.184
			C74.3,44.4,74.767,44.5,75.233,44.5c0.467,0,0.934-0.117,1.35-0.317c0.55,0.283,1,0.75,1.267,1.3c-0.75,0.583-1.667,0.9-2.617,0.9
			c-0.95,0-1.866-0.317-2.616-0.9C72.9,44.917,73.334,44.467,73.883,44.184z M100.782,23.201l-0.016,0.017
			c-0.317,0.267-0.817,0.283-1.15,0.033l-0.017-0.033l-0.033-0.017c-0.2-0.183-0.334-0.433-0.334-0.717
			c0-0.517,0.417-0.95,0.95-0.95c0.517,0,0.95,0.417,0.95,0.95C101.116,22.751,100.982,23.018,100.782,23.201z M100.166,25.468
			c0.466,0,0.933-0.117,1.35-0.317c0.55,0.283,0.999,0.75,1.266,1.3c-0.75,0.583-1.666,0.9-2.616,0.9c-0.95,0-1.867-0.317-2.617-0.9
			c0.267-0.567,0.717-1.017,1.267-1.3C99.232,25.368,99.699,25.468,100.166,25.468z M104.099,24.701
			c-0.317-0.417-0.717-0.783-1.15-1.083c0.15-0.35,0.216-0.75,0.216-1.133c0-1.65-1.349-3-2.999-3c-1.65,0-3,1.35-3,3
			c0,0.383,0.083,0.767,0.216,1.133c-0.433,0.3-0.833,0.667-1.15,1.083c-0.15-0.367-0.233-0.75-0.283-1.15
			c0-0.067,0-0.133-0.017-0.2c0-0.067,0-0.133,0-0.2c0-1.55,0.834-2.967,2.2-3.7c0.05-0.017,0.084-0.033,0.134-0.067l0.016-0.017
			c0.584-0.3,1.217-0.433,1.884-0.433c2.333,0,4.216,1.9,4.216,4.216C104.382,23.685,104.282,24.201,104.099,24.701z M101.482,44.5
			c0.517,0,0.95,0.417,0.95,0.95c0,0.283-0.116,0.533-0.333,0.717l-0.05,0.033c-0.167,0.117-0.35,0.183-0.567,0.183
			c-0.516,0-0.95-0.417-0.95-0.95C100.532,44.917,100.949,44.5,101.482,44.5z M84.6,50.234l0.016-0.033
			c0.167-0.333,0.284-0.7,0.35-1.067v-0.017c0.034-0.233,0.117-0.467,0.25-0.667c0.15-0.133,0.334-0.233,0.534-0.317
			c0.3-0.133,0.583-0.3,0.866-0.5c0.567-0.45,1.034-1,1.367-1.633c0.166-0.283,0.3-0.6,0.433-0.883V45.1
			c0.167-0.417,0.383-0.8,0.65-1.15c0.5-0.517,1.683,0,2.05,0.167c0.967,0.433,1.85,1.017,2.6,1.717c0.583,0.6,1.1,1.117,1.633,1.6
			c0.083,0.367,0.2,0.733,0.333,1.067c0.284,0.683,0.7,1.317,1.2,1.867c0.017,0.017,0.017,0.017,0.034,0.033
			c0.083,0.083,0.166,0.167,0.25,0.25c-2.667,1.5-5.683,2.283-8.733,2.283c-0.017,0-0.017,0-0.034,0c-0.866,0-1.749-0.067-2.633-0.2
			c-0.233-0.133-0.45-0.267-0.65-0.417L85.1,52.3c-0.434-0.267-0.717-0.7-0.817-1.183C84.316,50.817,84.433,50.5,84.6,50.234z
			 M100.132,48.117c0.417,0.217,0.884,0.317,1.35,0.317c0.467,0,0.934-0.117,1.35-0.317c0.55,0.283,1,0.75,1.267,1.3
			c-0.75,0.583-1.667,0.9-2.617,0.9c-0.666,0-1.316-0.15-1.916-0.467c-0.05-0.033-0.084-0.05-0.134-0.067
			c-0.2-0.117-0.383-0.233-0.566-0.367C99.132,48.85,99.582,48.4,100.132,48.117z M101.482,42.451c-1.65,0-3,1.35-3,3
			c0,0.383,0.084,0.767,0.217,1.133c-0.433,0.3-0.833,0.667-1.15,1.083c-0.2-0.5-0.3-1.017-0.3-1.55c0-2.333,1.9-4.216,4.217-4.216
			c2.333,0,4.216,1.9,4.216,4.216c0,0.533-0.1,1.067-0.3,1.55c-0.317-0.417-0.717-0.783-1.15-1.083
			c0.15-0.35,0.217-0.75,0.217-1.133C104.465,43.8,103.132,42.451,101.482,42.451z M90.366,22.235c0.45-0.35,0.8-0.817,1.017-1.333
			l0.016-0.05c0.317-1.1-0.15-2.25-1.133-2.833c-0.867-0.483-1.867-0.633-2.85-0.45c-0.283,0.033-0.583,0.05-0.866,0.033
			c-0.417-0.017-0.817-0.133-1.184-0.3c3.517-0.6,7.167-0.133,10.416,1.333c-0.916,0.9-1.533,2.05-1.783,3.3
			c-0.483-0.133-1-0.167-1.5-0.133h-0.033c-0.467,0.083-0.933,0.233-1.367,0.45c-0.233,0.117-0.483,0.2-0.716,0.267
			c-0.117,0.033-0.234,0.017-0.334,0C90.149,22.435,90.283,22.301,90.366,22.235z"/>
	</g>
	<g>
		<path fill="#7482B4" d="M160.442,30.226l2.8-4.887c0.209-0.365,0.209-0.8,0-1.165c-0.208-0.365-0.591-0.591-1.008-0.591h-9.148
			v-5.078c0-0.643-0.522-1.165-1.165-1.165h-12.105v-1.165c0-0.643-0.521-1.165-1.165-1.165c-0.643,0-1.165,0.522-1.165,1.165v22.47
			c-7.861,0.609-14.07,7.183-14.07,15.183c0,0.643,0.522,1.165,1.166,1.165h28.121c0.644,0,1.166-0.522,1.166-1.165
			c0-8-6.209-14.591-14.07-15.183v-8.035h5.461v5.078c0,0.644,0.522,1.165,1.165,1.165h15.774c0.417,0,0.8-0.226,1.009-0.591
			c0.208-0.365,0.208-0.8,0-1.165L160.442,30.226z M139.747,52.644h-3.826c-0.035-0.122-0.052-0.261-0.052-0.383
			c0-1.078,0.869-1.948,1.947-1.948c1.079,0,1.948,0.869,1.948,1.948C139.799,52.383,139.782,52.522,139.747,52.644z
			 M145.121,42.696c1.582,0.922,2.956,2.191,4.017,3.687c-0.504,0.522-1.182,0.8-1.93,0.8c-1.513,0-2.731-1.235-2.731-2.73
			C144.495,43.791,144.721,43.183,145.121,42.696z M142.964,41.687c-0.539,0.817-0.835,1.774-0.835,2.765
			c0,2.8,2.279,5.078,5.079,5.078c1.165,0,2.243-0.383,3.113-1.078c0.591,1.304,0.991,2.713,1.13,4.209h-9.339
			c0.017-0.122,0.017-0.261,0.017-0.383c0-2.365-1.93-4.296-4.295-4.296s-4.296,1.931-4.296,4.296c0,0.122,0,0.261,0.018,0.383
			h-7.774c0.591-6.556,6.121-11.722,12.834-11.722C140.147,40.922,141.608,41.2,142.964,41.687z M139.799,28.261V19.67h10.939v8.591
			H139.799z M147.608,30.609h1.721l-1.721,1.965V30.609z M158.077,30.8l2.122,3.722h-11.183l3.774-4.313
			c0.174-0.209,0.296-0.469,0.296-0.765v-3.513h7.113l-2.122,3.722C157.869,30,157.869,30.452,158.077,30.8z"/>
		<path fill="#7482B4" d="M129.26,19.67h1.165v1.165c0,0.643,0.522,1.165,1.165,1.165c0.644,0,1.166-0.522,1.166-1.165V19.67h1.165
			c0.643,0,1.165-0.522,1.165-1.165c0-0.643-0.522-1.165-1.165-1.165h-1.165v-1.165c0-0.643-0.522-1.165-1.166-1.165
			c-0.643,0-1.165,0.522-1.165,1.165v1.165h-1.165c-0.644,0-1.165,0.522-1.165,1.165C128.095,19.148,128.599,19.67,129.26,19.67z"/>
		<path fill="#7482B4" d="M124.564,33.739h1.165v1.165c0,0.644,0.522,1.165,1.166,1.165c0.643,0,1.165-0.522,1.165-1.165v-1.165
			h1.165c0.644,0,1.165-0.522,1.165-1.165c0-0.644-0.521-1.165-1.165-1.165h-1.165v-1.165c0-0.644-0.522-1.165-1.165-1.165
			c-0.644,0-1.166,0.522-1.166,1.165v1.165h-1.165c-0.643,0-1.165,0.522-1.165,1.165C123.399,33.217,123.921,33.739,124.564,33.739z
			"/>
		<path fill="#7482B4" d="M158.947,42.33h-1.165v-1.165c0-0.643-0.522-1.165-1.166-1.165c-0.643,0-1.165,0.522-1.165,1.165v1.165
			h-1.165c-0.644,0-1.165,0.522-1.165,1.165c0,0.643,0.521,1.165,1.165,1.165h1.165v1.165c0,0.644,0.522,1.165,1.165,1.165
			c0.644,0,1.166-0.522,1.166-1.165v-1.165h1.165c0.643,0,1.165-0.522,1.165-1.165C160.112,42.852,159.59,42.33,158.947,42.33z"/>
		<path fill="#7482B4" d="M158.164,19.67c0.644,0,1.165-0.522,1.165-1.165c0-0.643-0.521-1.165-1.165-1.165
			c-0.643,0-1.165,0.522-1.165,1.165C156.999,19.148,157.521,19.67,158.164,19.67z"/>
		<path fill="#7482B4" d="M130.025,50.296c0.644,0,1.165-0.522,1.165-1.165s-0.521-1.165-1.165-1.165
			c-0.643,0-1.165,0.522-1.165,1.165S129.382,50.296,130.025,50.296z"/>
		<path fill="#7482B4" d="M136.669,45.6c0.643,0,1.165-0.522,1.165-1.165c0-0.643-0.522-1.165-1.165-1.165
			c-0.644,0-1.166,0.522-1.166,1.165C135.503,45.078,136.025,45.6,136.669,45.6z"/>
	</g>
	<g>
		<path fill="#7482B4" d="M200.999,30.8c-0.317-0.317-0.717-0.567-1.133-0.717v-0.6c0-0.567-0.467-1.033-1.05-1.033
			c-0.567,0-1.05,0.467-1.05,1.033V29.9h-0.517v-0.417c0-0.567-0.467-1.033-1.033-1.033c-0.567,0-1.05,0.467-1.05,1.033V29.9h-1.784
			c-0.566,0-1.05,0.467-1.05,1.05c0,0.567,0.467,1.05,1.05,1.05h0.25v6.017h-0.25c-0.566,0-1.05,0.467-1.05,1.033
			c0,0.567,0.467,1.05,1.05,1.05h1.8v0.417c0,0.567,0.467,1.05,1.05,1.05c0.567,0,1.034-0.467,1.034-1.05V40.1h0.516v0.417
			c0,0.567,0.467,1.05,1.05,1.05c0.567,0,1.05-0.467,1.05-1.05v-0.6c0.417-0.15,0.817-0.4,1.134-0.717
			c0.583-0.583,0.916-1.35,0.916-2.167c0-0.75-0.283-1.467-0.783-2.033c0.5-0.55,0.783-1.267,0.783-2.033
			C201.899,32.15,201.582,31.367,200.999,30.8z M199.532,33.667c-0.183,0.183-0.45,0.3-0.716,0.3h-3.084v-1.983h3.084
			c0.266,0,0.516,0.1,0.716,0.3c0.184,0.183,0.3,0.433,0.3,0.7C199.816,33.233,199.716,33.483,199.532,33.667z M199.816,37.033
			c0,0.267-0.1,0.517-0.3,0.7c-0.184,0.183-0.434,0.3-0.717,0.3h-3.083V36.05h3.083c0.267,0,0.517,0.1,0.717,0.3
			C199.716,36.517,199.816,36.767,199.816,37.033z"/>
		<path fill="#7482B4" d="M216.116,43.217c-0.767-0.45-1.534-0.883-2.317-1.333l-0.517-0.3c0.884-2.1,1.317-4.317,1.317-6.6
			c0-2.283-0.45-4.483-1.317-6.583c0.834-0.483,1.65-0.95,2.484-1.433l0.3-0.167c0.35-0.183,0.566-0.533,0.566-0.933V19.3
			c0-0.383-0.2-0.717-0.516-0.9l-1.85-1.05c-0.5-0.283-1.134-0.117-1.417,0.383s-0.117,1.133,0.383,1.417l0.3,0.167l-3.6,2.083
			l-3.6-2.083c1.2-0.7,2.4-1.383,3.6-2.083l1.067,0.617c0.5,0.283,1.133,0.117,1.417-0.383c0.133-0.233,0.183-0.517,0.1-0.783
			c-0.067-0.267-0.25-0.5-0.484-0.633l-1.566-0.9c-0.317-0.2-0.717-0.2-1.05,0c-1.217,0.7-2.45,1.417-3.667,2.117l-1.967,1.133
			c-0.216,0.117-0.383,0.3-0.483,0.517c-1.85-0.667-3.783-1-5.75-1c-0.017,0-0.017,0-0.033,0c-1.967,0-3.9,0.333-5.75,1
			c-0.067-0.183-0.2-0.35-0.434-0.483c-1.883-1.083-3.783-2.183-5.666-3.267c-0.317-0.2-0.717-0.2-1.05,0
			c-1.217,0.7-2.45,1.417-3.667,2.117l-1.967,1.133c-0.35,0.183-0.566,0.533-0.566,0.933v6.567c0,0.367,0.2,0.717,0.516,0.9l1.2,0.7
			c0.534,0.317,1.084,0.617,1.617,0.933c-0.867,2.083-1.317,4.3-1.317,6.6c0,2.283,0.45,4.5,1.317,6.583
			c-0.933,0.533-1.85,1.067-2.783,1.6c-0.35,0.183-0.567,0.533-0.567,0.933v6.517c0,0.367,0.2,0.717,0.517,0.9
			c0.566,0.333,1.15,0.667,1.716,1c1.284,0.75,2.6,1.517,3.917,2.25c0.183,0.117,0.383,0.167,0.567,0.167
			c0.183,0,0.366-0.05,0.566-0.167l0.55-0.317c1.684-0.967,3.35-1.933,5.034-2.9c0.216-0.117,0.383-0.3,0.483-0.517
			c1.85,0.667,3.783,1,5.767,1c1.983,0,3.916-0.333,5.766-1c0.084,0.2,0.234,0.367,0.434,0.483c0.683,0.383,1.35,0.783,2.033,1.167
			c1.183,0.683,2.4,1.383,3.6,2.083c0.367,0.217,0.767,0.217,1.133,0l0.784-0.45c1.6-0.917,3.2-1.85,4.8-2.767
			c0.35-0.183,0.566-0.533,0.566-0.933v-6.567C216.649,43.75,216.432,43.4,216.116,43.217z M208.882,48v4.167
			c-1.2-0.7-2.4-1.383-3.6-2.083v-4.167L208.882,48z M189.766,45.917v4.167l-0.034,0.017c-1.183,0.683-2.383,1.367-3.566,2.067V48
			L189.766,45.917z M186.166,27.367V23.2l3.6-2.083v4.167l-0.034,0.017C188.532,25.983,187.349,26.667,186.166,27.367z
			 M213.532,44.117l-3.6,2.083l-3.6-2.083c1.2-0.7,2.4-1.383,3.6-2.083c1.117,0.65,2.234,1.283,3.35,1.933L213.532,44.117z
			 M191.316,43.217l-1.95-1.117c-0.5-0.283-1.134-0.117-1.417,0.383c-0.283,0.5-0.117,1.133,0.383,1.417l0.384,0.233l-3.6,2.083
			l-3.6-2.1c1.183-0.683,2.35-1.367,3.533-2.05l0.067-0.033l0.966,0.567c0.5,0.283,1.134,0.117,1.417-0.383
			c0.283-0.5,0.117-1.133-0.383-1.417l-1.484-0.85c-0.316-0.2-0.716-0.2-1.05,0l-1.05,0.6c-0.7-1.767-1.05-3.617-1.05-5.533
			c0-1.917,0.35-3.783,1.05-5.55l1,0.567c0.384,0.217,0.817,0.217,1.15,0c1.85-1.067,3.717-2.15,5.584-3.217
			c0.35-0.183,0.566-0.533,0.566-0.933V21.1c1.8-0.733,3.7-1.117,5.65-1.117c0.017,0,0.017,0,0.034,0
			c1.95,0,3.866,0.367,5.666,1.117v4.783c0,0.367,0.2,0.717,0.517,0.9c1.883,1.083,3.767,2.167,5.633,3.25
			c0.367,0.217,0.767,0.217,1.134,0l0.983-0.567c0.7,1.767,1.05,3.617,1.05,5.533s-0.35,3.783-1.05,5.55l-1.033-0.6
			c-0.317-0.2-0.717-0.2-1.05,0c-1.217,0.7-2.45,1.417-3.667,2.117l-1.967,1.133c-0.35,0.183-0.566,0.533-0.566,0.933v4.783
			c-1.8,0.733-3.717,1.117-5.684,1.117h-0.016c-1.95,0-3.85-0.367-5.667-1.117v-4.783C191.849,43.75,191.649,43.4,191.316,43.217z
			 M184.082,23.2v4.167c-1.2-0.7-2.4-1.383-3.6-2.083v-4.167L184.082,23.2z M210.966,27.367V23.2l3.6-2.083v4.167
			C213.366,25.967,212.166,26.667,210.966,27.367z M181.516,19.317c1.2-0.7,2.4-1.383,3.6-2.083l3.6,2.083l-3.6,2.083
			L181.516,19.317z M205.282,25.283v-4.167l3.6,2.083v4.167C207.682,26.667,206.482,25.967,205.282,25.283z M184.082,48v4.167
			c-1.2-0.7-2.4-1.383-3.6-2.083v-4.167L184.082,48z M214.566,45.917v4.167c-1.2,0.7-2.4,1.383-3.6,2.083V48L214.566,45.917z"/>
		<path fill="#7482B4" d="M203.599,42.117c1.7-1.45,2.817-3.467,3.167-5.667c0.05-0.267-0.017-0.55-0.184-0.767
			c-0.166-0.217-0.4-0.367-0.683-0.417c-0.267-0.033-0.55,0.033-0.767,0.183c-0.216,0.167-0.366,0.4-0.416,0.683
			c-0.267,1.7-1.15,3.267-2.467,4.4c-1.317,1.117-3,1.733-4.733,1.733c-1.95,0-3.767-0.75-5.15-2.133
			c-1.367-1.367-2.134-3.2-2.134-5.15s0.75-3.767,2.134-5.15c1.366-1.367,3.2-2.133,5.15-2.133c1.733,0,3.416,0.617,4.733,1.733
			c1.317,1.133,2.2,2.7,2.467,4.4c0.083,0.567,0.616,0.95,1.183,0.867c0.267-0.05,0.517-0.183,0.683-0.417
			c0.167-0.217,0.234-0.5,0.184-0.767c-0.35-2.2-1.467-4.217-3.167-5.667c-1.7-1.45-3.85-2.25-6.083-2.25
			c-2.5,0-4.85,0.967-6.617,2.733c-1.767,1.767-2.75,4.117-2.75,6.617s0.967,4.85,2.75,6.617c1.767,1.767,4.117,2.75,6.617,2.75
			C199.749,44.367,201.899,43.567,203.599,42.117z"/>
	</g>
</g>
</svg>
