<?xml version="1.0" encoding="utf-8"?>
<!-- Generator: Adobe Illustrator 25.2.0, SVG Export Plug-In . SVG Version: 6.00 Build 0)  -->
<svg version="1.1" id="Слой_1" xmlns="http://www.w3.org/2000/svg" xmlns:xlink="http://www.w3.org/1999/xlink" x="0px" y="0px"
	 width="285px" height="150px" viewBox="0 0 285 150" enable-background="new 0 0 285 150" xml:space="preserve">
<g>
	<g>
		<path fill="#0E082D" d="M174.45,104.038c0,4.986,4.033,9.019,9.019,9.019s9.019-4.033,9.019-9.019s-4.033-9.019-9.019-9.019
			S174.45,99.052,174.45,104.038"/>
		<path fill="#49466F" d="M175.623,104.038c0,4.363,3.52,7.883,7.883,7.883c4.363,0,7.883-3.52,7.883-7.883s-3.52-7.883-7.883-7.883
			C179.143,96.155,175.623,99.712,175.623,104.038"/>
		<path fill="#0E082D" d="M187.245,102.351c0-1.1-0.697-2.017-1.687-2.346v-1.833h-1.687v1.687h-0.843v-1.687h-1.65v1.687h-1.687
			v1.687h0.843v5.023h-0.843v1.687h1.687v1.687h1.687v-1.687h0.843v1.687h1.687v-1.833c0.99-0.33,1.687-1.283,1.687-2.346
			c0-0.66-0.257-1.247-0.66-1.687C187.025,103.598,187.245,103.011,187.245,102.351z M184.752,101.545
			c0.477,0,0.843,0.367,0.843,0.843c0,0.477-0.367,0.843-0.843,0.843h-2.53v-1.687H184.752z M184.752,106.568h-2.53v-1.687h2.53
			c0.477,0,0.843,0.367,0.843,0.843C185.595,106.164,185.192,106.568,184.752,106.568z"/>
		<path fill="#49466F" d="M168.107,127.356l-10.889,10.889l-3.85-3.85l-3.886-3.85l10.889-10.889l1.137,1.137l2.75,2.75l1.577,1.577
			L168.107,127.356z"/>
		<path fill="#1C1738" d="M165.834,125.083l2.273,2.273l-10.889,10.889l-3.85-3.85l10.889-10.889L165.834,125.083z"/>
		<path fill="#49466F" d="M176.466,122.92l-6.673,6.673l-11.659-11.659l6.673-6.673l1.137,1.137l4.693,4.693l3.52,3.52
			L176.466,122.92z"/>
		<path fill="#1C1738" d="M174.193,120.647l2.273,2.273l-6.673,6.673l-5.83-5.83l6.673-6.673L174.193,120.647z"/>
		<path fill="#9795B7" d="M198.354,89.409L198.354,89.409c-3.996-3.96-9.276-6.159-14.885-6.159c-5.61,0-10.889,2.2-14.849,6.159
			c-3.96,3.96-6.123,9.239-6.123,14.849c0,5.61,2.2,10.889,6.159,14.849l0,0c3.96,3.96,9.239,6.159,14.812,6.159
			c5.61,0,10.889-2.2,14.849-6.159C206.53,110.931,206.53,97.622,198.354,89.409z M194.578,115.33
			c-3.043,3.043-7.076,4.583-11.072,4.583c-3.996,0-7.993-1.54-11.072-4.583l0,0c-6.123-6.123-6.123-16.059,0-22.145
			c6.123-6.123,16.059-6.123,22.145,0l0,0C200.664,99.308,200.664,109.207,194.578,115.33z"/>
		<path fill="#49466F" d="M198.354,89.409l-3.776,3.776l0,0c6.086,6.123,6.086,16.022,0,22.145
			c-3.043,3.043-7.076,4.583-11.072,4.583c-3.996,0-7.993-1.54-11.072-4.583l0,0l-3.776,3.776c3.96,3.96,9.239,6.159,14.812,6.159
			c5.61,0,10.889-2.2,14.849-6.159C206.53,110.931,206.53,97.622,198.354,89.409z"/>
		<path fill="#1C1738" d="M177.236,110.527l12.759-12.759c-1.65-1.723-3.96-2.786-6.489-2.786c-4.986,0-9.019,4.033-9.019,9.019
			C174.45,106.604,175.513,108.914,177.236,110.527z"/>
		<path fill="#9795B7" d="M178.043,109.721l11.109-11.109c-1.43-1.503-3.446-2.42-5.683-2.42c-4.363,0-7.883,3.52-7.883,7.883
			C175.623,106.274,176.539,108.291,178.043,109.721z"/>
		<path fill="#1C1738" d="M179.729,106.568v1.503l2.53-2.53v-0.66h0.66l1.687-1.687h-2.346v-1.687h2.53
			c0.403,0,0.733,0.293,0.807,0.697l1.247-1.247c-0.293-0.44-0.733-0.77-1.247-0.953v-1.833h-1.687v1.687h-0.843v-1.687h-1.687
			v1.687h-1.687v1.687h0.843v5.023H179.729z"/>
	</g>
	<g>
		<path fill="#9795B7" d="M107.963,138.247L107.963,138.247c14.997-5.61,24.933-19.947,24.933-35.97v-9.717
			c-5.133,0-9.313-4.18-9.313-9.313h-15.62H92.38c0,5.133-4.18,9.313-9.313,9.313v9.717
			C83.067,118.301,93.003,132.637,107.963,138.247L107.963,138.247z"/>
		<path fill="#49466F" d="M107.963,138.247L107.963,138.247c14.997-5.61,24.933-19.947,24.933-35.97v-9.717
			c-5.133,0-9.313-4.18-9.313-9.313h-15.62C107.963,83.247,107.963,126.001,107.963,138.247L107.963,138.247z"/>
		<polygon fill="#1C1738" points="104.517,120.427 96.23,112.177 100.813,107.631 104.517,111.334 115.15,100.664 119.697,105.211 
					"/>
		<polygon fill="#0E082D" points="107.963,116.981 107.963,107.851 115.15,100.664 119.697,105.211 		"/>
	</g>
	<g>
		<path fill="#9795B7" d="M97.33,21.115l-12.704-1.579c-0.477-0.037-0.991,0.11-1.358,0.477l-2.313,2.313
			c-0.624,0.624-0.624,1.689,0,2.313l6.939,6.939c0.33,0.33,0.734,0.477,1.138,0.477l9.73-9.105
			C98.872,22.033,98.247,21.225,97.33,21.115z"/>
		<path fill="#49466F" d="M126.151,49.9c-0.11-0.881-0.918-1.542-1.836-1.432l-8.628,8.555c-0.624,0.624-0.624,1.689,0,2.313
			l6.939,6.939c0.33,0.33,0.734,0.477,1.138,0.477c0.404,0,0.844-0.147,1.138-0.477l2.313-2.313
			c0.367-0.367,0.514-0.844,0.477-1.358L126.151,49.9z"/>
		<path fill="#49466F" d="M110.621,21.262l-9.656-0.881c-2.46-0.22-4.81,0.624-6.535,2.35l-8.738,8.738
			c-0.624,0.624-0.624,1.689,0,2.313l4.626,4.626c0.33,0.33,0.734,0.477,1.138,0.477c0.404,0,0.844-0.147,1.138-0.477l19.496-15.384
			C112.163,22.143,111.502,21.335,110.621,21.262z"/>
		<path fill="#9795B7" d="M126.004,36.572c-0.073-0.918-0.844-1.579-1.762-1.469L108.822,54.6c-0.624,0.624-0.624,1.689,0,2.313
			l4.663,4.663c0.33,0.33,0.734,0.477,1.138,0.477s0.844-0.147,1.138-0.477l8.738-8.738c1.726-1.726,2.57-4.112,2.35-6.535
			L126.004,36.572z"/>
		<path fill="#9795B7" d="M128.318,34.957c-0.33,0.367-0.624,0.734-0.991,1.101c-4.112,4.075-15.604,15.567-19.68,19.68
			c-2.313-2.313-4.626-4.626-6.939-6.939c-0.404-0.404-0.734-0.734-1.138-1.138l-1.175-1.138c-2.313-2.313-4.626-4.626-6.939-6.939
			c4.075-4.112,15.567-15.604,19.68-19.68c0.367-0.367,0.734-0.698,1.065-1.028l2.57,1.212l6.132,6.168l6.132,6.132L128.318,34.957z
			"/>
		<path fill="#49466F" d="M128.318,34.957c-0.33,0.367-0.624,0.734-0.991,1.101c-4.112,4.075-15.604,15.567-19.68,19.68
			c-2.313-2.313-4.626-4.626-6.939-6.939c-0.404-0.404-0.734-0.734-1.138-1.138l21.368-21.405l6.132,6.132L128.318,34.957z"/>
		<path fill="#9795B7" d="M135.477,13.405v3.047c0,6.756-2.46,13.291-7.16,18.541l-8.041-8.041l-8.041-8.077
			c5.214-4.663,11.786-7.123,18.578-7.123h3.047c0.441,0,0.844,0.147,1.138,0.441S135.477,12.928,135.477,13.405z"/>
		<path fill="#49466F" d="M135.477,13.405v3.047c0,6.756-2.46,13.291-7.16,18.541l-8.041-8.041L135,12.23
			C135.294,12.487,135.477,12.928,135.477,13.405z"/>
		<path fill="#1C1738" d="M104.085,29.229c-1.909-1.946-4.993-1.946-6.939,0l-9.252,9.289c-0.294,0.294-0.441,0.734-0.441,1.138
			c0,0.404,0.147,0.844,0.441,1.138l4.626,4.626c0.624,0.624,1.652,0.624,2.313,0l9.216-9.252
			C106.031,34.296,106.031,31.138,104.085,29.229z"/>
		<path fill="#1C1738" d="M118,43.108c-1.946-1.909-5.03-1.909-6.939,0l-9.252,9.252c-0.661,0.661-0.661,1.652,0,2.313l4.626,4.626
			c0.661,0.661,1.652,0.661,2.313,0L118,50.047C119.873,48.138,119.873,45.054,118,43.108z"/>
		<path fill="#1C1738" d="M108.711,40.795l-8.004,8.041c-0.404-0.404-0.734-0.734-1.138-1.138l-1.175-1.175l8.004-8.004
			c0.661-0.661,1.652-0.661,2.313,0C109.336,39.106,109.336,40.171,108.711,40.795z"/>
		<path fill="#0E082D" d="M108.711,40.795l-8.004,8.041c-0.404-0.404-0.734-0.734-1.138-1.138l9.142-9.179
			C109.336,39.106,109.336,40.171,108.711,40.795z"/>
		<path fill="#1C1738" d="M118,29.229c-1.946-1.946-5.03-1.946-6.939,0c-1.946,1.909-1.946,5.03,0,6.939
			c1.909,1.946,4.993,1.946,6.939,0C119.873,34.296,119.873,31.138,118,29.229z"/>
		<path fill="#0E082D" d="M118,36.169c-1.946,1.946-5.03,1.946-6.939,0L118,29.229C119.873,31.138,119.873,34.296,118,36.169z"/>
	</g>
	<g>
		<path fill="#9795B7" d="M242.352,136.322h-5.243c-5.28,0-9.607-4.253-9.607-9.57h-3.483l6.087-6.123l6.123,6.087h-3.483
			C232.782,132.069,237.072,136.322,242.352,136.322z"/>
		<g>
			<path fill="#49466F" d="M244.625,117.072v-3.483c0-4.803-3.923-8.69-8.727-8.69l-8.727,0.037c-4.803,0-8.69,3.923-8.69,8.727
				v3.483"/>
			<path fill="#9795B7" d="M224.165,114.506c7.663,0,14.263-3.043,17.49-7.443c-1.54-1.357-3.557-2.163-5.757-2.163l-8.727,0.037
				c-4.803,0-8.69,3.923-8.69,8.727v0.293C220.278,114.322,222.185,114.542,224.165,114.506z"/>
			<path fill="#1C1738" d="M226.365,104.936h0.513l8.25-0.037l1.027,0.037c0,0-2.787,1.137-5.353,1.137
				S226.365,104.936,226.365,104.936z"/>
			<path fill="#9795B7" d="M240.335,90.709L240.335,90.709c-0.073,0-0.11-0.037-0.147-0.11c-0.55-3.117-3.263-5.463-6.527-5.463
				h-4.473c-3.263,0-5.977,2.347-6.527,5.463c0,0.073-0.073,0.11-0.147,0.11l0,0c-0.77,0-1.357,0.623-1.357,1.357v5.977
				c0,0.77,0.623,1.357,1.357,1.357l0,0c0.073,0,0.11,0.037,0.147,0.11c0.55,3.117,3.263,5.463,6.527,5.463h4.51
				c3.263,0,5.977-2.347,6.527-5.463c0-0.073,0.073-0.11,0.147-0.11l0,0c0.77,0,1.357-0.623,1.357-1.357v-5.977
				C241.728,91.296,241.105,90.709,240.335,90.709z"/>
			<path fill="#49466F" d="M240.335,90.709L240.335,90.709c-0.073,0-0.11-0.037-0.147-0.11c-0.55-3.117-3.263-5.463-6.527-5.463l0,0
				l0.037,8.543c0,0.55,0,1.247,0,2.053c-0.037,3.373-1.907,6.453-4.84,8.103l-2.053,0.733l0,0c0.477,0.183,1.357,0.44,2.493,0.403
				h4.327c3.263,0,5.977-2.347,6.527-5.463c0-0.073,0.073-0.11,0.147-0.11l0,0c0.77,0,1.357-0.623,1.357-1.357v-5.977
				C241.728,91.296,241.105,90.709,240.335,90.709z"/>
			<path fill="#0E082D" d="M232.745,101.856h-2.64c-2.933,0-5.28-2.383-5.28-5.28v-4.62c0-1.063,0.88-1.943,1.943-1.943h9.35
				c1.063,0,1.943,0.88,1.943,1.943v4.62C238.062,99.472,235.678,101.856,232.745,101.856z"/>
			<path fill="#1C1738" d="M231.388,101.856c1.467-1.65,2.347-3.813,2.383-6.123c0-0.807,0-1.54,0-2.053l-0.037-3.667h-7.077
				c-1.027,0-1.87,0.843-1.87,1.87v4.913c0,2.787,2.273,5.06,5.06,5.06H231.388z"/>
			<path fill="#49466F" d="M237.512,99.399h-3.813c-0.037-0.183-0.183-0.367-0.403-0.367h-2.677c-0.22,0-0.403,0.183-0.403,0.403
				v0.587c0,0.22,0.183,0.403,0.403,0.403h2.677c0.22,0,0.367-0.147,0.403-0.367h3.85v-0.66H237.512z"/>
			<path fill="#9795B7" d="M230.618,100.462h1.797c0.257-0.44,0.477-0.917,0.697-1.393h-2.457c-0.22,0-0.403,0.183-0.403,0.403
				v0.587C230.215,100.279,230.398,100.462,230.618,100.462z"/>
		</g>
		<g>
			<path fill="#49466F" d="M273.482,136.286v-3.483c0-4.803-3.923-8.69-8.727-8.69l-8.727,0.037c-4.803,0-8.69,3.923-8.69,8.727
				v3.483"/>
			<path fill="#9795B7" d="M252.985,133.719c7.663,0,14.263-3.043,17.49-7.443c-1.54-1.357-3.557-2.163-5.757-2.163l-8.727,0.037
				c-4.803,0-8.69,3.923-8.69,8.727v0.293C249.135,133.499,251.042,133.719,252.985,133.719z"/>
			<path fill="#1C1738" d="M255.222,124.112h0.513l8.25-0.037l1.027,0.037c0,0-2.787,1.137-5.353,1.137
				C257.092,125.249,255.222,124.112,255.222,124.112z"/>
			<path fill="#9795B7" d="M269.192,109.886L269.192,109.886c-0.073,0-0.11-0.037-0.147-0.11c-0.55-3.117-3.263-5.463-6.527-5.463
				h-4.51c-3.263,0-5.977,2.347-6.527,5.463c0,0.073-0.073,0.11-0.147,0.11l0,0c-0.77,0-1.357,0.623-1.357,1.357v5.977
				c0,0.77,0.623,1.357,1.357,1.357l0,0c0.073,0,0.11,0.037,0.147,0.11c0.55,3.117,3.263,5.463,6.527,5.463h4.51
				c3.263,0,5.977-2.347,6.527-5.463c0-0.073,0.073-0.11,0.147-0.11l0,0c0.77,0,1.357-0.623,1.357-1.357v-5.977
				C270.548,110.509,269.962,109.886,269.192,109.886z"/>
			<path fill="#49466F" d="M269.192,109.886L269.192,109.886c-0.073,0-0.11-0.037-0.147-0.11c-0.55-3.117-3.263-5.463-6.527-5.463
				l0,0l0.037,8.543c0,0.55,0,1.247,0,2.053c-0.037,3.373-1.907,6.453-4.84,8.103l-2.053,0.733l0,0
				c0.477,0.183,1.357,0.44,2.493,0.403h4.327c3.263,0,5.977-2.347,6.527-5.463c0-0.073,0.073-0.11,0.147-0.11l0,0
				c0.77,0,1.357-0.623,1.357-1.357v-5.977C270.548,110.509,269.962,109.886,269.192,109.886z"/>
			<path fill="#0E082D" d="M261.602,121.032h-2.64c-2.933,0-5.28-2.383-5.28-5.28v-4.62c0-1.063,0.88-1.943,1.943-1.943h9.35
				c1.063,0,1.943,0.88,1.943,1.943v4.62C266.918,118.649,264.535,121.032,261.602,121.032z"/>
			<path fill="#1C1738" d="M260.208,121.032c1.467-1.65,2.347-3.813,2.383-6.123c0-0.807,0-1.54,0-2.053l-0.037-3.667h-7.04
				c-1.027,0-1.87,0.843-1.87,1.87v4.913c0,2.787,2.273,5.06,5.06,5.06H260.208z"/>
			<path fill="#49466F" d="M266.368,118.612h-3.85c-0.037-0.183-0.183-0.367-0.403-0.367h-2.677c-0.22,0-0.403,0.183-0.403,0.403
				v0.587c0,0.22,0.183,0.403,0.403,0.403h2.677c0.22,0,0.367-0.147,0.403-0.367h3.85V118.612z"/>
			<path fill="#9795B7" d="M259.475,119.639h1.797c0.257-0.44,0.477-0.917,0.697-1.393h-2.457c-0.22,0-0.403,0.183-0.403,0.403
				v0.587C259.072,119.456,259.255,119.639,259.475,119.639z"/>
		</g>
	</g>
	<g>
		<path fill="#9795B7" d="M50.513,26.676L34.967,12.193c-0.623-0.587-1.577-0.587-2.2,0L17.22,26.676
			c-1.063,0.99-0.367,2.787,1.1,2.787h3.19v32.34c0,0.88,0.733,1.613,1.613,1.613H44.61c0.88,0,1.613-0.733,1.613-1.613v-32.34h3.19
			C50.88,29.462,51.577,27.666,50.513,26.676L50.513,26.676z"/>
		<path fill="#49466F" d="M49.413,29.462h-3.19v32.34c0,0.88-0.733,1.613-1.613,1.613H33.867V11.753c0.403,0,0.77,0.147,1.1,0.44
			l15.547,14.483C51.577,27.666,50.88,29.462,49.413,29.462L49.413,29.462z"/>
		<circle fill="#1C1738" cx="46.737" cy="45.779" r="14.483"/>
		<path fill="#0E082D" d="M61.256,45.779c0,8.213-6.783,14.667-14.777,14.483c0.11,0,0.183,0,0.293,0V31.259
			C54.73,31.259,61.256,37.786,61.256,45.779L61.256,45.779z"/>
		<circle fill="#9795B7" cx="46.737" cy="45.779" r="11.293"/>
		<path fill="#49466F" d="M58.03,45.779c0,6.233-5.06,11.293-11.293,11.293V34.486C52.97,34.486,58.03,39.546,58.03,45.779z"/>
		<path fill="#1C1738" d="M49.047,41.269l-6.82,6.82c-0.623,0.623-0.623,1.65,0,2.273c0.33,0.33,0.733,0.477,1.137,0.477
			s0.807-0.147,1.137-0.477l6.82-6.82c0.623-0.623,0.623-1.65,0-2.273S49.707,40.646,49.047,41.269z"/>
		<path fill="#0E082D" d="M51.357,43.542l-4.62,4.583v-4.547l2.31-2.31c0.623-0.623,1.65-0.623,2.273,0
			C51.98,41.892,51.98,42.919,51.357,43.542z"/>
		<circle fill="#1C1738" cx="43.29" cy="42.296" r="1.613"/>
		<path fill="#0E082D" d="M49.01,48.016c-0.623,0.623-0.623,1.65,0,2.273c0.623,0.623,1.65,0.623,2.273,0
			c0.623-0.623,0.623-1.65,0-2.273C50.623,47.392,49.633,47.392,49.01,48.016z"/>
		<path fill="#1C1738" d="M59.643,60.262c0,0-25.85,0.037-25.886,0.037c-0.88,0-1.613,0.733-1.613,1.613v3.227
			c0,0.44,0.183,0.843,0.477,1.137c0.513,0.513,1.137,0.477,1.137,0.477l25.886-0.037c0.88,0,1.613-0.733,1.613-1.613v-3.227
			C61.256,60.959,60.523,60.262,59.643,60.262L59.643,60.262z"/>
		<path fill="#0E082D" d="M61.256,61.875v3.227c0,0.88-0.733,1.613-1.613,1.613H46.737v-6.453c-2.53,0,12.54-0.037,12.87-0.037
			C60.523,60.262,61.256,60.959,61.256,61.875z"/>
	</g>
	<g>
		<path fill="#49466F" d="M160.902,60.453c0,0,8.289-14.956,9.357-19.23s6.078-0.958,6.078-0.958s-2.358,10.167-3.5,13.151
			c-1.142,2.984-4.089,9.946-4.089,9.946l-1.326-6.078L160.902,60.453z"/>
		<path fill="#9795B7" d="M193.356,63.842c0,0-8.289-14.956-9.357-19.23c-1.068-4.273-6.078-0.958-6.078-0.958
			s2.358,10.167,3.5,13.151c1.142,2.984,4.089,9.946,4.089,9.946l1.326-6.078L193.356,63.842z"/>
		<path fill="#9795B7" d="M195.935,28.993c0-2.358-1.842-4.273-4.163-4.421c0.737-0.774,1.179-1.842,1.179-2.984
			c0-2.431-1.989-4.421-4.421-4.421c-0.7,0-1.363,0.184-1.952,0.442c0.074-0.295,0.074-0.589,0.074-0.884
			c0-2.431-1.989-4.421-4.421-4.421c-1.621,0-3.021,0.884-3.794,2.173c-0.663-1.584-2.247-2.726-4.089-2.726
			c-2.358,0-4.273,1.842-4.421,4.163c-0.774-0.663-1.768-1.068-2.873-1.068c-2.431,0-4.421,1.989-4.421,4.421
			c0,0.368,0.037,0.7,0.111,1.031c-2.21,0.221-3.942,2.1-3.942,4.384c0,1.216,0.516,2.358,1.326,3.131
			c-1.253,0.774-2.1,2.137-2.1,3.721c0,2.21,1.621,4.015,3.721,4.31c-0.774,0.81-1.289,1.879-1.289,3.094
			c0,2.431,1.989,4.421,4.421,4.421c0.7,0,1.363-0.184,1.952-0.442c-0.074,0.295-0.074,0.589-0.074,0.884
			c0,2.431,1.989,4.421,4.421,4.421c1.621,0,3.021-0.884,3.794-2.173c0.663,1.584,2.247,2.726,4.089,2.726
			c2.358,0,4.273-1.842,4.421-4.163c0.774,0.663,1.768,1.068,2.873,1.068c2.431,0,4.421-1.989,4.421-4.421
			c0-0.368-0.037-0.7-0.111-1.031c2.21-0.221,3.942-2.1,3.942-4.384c0-1.142-0.442-2.173-1.142-2.947
			C194.94,32.198,195.935,30.724,195.935,28.993z M188.199,31.94c-1.437,0.737-2.431,2.21-2.431,3.942
			c0,0.368,0.037,0.7,0.111,1.031c-2.137,0.221-3.794,1.989-3.942,4.126c-0.774-0.663-1.768-1.068-2.873-1.068
			c-1.621,0-3.021,0.884-3.794,2.173c-0.626-1.584-2.21-2.689-4.052-2.689c-0.7,0-1.363,0.184-1.952,0.442
			c0.074-0.295,0.074-0.589,0.074-0.884c0-2.247-1.658-4.089-3.831-4.384c0.774-0.774,1.253-1.842,1.253-3.021
			c0-1.216-0.479-2.284-1.253-3.058c1.289-0.774,2.173-2.173,2.173-3.794c0-0.368-0.037-0.7-0.111-1.031
			c2.137-0.221,3.794-1.989,3.942-4.126c0.774,0.663,1.768,1.068,2.873,1.068c1.621,0,3.021-0.884,3.794-2.173
			c0.663,1.584,2.247,2.726,4.089,2.726c0.7,0,1.363-0.184,1.952-0.442c-0.074,0.295-0.074,0.589-0.074,0.884
			c0,2.358,1.842,4.273,4.163,4.421c-0.737,0.774-1.179,1.842-1.179,2.984C187.057,30.135,187.499,31.167,188.199,31.94z"/>
		<circle fill="#1C1738" cx="176.963" cy="30.319" r="12.12"/>
		<path fill="#9795B7" d="M177.737,40.081c-0.589-0.626-1.068-0.442-1.584,0.037c0.368-0.663,0.295-1.179-0.516-1.474
			c0.81,0.111,1.253-0.147,1.289-0.995c0.184,0.7,0.442,1.216,1.326,0.921C177.663,38.939,177.295,39.345,177.737,40.081z"/>
		<path fill="#9795B7" d="M172.69,21.662c-0.074,0.81-0.479,1.105-1.289,0.958c0.774,0.332,0.884,0.81,0.553,1.474
			c0.258-0.147,0.479-0.405,0.737-0.442s0.442,0.368,0.774,0.405c0-0.332-0.295-0.626-0.147-0.847s0.442-0.368,0.663-0.516
			c0-0.037,0.037-0.111,0.037-0.147C173.058,22.915,172.874,22.325,172.69,21.662z"/>
		<path fill="#F7C808" d="M181.237,21.662c-0.037,0.847-0.516,1.105-1.326,0.995c0.847,0.295,0.847,0.81,0.516,1.474
			c0.516-0.589,1.031-0.553,1.584-0.037c-0.442-0.737-0.147-1.142,0.516-1.474C181.752,22.804,181.384,22.436,181.237,21.662z"/>
		<path fill="#9795B7" d="M178.289,21.478c-0.81,0.184-1.179-0.184-1.289-0.995c-0.111,0.81-0.516,1.142-1.326,0.995
			c0.884,0.295,0.847,0.81,0.442,1.547c0.368-0.258,0.589-0.479,0.847-0.553c0.295-0.074,0.442,0.332,0.884,0.442
			C177.368,22.215,177.626,21.81,178.289,21.478z"/>
		<path fill="#F7C808" d="M183.594,27.262c0.516-0.589,1.031-0.589,1.584-0.037c-0.405-0.7-0.184-1.142,0.516-1.474
			c-0.847,0.184-1.179-0.221-1.289-0.995c-0.111,0.774-0.442,1.179-1.289,0.958C183.815,26.12,184.036,26.562,183.594,27.262z"/>
		<path fill="#9795B7" d="M169.19,31.535c-0.442-0.737-0.074-1.142,0.516-1.51c-0.884,0.258-1.142-0.221-1.326-0.958
			c0,0.884-0.479,1.105-1.289,0.995c0.81,0.295,0.847,0.81,0.516,1.474C168.122,31.056,168.601,30.909,169.19,31.535z"/>
		<path fill="#F7C808" d="M186.836,30.025c-0.921,0.295-1.142-0.258-1.326-0.921c-0.037,0.847-0.516,1.068-1.289,0.995
			c0.847,0.295,0.847,0.81,0.405,1.547c0.405-0.258,0.626-0.516,0.884-0.553c0.258-0.037,0.442,0.368,0.847,0.405
			C185.915,30.798,186.173,30.356,186.836,30.025z"/>
		<path fill="#F7C808" d="M184.773,34.261c-0.221-0.184-0.258-0.553-0.368-0.847c-0.111,0.737-0.479,1.068-1.326,0.921
			c0.774,0.332,0.847,0.81,0.516,1.51c0.516-0.589,1.031-0.589,1.584-0.037c-0.332-0.7-0.258-1.179,0.442-1.51
			C185.326,34.298,184.957,34.408,184.773,34.261z"/>
		<path fill="#9795B7" d="M173.942,37.503c-0.81,0.184-1.142-0.258-1.253-0.995c-0.111,0.774-0.442,1.142-1.253,0.958
			c0.258,0.258,0.626,0.405,0.7,0.626c0.074,0.221-0.111,0.553-0.184,0.847c0.516-0.516,0.995-0.516,1.51,0.074
			c0.037-0.405-0.295-0.7-0.147-0.958C173.427,37.798,173.721,37.687,173.942,37.503z"/>
		<path fill="#F7C808" d="M182.563,37.466c-0.847,0.184-1.179-0.221-1.289-0.958c-0.074,0.81-0.479,1.105-1.289,0.995
			c0.847,0.295,0.847,0.847,0.405,1.547c0.405-0.258,0.626-0.516,0.884-0.553c0.258-0.037,0.442,0.368,0.847,0.405
			C181.642,38.203,181.9,37.798,182.563,37.466z"/>
		<path fill="#9795B7" d="M169.559,24.793c-0.111,0.774-0.479,1.142-1.253,0.958c0.258,0.258,0.626,0.368,0.7,0.626
			c0.074,0.221-0.111,0.553-0.184,0.847c0,0.037,0.037,0.111,0.037,0.147c0.479-0.737,0.995-0.589,1.547-0.147
			c-0.442-0.737-0.111-1.105,0.516-1.474C170.001,25.972,169.669,25.53,169.559,24.793z"/>
		<path fill="#9795B7" d="M170.811,34.372c-0.774,0.147-1.142-0.258-1.253-1.031c-0.111,0.737-0.442,1.179-1.289,0.995
			c0.774,0.332,0.847,0.81,0.442,1.584c0.405-0.258,0.626-0.516,0.884-0.553c0.258-0.037,0.442,0.368,0.774,0.405
			c-0.074-0.295-0.258-0.626-0.184-0.81C170.259,34.703,170.59,34.556,170.811,34.372z"/>
		<path fill="#49466F" d="M195.935,28.993c0-2.358-1.842-4.273-4.163-4.421c0.737-0.774,1.179-1.842,1.179-2.984
			c0-2.431-1.989-4.421-4.421-4.421c-0.7,0-1.363,0.184-1.952,0.442c0.074-0.295,0.074-0.589,0.074-0.884
			c0-2.431-1.989-4.421-4.421-4.421c-1.621,0-3.021,0.884-3.794,2.173c-0.332-0.774-0.884-1.437-1.584-1.916v7.257
			c0.516-0.368,0.958-0.847,1.289-1.363c0.663,1.584,2.247,2.726,4.089,2.726c0.7,0,1.363-0.184,1.952-0.442
			c-0.074,0.295-0.074,0.589-0.074,0.884c0,2.358,1.842,4.273,4.163,4.421c-0.737,0.774-1.179,1.842-1.179,2.984
			c0,1.142,0.442,2.173,1.142,2.947c-1.437,0.737-2.431,2.21-2.431,3.942c0,0.368,0.037,0.7,0.111,1.031
			c-2.137,0.221-3.794,1.989-3.942,4.126c-0.774-0.663-1.768-1.068-2.873-1.068c-0.81,0-1.584,0.221-2.247,0.589v7.626
			c0.663,0.368,1.4,0.589,2.247,0.589c2.358,0,4.273-1.842,4.421-4.163c0.774,0.663,1.768,1.068,2.873,1.068
			c2.431,0,4.421-1.989,4.421-4.421c0-0.368-0.037-0.7-0.111-1.031c2.21-0.221,3.942-2.1,3.942-4.384
			c0-1.142-0.442-2.173-1.142-2.947C194.94,32.198,195.935,30.724,195.935,28.993z"/>
		<path fill="#0E082D" d="M176.963,18.199c-0.037,0-0.074,0-0.111,0v24.203c0.037,0,0.074,0,0.111,0
			c6.668,0,12.12-5.415,12.12-12.12S183.668,18.199,176.963,18.199z"/>
		<path fill="#49466F" d="M181.237,21.662c-0.037,0.847-0.516,1.105-1.326,0.995c0.847,0.295,0.847,0.81,0.516,1.474
			c0.516-0.589,1.031-0.553,1.584-0.037c-0.442-0.737-0.147-1.142,0.516-1.474C181.752,22.804,181.384,22.436,181.237,21.662z"/>
		<path fill="#49466F" d="M183.594,27.262c0.516-0.589,1.031-0.589,1.584-0.037c-0.405-0.7-0.184-1.142,0.516-1.474
			c-0.847,0.184-1.179-0.221-1.289-0.995c-0.111,0.774-0.442,1.179-1.289,0.958C183.815,26.12,184.036,26.562,183.594,27.262z"/>
		<path fill="#49466F" d="M186.836,30.025c-0.921,0.295-1.142-0.258-1.326-0.921c-0.037,0.847-0.516,1.068-1.289,0.995
			c0.847,0.295,0.847,0.81,0.405,1.547c0.405-0.258,0.626-0.516,0.884-0.553c0.258-0.037,0.442,0.368,0.847,0.405
			C185.915,30.798,186.173,30.356,186.836,30.025z"/>
		<path fill="#49466F" d="M184.773,34.261c-0.221-0.184-0.258-0.553-0.368-0.847c-0.111,0.737-0.479,1.068-1.326,0.921
			c0.774,0.332,0.847,0.81,0.516,1.51c0.516-0.589,1.031-0.589,1.584-0.037c-0.332-0.7-0.258-1.179,0.442-1.51
			C185.326,34.298,184.957,34.408,184.773,34.261z"/>
		<path fill="#49466F" d="M182.563,37.466c-0.847,0.184-1.179-0.221-1.289-0.958c-0.074,0.81-0.479,1.105-1.289,0.995
			c0.847,0.295,0.847,0.847,0.405,1.547c0.405-0.258,0.626-0.516,0.884-0.553c0.258-0.037,0.442,0.368,0.847,0.405
			C181.642,38.203,181.9,37.798,182.563,37.466z"/>
		<path fill="#49466F" d="M178.289,21.478c-0.81,0.184-1.179-0.184-1.289-0.995c-0.037,0.184-0.074,0.332-0.111,0.479v1.547
			c0.037,0,0.037,0,0.074-0.037c0.295-0.074,0.442,0.332,0.884,0.442C177.368,22.215,177.626,21.81,178.289,21.478z"/>
		<path fill="#49466F" d="M178.289,38.571c-0.884,0.295-1.142-0.258-1.326-0.921c0,0.184-0.037,0.332-0.111,0.479v1.584
			c0.295-0.074,0.589,0.037,0.884,0.405C177.295,39.345,177.663,38.939,178.289,38.571z"/>
	</g>
	<g>
		<g>
			<path fill="#1C1738" d="M38.084,97.978h1.832v17.368h-1.832V97.978z"/>
		</g>
		<g>
			<path fill="#1C1738" d="M41.089,98.6l1.282-1.282l10.077,10.077l-1.282,1.282L41.089,98.6z"/>
		</g>
		<g>
			<path fill="#1C1738" d="M25.552,107.358l10.077-10.077l1.282,1.282l-10.077,10.113L25.552,107.358z"/>
		</g>
		<path fill="#49466F" d="M27.091,95.156c0,6.559,5.35,11.909,11.909,11.909s11.909-5.313,11.909-11.909S45.559,83.247,39,83.247
			S27.091,88.56,27.091,95.156"/>
		<path fill="#9795B7" d="M27.091,95.156c0,1.905,0.44,3.701,1.246,5.276H39c2.931,0,5.276-2.382,5.276-5.276V84.493
			c-1.576-0.806-3.371-1.246-5.276-1.246C32.441,83.247,27.091,88.56,27.091,95.156"/>
		<path fill="#1C1738" d="M45.632,92.518c0-1.722-1.099-3.188-2.638-3.738v-2.895h-2.638v2.638H39v-2.638h-2.638v2.638h-2.638v2.638
			h1.319v7.951h-1.319v2.638h2.638v2.638H39v-2.638h1.319v2.638h2.638v-2.895c1.539-0.55,2.638-2.015,2.638-3.738
			c0-1.026-0.403-1.942-1.026-2.638C45.229,94.46,45.632,93.544,45.632,92.518z M41.638,91.199c0.733,0,1.319,0.586,1.319,1.319
			c0,0.733-0.586,1.319-1.319,1.319h-3.957v-2.638H41.638z M41.638,99.113h-3.957v-2.638h3.957c0.733,0,1.319,0.586,1.319,1.319
			C42.957,98.527,42.371,99.113,41.638,99.113z"/>
		<path fill="#0E082D" d="M45.632,92.518c0-1.173-0.513-2.199-1.319-2.931v5.57c0,2.931-2.382,5.276-5.276,5.276h-5.313v1.319h2.638
			v2.638H39v-2.638h1.319v2.638h2.638v-2.895c1.539-0.55,2.638-2.015,2.638-3.738c0-1.026-0.403-1.942-1.026-2.638
			C45.229,94.46,45.632,93.544,45.632,92.518z"/>
		<path fill="#9795B7" d="M29.839,114.43l-9.161-5.496l-9.161,5.496l9.161,5.496L29.839,114.43z"/>
		<path fill="#49466F" d="M11.555,114.43v9.161l9.161,5.496v-9.161"/>
		<path fill="#1C1738" d="M29.839,114.43v9.161l-9.161,5.496v-9.161"/>
		<path fill="#9795B7" d="M48.161,123.59L39,118.094l-9.161,5.496L39,129.087L48.161,123.59z"/>
		<path fill="#49466F" d="M29.839,123.59v9.161L39,138.247v-9.161"/>
		<path fill="#1C1738" d="M48.161,123.59v9.161L39,138.247v-9.161"/>
		<path fill="#9795B7" d="M66.445,114.43l-9.161-5.496l-9.161,5.496l9.161,5.496L66.445,114.43z"/>
		<path fill="#49466F" d="M48.161,114.43v9.161l9.161,5.496v-9.161"/>
		<path fill="#1C1738" d="M66.445,114.43v9.161l-9.161,5.496v-9.161"/>
	</g>
	<g>
		<path fill="#49466F" d="M264.561,50.219v6.156c0,1.364-0.995,2.617-2.765,3.76c-0.258,0.147-0.516,0.332-0.811,0.479l0,0
			c-0.258,0.147-0.516,0.258-0.811,0.405c-0.958,0.442-2.027,0.848-3.244,1.216c-0.258,0.074-0.553,0.147-0.811,0.258l0,0
			c-0.258,0.074-0.516,0.147-0.811,0.221c-1.032,0.258-2.101,0.479-3.244,0.7c-0.258,0.037-0.553,0.111-0.811,0.147l0,0
			c-0.258,0.037-0.516,0.074-0.811,0.111c-1.032,0.147-2.138,0.258-3.244,0.369c-0.258,0.037-0.553,0.037-0.811,0.074l0,0
			c-0.258,0.037-0.516,0.037-0.811,0.074c-1.069,0.074-2.138,0.111-3.244,0.111c-0.258,0-0.553,0-0.811,0l0,0
			c-0.258,0-0.553,0-0.811,0c-1.106,0-2.175-0.037-3.244-0.111c-0.258,0-0.553-0.037-0.811-0.074l0,0
			c-0.258,0-0.553-0.037-0.811-0.074c-1.106-0.111-2.212-0.221-3.244-0.369c-0.258-0.037-0.553-0.074-0.811-0.111l0,0
			c-0.258-0.037-0.553-0.074-0.811-0.147c-1.143-0.184-2.212-0.442-3.244-0.7c-0.258-0.074-0.553-0.147-0.811-0.221l0,0
			c-0.258-0.074-0.553-0.147-0.811-0.258c-1.216-0.369-2.286-0.774-3.244-1.216c-0.295-0.147-0.553-0.258-0.811-0.405l0,0
			c-0.295-0.147-0.553-0.295-0.811-0.442c-1.769-1.106-2.765-2.396-2.765-3.76v-6.193H264.561z"/>
		<path fill="#1C1738" d="M264.561,50.219c0,1.364-0.995,2.617-2.765,3.723c-0.258,0.184-0.516,0.332-0.811,0.479
			c-0.258,0.147-0.516,0.258-0.811,0.405c-0.958,0.442-2.027,0.848-3.244,1.216c-0.258,0.074-0.553,0.147-0.811,0.258l0,0
			c-0.258,0.074-0.516,0.147-0.811,0.221c-1.032,0.258-2.101,0.479-3.244,0.7c-0.258,0.037-0.553,0.111-0.811,0.147l0,0
			c-0.258,0.037-0.516,0.074-0.811,0.111c-1.032,0.147-2.138,0.258-3.244,0.369c-0.258,0.037-0.553,0.037-0.811,0.074l0,0
			c-0.258,0.037-0.516,0.037-0.811,0.074c-1.069,0.074-2.138,0.111-3.244,0.111c-0.258,0-0.553,0-0.811,0l0,0
			c-0.258,0-0.553,0-0.811,0c-1.106,0-2.175-0.037-3.244-0.111c-0.258,0-0.553-0.037-0.811-0.074l0,0
			c-0.258,0-0.553-0.037-0.811-0.074c-1.106-0.111-2.212-0.221-3.244-0.369c-0.258-0.037-0.553-0.074-0.811-0.111l0,0
			c-0.258-0.037-0.553-0.074-0.811-0.147c-1.143-0.184-2.212-0.442-3.244-0.7c-0.258-0.074-0.553-0.147-0.811-0.221l0,0
			c-0.258-0.074-0.553-0.147-0.811-0.258c-1.216-0.369-2.286-0.774-3.244-1.216c-0.295-0.147-0.553-0.258-0.811-0.405l0,0
			c-0.295-0.147-0.553-0.295-0.811-0.442c-1.769-1.106-2.765-2.396-2.765-3.76c0-4.35,10.322-7.889,23.076-7.889
			C254.313,42.331,264.561,45.87,264.561,50.219z"/>
		<path fill="#9795B7" d="M241.447,55.896c-0.221,0-0.442,0-0.664,0c-1.069,0-2.101-0.037-3.17-0.111
			c-0.258,0-0.516-0.037-0.737-0.037h-0.111h-0.037c-0.221,0-0.442-0.037-0.627-0.037c-1.18-0.111-2.175-0.221-3.17-0.369
			c-0.221-0.037-0.369-0.037-0.516-0.074l-0.442-0.074c-0.147-0.037-0.59-0.111-0.59-0.111c-1.032-0.184-2.064-0.405-3.097-0.664
			c-0.258-0.074-0.516-0.147-0.774-0.221l-0.774-0.221c-0.922-0.295-1.733-0.59-2.507-0.922l0,0l-1.216-0.59l-0.406-0.221l0,0
			c-0.074-0.037-0.111-0.074-0.184-0.111c-1.327-0.811-1.769-1.548-1.769-1.917c0-1.991,7.926-5.677,20.865-5.677
			c12.939,0,20.865,3.686,20.865,5.677c0,0.369-0.442,1.069-1.733,1.88c-0.258,0.184-0.442,0.295-0.627,0.369l-0.111,0.074
			c-0.184,0.111-0.405,0.221-0.627,0.332c-0.811,0.369-1.806,0.737-2.949,1.106l-0.774,0.221c-0.258,0.074-0.516,0.147-0.774,0.221
			c-1.032,0.258-2.027,0.479-3.06,0.664c-0.221,0.037-0.406,0.074-0.627,0.111l-0.442,0.074c-0.147,0.037-0.295,0.037-0.442,0.074
			c-1.032,0.147-2.064,0.258-3.17,0.369c-0.221,0.037-0.442,0.037-0.7,0.074h-0.147c-0.258,0.037-0.479,0.037-0.737,0.037
			c-1.069,0.074-2.138,0.111-3.133,0.111c-0.258,0-0.516,0-0.737,0C241.558,55.896,241.447,55.896,241.447,55.896z"/>
		<path fill="#1C1738" d="M222.832,54.827v6.193c-0.295-0.147-0.553-0.258-0.811-0.405l0,0c-0.295-0.147-0.553-0.295-0.811-0.442
			V53.98c0.258,0.147,0.516,0.332,0.811,0.442l0,0C222.279,54.569,222.574,54.717,222.832,54.827z"/>
		<path fill="#1C1738" d="M227.697,56.523v6.193c-0.258-0.074-0.553-0.147-0.811-0.221l0,0c-0.258-0.074-0.553-0.147-0.811-0.258
			v-6.193c0.258,0.074,0.516,0.147,0.811,0.258l0,0C227.145,56.376,227.439,56.449,227.697,56.523z"/>
		<path fill="#1C1738" d="M232.563,57.482v6.193c-0.258-0.037-0.553-0.074-0.811-0.111l0,0c-0.258-0.037-0.553-0.074-0.811-0.147
			v-6.193c0.258,0.037,0.516,0.111,0.811,0.147l0,0C232.047,57.371,232.305,57.445,232.563,57.482z"/>
		<path fill="#1C1738" d="M237.429,57.961v6.193c-0.258,0-0.553-0.037-0.811-0.074l0,0c-0.258,0-0.553-0.037-0.811-0.074V57.85
			c0.258,0.037,0.516,0.037,0.811,0.074l0,0C236.913,57.924,237.171,57.961,237.429,57.961z"/>
		<path fill="#1C1738" d="M242.332,58.071v6.193c-0.258,0-0.553,0-0.811,0l0,0c-0.258,0-0.553,0-0.811,0v-6.193
			c0.258,0,0.516,0,0.811,0l0,0C241.779,58.071,242.037,58.071,242.332,58.071z"/>
		<path fill="#1C1738" d="M247.198,57.85v6.193c-0.258,0.037-0.553,0.037-0.811,0.074l0,0c-0.258,0.037-0.516,0.037-0.811,0.074
			v-6.193c0.258,0,0.553-0.037,0.811-0.074l0,0C246.645,57.887,246.903,57.85,247.198,57.85z"/>
		<path fill="#1C1738" d="M252.064,57.223v6.156c-0.258,0.037-0.553,0.111-0.811,0.147l0,0c-0.258,0.037-0.516,0.074-0.811,0.111
			v-6.156c0.258-0.037,0.553-0.074,0.811-0.111l0,0C251.511,57.297,251.769,57.26,252.064,57.223z"/>
		<path fill="#1C1738" d="M256.93,56.044v6.193c-0.258,0.074-0.553,0.147-0.811,0.258l0,0c-0.258,0.074-0.516,0.147-0.811,0.221
			v-6.193c0.258-0.074,0.553-0.147,0.811-0.221l0,0C256.377,56.228,256.635,56.154,256.93,56.044z"/>
		<path fill="#1C1738" d="M261.796,53.943v6.193c-0.258,0.147-0.516,0.332-0.811,0.479l0,0c-0.258,0.147-0.516,0.258-0.811,0.405
			v-6.193c0.295-0.147,0.553-0.258,0.811-0.405C261.243,54.274,261.538,54.127,261.796,53.943z"/>
		<path fill="#49466F" d="M273.482,40.819v6.193c0,1.364-0.995,2.617-2.765,3.76c-0.258,0.147-0.516,0.332-0.811,0.479l0,0
			c-0.258,0.147-0.516,0.258-0.811,0.405c-0.958,0.442-2.027,0.848-3.244,1.216c-0.258,0.074-0.553,0.147-0.811,0.258l0,0
			c-0.258,0.074-0.516,0.147-0.811,0.221c-1.032,0.258-2.101,0.479-3.244,0.7c-0.258,0.037-0.553,0.111-0.811,0.147l0,0
			c-0.258,0.037-0.516,0.074-0.811,0.111c-1.032,0.147-2.138,0.258-3.244,0.369c-0.258,0.037-0.553,0.037-0.811,0.074l0,0
			c-0.258,0.037-0.516,0.037-0.811,0.074c-1.069,0.074-2.138,0.111-3.244,0.111c-0.258,0-0.553,0-0.811,0l0,0
			c-0.258,0-0.553,0-0.811,0c-1.106,0-2.175-0.037-3.244-0.111c-0.258,0-0.553-0.037-0.811-0.074l0,0
			c-0.258,0-0.553-0.037-0.811-0.074c-1.106-0.111-2.212-0.221-3.244-0.369c-0.258-0.037-0.553-0.074-0.811-0.111l0,0
			c-0.258-0.037-0.553-0.074-0.811-0.147c-1.143-0.184-2.212-0.442-3.244-0.7c-0.258-0.074-0.553-0.147-0.811-0.221l0,0
			c-0.258-0.074-0.553-0.147-0.811-0.258c-1.216-0.369-2.286-0.774-3.244-1.216c-0.295-0.147-0.553-0.258-0.811-0.405l0,0
			c-0.295-0.147-0.553-0.295-0.811-0.442c-1.769-1.106-2.765-2.396-2.765-3.76v-6.23H273.482L273.482,40.819z"/>
		<path fill="#1C1738" d="M273.482,40.819c0,1.364-0.995,2.617-2.765,3.723c-0.258,0.184-0.516,0.332-0.811,0.479
			c-0.258,0.147-0.516,0.258-0.811,0.405c-0.958,0.442-2.027,0.848-3.244,1.216c-0.258,0.074-0.553,0.147-0.811,0.258l0,0
			c-0.258,0.074-0.516,0.147-0.811,0.221c-1.032,0.258-2.101,0.479-3.244,0.7c-0.258,0.037-0.553,0.111-0.811,0.147l0,0
			c-0.258,0.037-0.516,0.074-0.811,0.111c-1.032,0.147-2.138,0.258-3.244,0.369c-0.258,0.037-0.553,0.037-0.811,0.074l0,0
			c-0.258,0.037-0.516,0.037-0.811,0.074c-1.069,0.074-2.138,0.111-3.244,0.111c-0.258,0-0.553,0-0.811,0l0,0
			c-0.258,0-0.553,0-0.811,0c-1.106,0-2.175-0.037-3.244-0.111c-0.258,0-0.553-0.037-0.811-0.074l0,0
			c-0.258,0-0.553-0.037-0.811-0.074c-1.106-0.111-2.212-0.221-3.244-0.369c-0.258-0.037-0.553-0.074-0.811-0.111l0,0
			c-0.258-0.037-0.553-0.074-0.811-0.147c-1.143-0.184-2.212-0.442-3.244-0.7c-0.258-0.074-0.553-0.147-0.811-0.221l0,0
			c-0.258-0.074-0.553-0.147-0.811-0.258c-1.216-0.369-2.286-0.774-3.244-1.216c-0.295-0.147-0.553-0.258-0.811-0.405l0,0
			c-0.295-0.147-0.553-0.295-0.811-0.442c-1.769-1.106-2.765-2.396-2.765-3.76c0-4.35,10.322-7.889,23.076-7.889
			S273.482,36.469,273.482,40.819z"/>
		<path fill="#9795B7" d="M250.368,46.496c-0.221,0-0.442,0-0.664,0c-1.069,0-2.138-0.037-3.17-0.111
			c-0.258,0-0.516-0.037-0.737-0.037h-0.111h-0.037c-0.221,0-0.405-0.037-0.627-0.037c-1.18-0.111-2.212-0.221-3.17-0.369
			c-0.221-0.037-0.369-0.037-0.553-0.074l-0.442-0.074c-0.184-0.037-0.59-0.111-0.59-0.111c-1.032-0.184-2.064-0.405-3.097-0.664
			c-0.258-0.074-0.516-0.147-0.774-0.221l-0.737-0.221c-0.922-0.295-1.769-0.59-2.507-0.922l0,0l-1.216-0.59l-0.405-0.221l0,0
			c-0.074-0.037-0.111-0.074-0.184-0.111c-1.327-0.811-1.769-1.548-1.769-1.88c0-1.991,7.926-5.677,20.865-5.677
			c12.939,0,20.865,3.686,20.865,5.677c0,0.369-0.442,1.069-1.733,1.88c-0.258,0.184-0.442,0.295-0.627,0.369l-0.111,0.074
			c-0.184,0.111-0.406,0.221-0.627,0.332c-0.811,0.369-1.806,0.737-2.949,1.106c-0.221,0.074-0.774,0.221-0.774,0.221
			c-0.258,0.074-0.516,0.147-0.774,0.221c-1.032,0.258-2.027,0.479-3.06,0.664c-0.221,0.037-0.405,0.074-0.627,0.111l-0.442,0.074
			c-0.147,0.037-0.295,0.037-0.442,0.074c-1.032,0.147-2.064,0.258-3.17,0.369c-0.221,0.037-0.442,0.037-0.7,0.074h-0.147
			c-0.258,0.037-0.479,0.037-0.737,0.037c-1.069,0.074-2.101,0.111-3.133,0.111c-0.258,0-0.516,0-0.737,0
			C250.479,46.496,250.368,46.496,250.368,46.496z"/>
		<path fill="#1C1738" d="M231.789,45.464v6.193c-0.295-0.147-0.553-0.258-0.811-0.405l0,0c-0.295-0.147-0.553-0.295-0.811-0.442
			v-6.23c0.258,0.147,0.516,0.332,0.811,0.442l0,0C231.236,45.206,231.494,45.317,231.789,45.464z"/>
		<path fill="#49466F" d="M250.442,35.142c-0.442,0-0.885,0-1.327,0c12.128,0.258,19.501,3.723,19.501,5.677
			c0,0.369-0.442,1.069-1.733,1.88c-0.258,0.184-0.442,0.295-0.627,0.369l-0.111,0.074c-0.184,0.111-0.405,0.221-0.627,0.332
			c-0.811,0.369-1.806,0.737-2.949,1.106c-0.221,0.074-0.774,0.221-0.774,0.221c-0.258,0.074-0.516,0.147-0.774,0.221
			c-1.032,0.258-2.027,0.479-3.06,0.664c-0.221,0.037-0.405,0.074-0.627,0.111l-0.442,0.074c-0.147,0.037-0.295,0.037-0.442,0.074
			c-1.032,0.147-2.064,0.258-3.17,0.369c-0.221,0.037-0.442,0.037-0.7,0.074h-0.147c-0.258,0.037-0.479,0.037-0.737,0.037
			c-0.885,0.037-1.733,0.074-2.58,0.111c0.184,0,0.405,0,0.59,0c0.221,0,0.442,0,0.664,0c0.037,0,0.111,0,0.147,0
			c0.221,0,0.479,0,0.737,0c1.032,0,2.064-0.037,3.133-0.111c0.258,0,0.479-0.037,0.737-0.037h0.147c0.221,0,0.442-0.037,0.7-0.074
			c1.143-0.111,2.138-0.221,3.17-0.369c0.147,0,0.295-0.037,0.442-0.074l0.442-0.074c0.184-0.037,0.406-0.074,0.627-0.111
			c1.032-0.184,2.027-0.405,3.06-0.664c0.258-0.074,0.516-0.147,0.774-0.221c0,0,0.553-0.147,0.774-0.221
			c1.143-0.369,2.138-0.737,2.949-1.106c0.221-0.111,0.442-0.221,0.627-0.332l0.111-0.074c0.184-0.074,0.369-0.184,0.627-0.369
			c1.29-0.811,1.733-1.511,1.733-1.88C271.27,38.829,263.381,35.142,250.442,35.142z"/>
		<path fill="#1C1738" d="M236.655,47.16v6.193c-0.258-0.074-0.553-0.147-0.811-0.221l0,0c-0.258-0.074-0.553-0.147-0.811-0.258
			v-6.193c0.258,0.074,0.516,0.147,0.811,0.258l0,0C236.102,47.012,236.36,47.086,236.655,47.16z"/>
		<path fill="#1C1738" d="M241.521,48.081v6.193c-0.258-0.037-0.553-0.074-0.811-0.111l0,0c-0.258-0.037-0.553-0.074-0.811-0.147
			v-6.193c0.258,0.037,0.516,0.111,0.811,0.147l0,0C240.968,48.008,241.226,48.045,241.521,48.081z"/>
		<path fill="#1C1738" d="M246.387,48.597v6.193c-0.258,0-0.553-0.037-0.811-0.074l0,0c-0.258,0-0.553-0.037-0.811-0.074V48.45
			c0.258,0.037,0.516,0.037,0.811,0.074l0,0C245.834,48.561,246.092,48.561,246.387,48.597z"/>
		<path fill="#1C1738" d="M251.253,48.708v6.193c-0.258,0-0.553,0-0.811,0l0,0c-0.258,0-0.553,0-0.811,0v-6.193
			c0.258,0,0.516,0,0.811,0l0,0C250.7,48.708,250.958,48.708,251.253,48.708z"/>
		<path fill="#1C1738" d="M256.119,48.45v6.193c-0.258,0.037-0.553,0.037-0.811,0.074l0,0c-0.258,0.037-0.516,0.037-0.811,0.074
			v-6.193c0.258,0,0.553-0.037,0.811-0.074l0,0C255.566,48.524,255.861,48.487,256.119,48.45z"/>
		<path fill="#1C1738" d="M260.985,47.823v6.193c-0.258,0.037-0.553,0.111-0.811,0.147l0,0c-0.258,0.037-0.516,0.074-0.811,0.111
			v-6.193c0.258-0.037,0.553-0.074,0.811-0.111l0,0C260.432,47.934,260.727,47.897,260.985,47.823z"/>
		<path fill="#1C1738" d="M265.851,46.681v6.193c-0.258,0.074-0.553,0.147-0.811,0.258l0,0c-0.258,0.074-0.516,0.147-0.811,0.221
			V47.16c0.258-0.074,0.553-0.147,0.811-0.221l0,0C265.298,46.828,265.593,46.754,265.851,46.681z"/>
		<path fill="#1C1738" d="M270.717,44.579v6.193c-0.258,0.147-0.516,0.332-0.811,0.479l0,0c-0.258,0.147-0.516,0.258-0.811,0.405
			v-6.193c0.295-0.147,0.553-0.258,0.811-0.405C270.201,44.911,270.459,44.727,270.717,44.579z"/>
		<path fill="#49466F" d="M264.561,31.456v6.193c0,1.364-0.995,2.617-2.765,3.76c-0.258,0.147-0.516,0.332-0.811,0.479l0,0
			c-0.258,0.147-0.516,0.258-0.811,0.405c-0.958,0.442-2.027,0.848-3.244,1.216c-0.258,0.074-0.553,0.147-0.811,0.258l0,0
			c-0.258,0.074-0.516,0.147-0.811,0.221c-1.032,0.258-2.101,0.479-3.244,0.7c-0.258,0.037-0.553,0.111-0.811,0.147l0,0
			c-0.258,0.037-0.516,0.074-0.811,0.111c-1.032,0.147-2.138,0.258-3.244,0.369c-0.258,0.037-0.553,0.037-0.811,0.074l0,0
			c-0.258,0.037-0.516,0.037-0.811,0.074c-1.069,0.074-2.138,0.111-3.244,0.111c-0.258,0-0.553,0-0.811,0l0,0
			c-0.258,0-0.553,0-0.811,0c-1.106,0-2.175-0.037-3.244-0.111c-0.258,0-0.553-0.037-0.811-0.074l0,0
			c-0.258,0-0.553-0.037-0.811-0.074c-1.106-0.111-2.212-0.221-3.244-0.369c-0.258-0.037-0.553-0.074-0.811-0.111l0,0
			c-0.258-0.037-0.553-0.074-0.811-0.147c-1.143-0.184-2.212-0.442-3.244-0.7c-0.258-0.074-0.553-0.147-0.811-0.221l0,0
			c-0.258-0.074-0.553-0.147-0.811-0.258c-1.216-0.369-2.286-0.774-3.244-1.216c-0.295-0.147-0.553-0.258-0.811-0.405l0,0
			c-0.295-0.147-0.553-0.295-0.811-0.442c-1.769-1.106-2.765-2.396-2.765-3.76v-6.23H264.561z"/>
		<path fill="#1C1738" d="M264.561,31.456c0,1.364-0.995,2.617-2.765,3.723c-0.258,0.184-0.516,0.332-0.811,0.479
			c-0.258,0.147-0.516,0.258-0.811,0.405c-0.958,0.442-2.027,0.848-3.244,1.216c-0.258,0.074-0.553,0.147-0.811,0.258l0,0
			c-0.258,0.074-0.516,0.147-0.811,0.221c-1.032,0.258-2.101,0.479-3.244,0.7c-0.258,0.037-0.553,0.111-0.811,0.147l0,0
			c-0.258,0.037-0.516,0.074-0.811,0.111c-1.032,0.147-2.138,0.258-3.244,0.369c-0.258,0.037-0.553,0.037-0.811,0.074l0,0
			c-0.258,0.037-0.516,0.037-0.811,0.074c-1.069,0.074-2.138,0.111-3.244,0.111c-0.258,0-0.553,0-0.811,0l0,0
			c-0.258,0-0.553,0-0.811,0c-1.106,0-2.175-0.037-3.244-0.111c-0.258,0-0.553-0.037-0.811-0.074l0,0
			c-0.258,0-0.553-0.037-0.811-0.074c-1.106-0.111-2.212-0.221-3.244-0.369c-0.258-0.037-0.553-0.074-0.811-0.111l0,0
			c-0.258-0.037-0.553-0.074-0.811-0.147c-1.143-0.184-2.212-0.442-3.244-0.7c-0.258-0.074-0.553-0.147-0.811-0.221l0,0
			c-0.258-0.074-0.553-0.147-0.811-0.258c-1.216-0.369-2.286-0.774-3.244-1.216c-0.295-0.147-0.553-0.258-0.811-0.405l0,0
			c-0.295-0.147-0.553-0.295-0.811-0.442c-1.769-1.106-2.765-2.396-2.765-3.76c0-4.35,10.322-7.889,23.076-7.889
			C254.313,23.567,264.561,27.106,264.561,31.456z"/>
		<path fill="#9795B7" d="M241.447,37.133c-0.221,0-0.442,0-0.664,0c-1.069,0-2.101-0.037-3.17-0.111
			c-0.258,0-0.516-0.037-0.737-0.037h-0.111h-0.037c-0.221,0-0.405-0.037-0.627-0.037c-1.18-0.111-2.212-0.221-3.17-0.369
			c-0.221-0.037-0.369-0.037-0.516-0.074l-0.442-0.074c-0.147-0.037-0.59-0.111-0.59-0.111c-1.032-0.184-2.064-0.405-3.097-0.664
			c-0.258-0.074-0.516-0.147-0.774-0.221l-0.774-0.221c-0.922-0.295-1.769-0.59-2.507-0.922l0,0l-1.253-0.627l-0.369-0.221l0,0
			c-0.074-0.037-0.111-0.074-0.184-0.111c-1.327-0.811-1.769-1.548-1.769-1.917c0-1.954,7.926-5.64,20.865-5.64
			c12.939,0,20.865,3.686,20.865,5.677c0,0.369-0.442,1.069-1.733,1.88c-0.258,0.184-0.479,0.295-0.627,0.369l-0.111,0.074
			c-0.184,0.111-0.405,0.221-0.627,0.332c-0.811,0.369-1.806,0.737-2.949,1.106l-0.774,0.221c-0.258,0.074-0.516,0.147-0.774,0.221
			c-1.032,0.258-2.027,0.479-3.06,0.664c-0.221,0.037-0.442,0.074-0.627,0.111l-0.479,0.037c-0.147,0.037-0.295,0.037-0.442,0.074
			c-1.032,0.147-2.064,0.258-3.17,0.369c-0.221,0.037-0.442,0.037-0.7,0.074h-0.147c-0.258,0.037-0.479,0.037-0.737,0.037
			c-1.069,0.074-2.101,0.111-3.133,0.111c-0.258,0-0.516,0-0.737,0C241.558,37.133,241.447,37.133,241.447,37.133z"/>
		<path fill="#1C1738" d="M222.832,36.064v6.193c-0.295-0.147-0.553-0.258-0.811-0.405l0,0c-0.295-0.147-0.553-0.295-0.811-0.442
			v-6.193c0.258,0.147,0.516,0.332,0.811,0.442l0,0C222.279,35.806,222.574,35.953,222.832,36.064z"/>
		<path fill="#1C1738" d="M227.697,37.76v6.193c-0.258-0.074-0.553-0.147-0.811-0.221l0,0c-0.258-0.074-0.553-0.147-0.811-0.258
			v-6.156c0.258,0.074,0.516,0.147,0.811,0.258l0,0C227.145,37.612,227.439,37.686,227.697,37.76z"/>
		<path fill="#1C1738" d="M232.563,38.718v6.193c-0.258-0.037-0.553-0.074-0.811-0.111l0,0c-0.258-0.037-0.553-0.074-0.811-0.147
			V38.46c0.258,0.037,0.516,0.111,0.811,0.147l0,0C232.047,38.644,232.305,38.681,232.563,38.718z"/>
		<path fill="#1C1738" d="M237.429,39.197v6.193c-0.258,0-0.553-0.037-0.811-0.074l0,0c-0.258,0-0.553-0.037-0.811-0.074v-6.156
			c0.258,0.037,0.516,0.037,0.811,0.074l0,0C236.913,39.16,237.171,39.197,237.429,39.197z"/>
		<path fill="#1C1738" d="M242.332,39.308v6.193c-0.258,0-0.553,0-0.811,0l0,0c-0.258,0-0.553,0-0.811,0v-6.193
			c0.258,0,0.516,0,0.811,0l0,0C241.779,39.345,242.037,39.345,242.332,39.308z"/>
		<path fill="#1C1738" d="M247.198,39.087v6.193c-0.258,0.037-0.553,0.037-0.811,0.074l0,0c-0.258,0.037-0.516,0.037-0.811,0.074
			v-6.23c0.258,0,0.553-0.037,0.811-0.074l0,0C246.645,39.124,246.903,39.124,247.198,39.087z"/>
		<path fill="#1C1738" d="M252.064,38.46v6.193c-0.258,0.037-0.553,0.111-0.811,0.147l0,0c-0.258,0.037-0.516,0.074-0.811,0.111
			v-6.193c0.258-0.037,0.553-0.074,0.811-0.111l0,0C251.511,38.571,251.769,38.497,252.064,38.46z"/>
		<path fill="#1C1738" d="M256.93,37.317v6.156c-0.258,0.074-0.553,0.147-0.811,0.258l0,0c-0.258,0.074-0.516,0.147-0.811,0.221
			V37.76c0.258-0.074,0.553-0.147,0.811-0.221l0,0C256.377,37.465,256.635,37.391,256.93,37.317z"/>
		<path fill="#1C1738" d="M261.796,35.179v6.193c-0.258,0.147-0.516,0.332-0.811,0.479l0,0c-0.258,0.147-0.516,0.258-0.811,0.405
			v-6.193c0.295-0.147,0.553-0.258,0.811-0.405C261.243,35.511,261.538,35.364,261.796,35.179z"/>
		<path fill="#49466F" d="M273.482,22.093v6.193c0,1.364-0.995,2.617-2.765,3.76c-0.258,0.147-0.516,0.332-0.811,0.479l0,0
			c-0.258,0.147-0.516,0.258-0.811,0.405c-0.958,0.442-2.027,0.848-3.244,1.216c-0.258,0.074-0.553,0.147-0.811,0.258l0,0
			c-0.258,0.074-0.516,0.147-0.811,0.221c-1.032,0.258-2.101,0.479-3.244,0.7c-0.258,0.037-0.553,0.111-0.811,0.147l0,0
			c-0.258,0.037-0.516,0.074-0.811,0.111c-1.032,0.147-2.138,0.258-3.244,0.369c-0.258,0.037-0.553,0.037-0.811,0.074l0,0
			c-0.258,0.037-0.516,0.037-0.811,0.074c-1.069,0.074-2.138,0.111-3.244,0.111c-0.258,0-0.553,0-0.811,0l0,0
			c-0.258,0-0.553,0-0.811,0c-1.106,0-2.175-0.037-3.244-0.111c-0.258,0-0.553-0.037-0.811-0.074l0,0
			c-0.258,0-0.553-0.037-0.811-0.074c-1.106-0.111-2.212-0.221-3.244-0.369c-0.258-0.037-0.553-0.074-0.811-0.111l0,0
			c-0.258-0.037-0.553-0.074-0.811-0.147c-1.143-0.184-2.212-0.442-3.244-0.7c-0.258-0.074-0.553-0.147-0.811-0.221l0,0
			c-0.258-0.074-0.553-0.147-0.811-0.258c-1.216-0.369-2.286-0.774-3.244-1.216c-0.295-0.147-0.553-0.258-0.811-0.405l0,0
			c-0.295-0.147-0.553-0.295-0.811-0.442c-1.769-1.106-2.765-2.396-2.765-3.76v-6.23H273.482z"/>
		<path fill="#1C1738" d="M273.482,22.093c0,1.364-0.995,2.617-2.765,3.723c-0.258,0.184-0.516,0.332-0.811,0.479
			c-0.258,0.147-0.516,0.258-0.811,0.405c-0.958,0.442-2.027,0.848-3.244,1.216c-0.258,0.074-0.553,0.147-0.811,0.258l0,0
			c-0.258,0.074-0.516,0.147-0.811,0.221c-1.032,0.258-2.101,0.479-3.244,0.7c-0.258,0.037-0.553,0.111-0.811,0.147l0,0
			c-0.258,0.037-0.516,0.074-0.811,0.111c-1.032,0.147-2.138,0.258-3.244,0.369c-0.258,0.037-0.553,0.037-0.811,0.074l0,0
			c-0.258,0.037-0.516,0.037-0.811,0.074c-1.069,0.074-2.138,0.111-3.244,0.111c-0.258,0-0.553,0-0.811,0l0,0
			c-0.258,0-0.553,0-0.811,0c-1.106,0-2.175-0.037-3.244-0.111c-0.258,0-0.553-0.037-0.811-0.074l0,0
			c-0.258,0-0.553-0.037-0.811-0.074c-1.106-0.111-2.212-0.221-3.244-0.369c-0.258-0.037-0.553-0.074-0.811-0.111l0,0
			c-0.258-0.037-0.553-0.074-0.811-0.147c-1.143-0.184-2.212-0.442-3.244-0.7c-0.258-0.074-0.553-0.147-0.811-0.221l0,0
			c-0.258-0.074-0.553-0.147-0.811-0.258c-1.216-0.369-2.286-0.774-3.244-1.216c-0.295-0.147-0.553-0.258-0.811-0.405l0,0
			c-0.295-0.147-0.553-0.295-0.811-0.442c-1.769-1.106-2.765-2.396-2.765-3.76c0-4.35,10.322-7.889,23.076-7.889
			S273.482,17.743,273.482,22.093z"/>
		<path fill="#9795B7" d="M250.479,27.77c-0.221,0-0.442,0-0.664,0c-1.069,0-2.101-0.037-3.17-0.111
			c-0.258,0-0.516-0.037-0.737-0.037h-0.111h-0.037c-0.221,0-0.406-0.037-0.627-0.037c-1.18-0.111-2.212-0.221-3.17-0.369
			c-0.221-0.037-0.369-0.037-0.516-0.074l-0.442-0.074c-0.147-0.037-0.59-0.111-0.59-0.111c-1.032-0.184-2.064-0.405-3.097-0.664
			c-0.258-0.074-0.516-0.147-0.774-0.221l-0.774-0.221c-0.922-0.295-1.733-0.59-2.507-0.922l0,0l-1.216-0.627l-0.406-0.221l0,0
			c-0.074-0.037-0.111-0.074-0.184-0.111c-1.327-0.811-1.769-1.548-1.769-1.917c0-1.991,7.926-5.677,20.865-5.677
			s20.865,3.686,20.865,5.677c0,0.369-0.442,1.069-1.733,1.88c-0.258,0.184-0.479,0.295-0.627,0.369l-0.111,0.074
			c-0.221,0.111-0.405,0.221-0.664,0.332c-0.774,0.369-1.806,0.737-2.949,1.106l-0.774,0.221c-0.258,0.074-0.516,0.147-0.774,0.221
			c-1.032,0.258-2.027,0.479-3.06,0.664c-0.221,0.037-0.442,0.074-0.627,0.111l-0.442,0.074c-0.147,0.037-0.295,0.037-0.442,0.074
			c-1.032,0.147-2.064,0.258-3.17,0.369c-0.221,0.037-0.442,0.037-0.7,0.074h-0.147c-0.258,0.037-0.479,0.037-0.737,0.037
			c-1.069,0.074-2.101,0.111-3.133,0.111c-0.258,0-0.516,0-0.737,0C250.59,27.77,250.516,27.77,250.479,27.77z"/>
		<path fill="#1C1738" d="M231.789,26.701v6.193c-0.295-0.147-0.553-0.258-0.811-0.405l0,0c-0.295-0.147-0.553-0.295-0.811-0.442
			v-6.23c0.258,0.147,0.516,0.332,0.811,0.442l0,0C231.236,26.443,231.494,26.59,231.789,26.701z"/>
		<path fill="#1C1738" d="M236.655,28.396v6.193c-0.258-0.074-0.553-0.147-0.811-0.221l0,0c-0.258-0.074-0.553-0.147-0.811-0.258
			v-6.193c0.258,0.074,0.516,0.147,0.811,0.258l0,0C236.102,28.249,236.36,28.323,236.655,28.396z"/>
		<path fill="#1C1738" d="M241.521,29.355v6.193c-0.258-0.037-0.553-0.074-0.811-0.111l0,0c-0.258-0.037-0.553-0.074-0.811-0.147
			v-6.193c0.258,0.037,0.516,0.111,0.811,0.147l0,0C240.968,29.244,241.226,29.318,241.521,29.355z"/>
		<path fill="#1C1738" d="M246.387,29.834v6.193c-0.258,0-0.553-0.037-0.811-0.074l0,0c-0.258,0-0.553-0.037-0.811-0.074v-6.156
			c0.258,0.037,0.516,0.037,0.811,0.074l0,0C245.834,29.797,246.092,29.834,246.387,29.834z"/>
		<path fill="#1C1738" d="M251.253,29.945v6.193c-0.258,0-0.553,0-0.811,0l0,0c-0.258,0-0.553,0-0.811,0v-6.193
			c0.258,0,0.516,0,0.811,0l0,0C250.7,29.945,250.958,29.945,251.253,29.945z"/>
		<path fill="#1C1738" d="M256.119,29.723v6.193c-0.258,0.037-0.553,0.037-0.811,0.074l0,0c-0.258,0.037-0.516,0.037-0.811,0.074
			v-6.23c0.258,0,0.553-0.037,0.811-0.074l0,0C255.566,29.76,255.861,29.723,256.119,29.723z"/>
		<path fill="#1C1738" d="M260.985,29.097v6.193c-0.258,0.037-0.553,0.111-0.811,0.147l0,0c-0.258,0.037-0.516,0.074-0.811,0.111
			v-6.193c0.258-0.037,0.553-0.074,0.811-0.111l0,0C260.432,29.171,260.727,29.134,260.985,29.097z"/>
		<path fill="#1C1738" d="M265.851,27.917v6.193c-0.258,0.074-0.553,0.147-0.811,0.258l0,0c-0.258,0.074-0.516,0.147-0.811,0.221
			v-6.193c0.258-0.074,0.553-0.147,0.811-0.221l0,0C265.298,28.101,265.593,28.028,265.851,27.917z"/>
		<path fill="#1C1738" d="M270.717,25.816v6.193c-0.258,0.147-0.516,0.332-0.811,0.479l0,0c-0.258,0.147-0.516,0.258-0.811,0.405
			v-6.193c0.295-0.147,0.553-0.258,0.811-0.405C270.201,26.148,270.459,25.963,270.717,25.816z"/>
		<path fill="#1C1738" d="M248.525,25.669c2.286-0.184,3.097-1.253,3.097-2.101h0.037c0.995,0.848,2.544,1.29,4.018,1.143
			c1.217-0.111,2.027-0.442,2.433-0.958c0.332-0.369,0.479-0.811,0.406-1.364l1.032-0.074l-0.479-1.106l-0.848,0.074
			c-0.147-0.295-0.295-0.59-0.442-0.848l0.922-0.074l-0.479-1.106l-1.18,0.111h-0.111l-0.59-0.7l-1.548,0.332l0.442,0.553
			l-11.723,0.995l-0.147-0.664h-1.696l0.184,0.774l-1.032,0.074l0.479,1.106l0.885-0.074c0.074,0.184,0.147,0.405,0.258,0.59
			c0.037,0.111,0.111,0.184,0.147,0.258l-0.885,0.074l0.479,1.106l1.069-0.074c0.516,0.664,1.143,1.143,1.917,1.475
			C246.092,25.558,247.198,25.779,248.525,25.669z M255.05,23.604c-1.475,0.111-2.875-0.442-3.391-1.622l-0.442-0.995l4.977-0.442
			c0.147,0.184,0.332,0.442,0.553,0.958C257.225,22.646,256.856,23.457,255.05,23.604z M244.102,22.572
			c-0.184-0.405-0.295-0.7-0.295-0.922l5.898-0.516l0.406,0.922c0.516,1.216,0.074,2.286-2.027,2.47
			C245.797,24.673,244.581,23.715,244.102,22.572z"/>
		<path fill="#49466F" d="M260.58,17.227c4.239,1.216,6.635,2.802,6.635,3.908c0,0.369-0.442,1.069-1.733,1.88
			c-0.258,0.184-0.479,0.295-0.627,0.369l-0.111,0.074c-0.221,0.111-0.405,0.221-0.664,0.332c-0.774,0.369-1.806,0.737-2.949,1.106
			l-0.774,0.221c-0.258,0.074-0.516,0.147-0.774,0.221c-1.032,0.258-2.027,0.479-3.06,0.664c-0.221,0.037-0.442,0.074-0.627,0.111
			l-0.442,0.074c-0.147,0.037-0.295,0.037-0.442,0.074c-1.032,0.147-2.064,0.258-3.17,0.369c-0.221,0.037-0.442,0.037-0.7,0.074
			h-0.147c-0.258,0.037-0.479,0.037-0.737,0.037c-1.069,0.074-2.101,0.111-3.133,0.111c-0.258,0-0.516,0-0.737,0
			c-0.037,0-0.111,0-0.147,0c-0.221,0-0.442,0-0.664,0c-1.069,0-2.101-0.037-3.17-0.111c-0.258,0-0.516-0.037-0.737-0.037h-0.111
			h-0.037c-0.221,0-0.406-0.037-0.627-0.037c-1.18-0.111-2.212-0.221-3.17-0.369c-0.221-0.037-0.369-0.037-0.516-0.074l-0.442-0.074
			c-0.111,0-0.332-0.074-0.479-0.074l0.221,0.074c0.258,0.074,0.516,0.147,0.774,0.221c1.032,0.258,2.064,0.479,3.097,0.664
			c0,0,0.405,0.074,0.59,0.111l0.442,0.074c0.147,0.037,0.295,0.037,0.516,0.074c0.958,0.147,1.991,0.258,3.17,0.369
			c0.221,0,0.406,0.037,0.627,0.037h0.037h0.111c0.258,0.037,0.479,0.037,0.737,0.037c1.069,0.074,2.101,0.111,3.17,0.111
			c0.221,0,0.442,0,0.664,0c0.037,0,0.111,0,0.147,0c0.221,0,0.479,0,0.737,0c1.032,0,2.064-0.037,3.133-0.111
			c0.258,0,0.479-0.037,0.737-0.037h0.147c0.221,0,0.442-0.037,0.7-0.074c1.143-0.111,2.138-0.221,3.17-0.369
			c0.147,0,0.295-0.037,0.442-0.074l0.442-0.074c0.221-0.037,0.405-0.074,0.627-0.111c1.032-0.184,2.027-0.405,3.06-0.664
			c0.258-0.074,0.516-0.147,0.774-0.221l0.774-0.221c1.143-0.369,2.138-0.737,2.949-1.106c0.221-0.111,0.442-0.221,0.664-0.332
			l0.111-0.147c0.184-0.074,0.369-0.184,0.627-0.369c1.29-0.811,1.733-1.511,1.733-1.88
			C271.417,20.655,267.473,18.406,260.58,17.227z"/>
	</g>
</g>
</svg>
