<svg id="Слой_1" data-name="Слой 1" xmlns="http://www.w3.org/2000/svg" viewBox="0 0 64 64"><defs><style>.cls-1{fill:#fff;}.cls-2{fill:#9da6b6;}.cls-3{fill:#121026;}</style></defs><rect class="cls-1" width="64" height="64" rx="10"/><path class="cls-2" d="M39.89,23.12H24.11v12h.05v5.81h2V24.81H37.86v7.46l2,.67V23.12Z"/><path class="cls-2" d="M59.25,19.63,37.86,7v7.41h-24V40.88h.43l2.91-1.74H15.88v-23h24V10.29l15.83,9.34-6,3.54h.43V25Z"/><path class="cls-3" d="M49.72,23.17l-2.91,1.69L42.5,27.43l-.87.48L39.89,29l-2,1v9.25H26.14V31.78h-.05l-4,2.37-6.2,3.68-1.11.63-.92.53-9.1,5.43,10,5.9,7.31,4.31L26.14,57V49.64h24V22.92ZM48.12,47.9h-24v5.86l-2-1.21-.88-.49-13-7.64,6-3.54,2.91-1.69,4.06-2.42.88-.49,2-1.21h.05v5.86H39.94V31.06L41.68,30l.87-.48,5.62-3.29V47.9Z"/></svg>